<?xml version="1.0" encoding="utf-8" standalone="no"?>
<!DOCTYPE svg PUBLIC "-//W3C//DTD SVG 1.1//EN"
  "http://www.w3.org/Graphics/SVG/1.1/DTD/svg11.dtd">
<svg xmlns:xlink="http://www.w3.org/1999/xlink" width="576pt" height="324pt" viewBox="0 0 576 324" xmlns="http://www.w3.org/2000/svg" version="1.1">
 <metadata>
  <rdf:RDF xmlns:dc="http://purl.org/dc/elements/1.1/" xmlns:cc="http://creativecommons.org/ns#" xmlns:rdf="http://www.w3.org/1999/02/22-rdf-syntax-ns#">
   <cc:Work>
    <dc:type rdf:resource="http://purl.org/dc/dcmitype/StillImage"/>
    <dc:date>2026-04-26T15:49:48.700934</dc:date>
    <dc:format>image/svg+xml</dc:format>
    <dc:creator>
     <cc:Agent>
      <dc:title>Matplotlib v3.10.9, https://matplotlib.org/</dc:title>
     </cc:Agent>
    </dc:creator>
   </cc:Work>
  </rdf:RDF>
 </metadata>
 <defs>
  <style type="text/css">*{stroke-linejoin: round; stroke-linecap: butt}</style>
 </defs>
 <g id="figure_1">
  <g id="patch_1">
   <path d="M 0 324 
L 576 324 
L 576 0 
L 0 0 
z
" style="fill: #ffffff"/>
  </g>
  <g id="axes_1">
   <g id="patch_2">
    <path d="M 47.72 282.04 
L 565.2 282.04 
L 565.2 26.88 
L 47.72 26.88 
z
" style="fill: #ffffff"/>
   </g>
   <g id="matplotlib.axis_1">
    <g id="xtick_1">
     <g id="line2d_1">
      <path d="M 71.241818 282.04 
L 71.241818 26.88 
" clip-path="url(#p134621c465)" style="fill: none; stroke: #b0b0b0; stroke-opacity: 0.25; stroke-width: 0.8; stroke-linecap: square"/>
     </g>
     <g id="line2d_2">
      <defs>
       <path id="m2c98ea53d5" d="M 0 0 
L 0 3.5 
" style="stroke: #000000; stroke-width: 0.8"/>
      </defs>
      <g>
       <use xlink:href="#m2c98ea53d5" x="71.241818" y="282.04" style="stroke: #000000; stroke-width: 0.8"/>
      </g>
     </g>
     <g id="text_1">
      <!-- 0 -->
      <g transform="translate(68.060568 296.638438) scale(0.1 -0.1)">
       <defs>
        <path id="DejaVuSans-30" d="M 2034 4250 
Q 1547 4250 1301 3770 
Q 1056 3291 1056 2328 
Q 1056 1369 1301 889 
Q 1547 409 2034 409 
Q 2525 409 2770 889 
Q 3016 1369 3016 2328 
Q 3016 3291 2770 3770 
Q 2525 4250 2034 4250 
z
M 2034 4750 
Q 2819 4750 3233 4129 
Q 3647 3509 3647 2328 
Q 3647 1150 3233 529 
Q 2819 -91 2034 -91 
Q 1250 -91 836 529 
Q 422 1150 422 2328 
Q 422 3509 836 4129 
Q 1250 4750 2034 4750 
z
" transform="scale(0.015625)"/>
       </defs>
       <use xlink:href="#DejaVuSans-30"/>
      </g>
     </g>
    </g>
    <g id="xtick_2">
     <g id="line2d_3">
      <path d="M 171.334662 282.04 
L 171.334662 26.88 
" clip-path="url(#p134621c465)" style="fill: none; stroke: #b0b0b0; stroke-opacity: 0.25; stroke-width: 0.8; stroke-linecap: square"/>
     </g>
     <g id="line2d_4">
      <g>
       <use xlink:href="#m2c98ea53d5" x="171.334662" y="282.04" style="stroke: #000000; stroke-width: 0.8"/>
      </g>
     </g>
     <g id="text_2">
      <!-- 10 -->
      <g transform="translate(164.972162 296.638438) scale(0.1 -0.1)">
       <defs>
        <path id="DejaVuSans-31" d="M 794 531 
L 1825 531 
L 1825 4091 
L 703 3866 
L 703 4441 
L 1819 4666 
L 2450 4666 
L 2450 531 
L 3481 531 
L 3481 0 
L 794 0 
L 794 531 
z
" transform="scale(0.015625)"/>
       </defs>
       <use xlink:href="#DejaVuSans-31"/>
       <use xlink:href="#DejaVuSans-30" transform="translate(63.623047 0)"/>
      </g>
     </g>
    </g>
    <g id="xtick_3">
     <g id="line2d_5">
      <path d="M 271.427505 282.04 
L 271.427505 26.88 
" clip-path="url(#p134621c465)" style="fill: none; stroke: #b0b0b0; stroke-opacity: 0.25; stroke-width: 0.8; stroke-linecap: square"/>
     </g>
     <g id="line2d_6">
      <g>
       <use xlink:href="#m2c98ea53d5" x="271.427505" y="282.04" style="stroke: #000000; stroke-width: 0.8"/>
      </g>
     </g>
     <g id="text_3">
      <!-- 20 -->
      <g transform="translate(265.065005 296.638438) scale(0.1 -0.1)">
       <defs>
        <path id="DejaVuSans-32" d="M 1228 531 
L 3431 531 
L 3431 0 
L 469 0 
L 469 531 
Q 828 903 1448 1529 
Q 2069 2156 2228 2338 
Q 2531 2678 2651 2914 
Q 2772 3150 2772 3378 
Q 2772 3750 2511 3984 
Q 2250 4219 1831 4219 
Q 1534 4219 1204 4116 
Q 875 4013 500 3803 
L 500 4441 
Q 881 4594 1212 4672 
Q 1544 4750 1819 4750 
Q 2544 4750 2975 4387 
Q 3406 4025 3406 3419 
Q 3406 3131 3298 2873 
Q 3191 2616 2906 2266 
Q 2828 2175 2409 1742 
Q 1991 1309 1228 531 
z
" transform="scale(0.015625)"/>
       </defs>
       <use xlink:href="#DejaVuSans-32"/>
       <use xlink:href="#DejaVuSans-30" transform="translate(63.623047 0)"/>
      </g>
     </g>
    </g>
    <g id="xtick_4">
     <g id="line2d_7">
      <path d="M 371.520348 282.04 
L 371.520348 26.88 
" clip-path="url(#p134621c465)" style="fill: none; stroke: #b0b0b0; stroke-opacity: 0.25; stroke-width: 0.8; stroke-linecap: square"/>
     </g>
     <g id="line2d_8">
      <g>
       <use xlink:href="#m2c98ea53d5" x="371.520348" y="282.04" style="stroke: #000000; stroke-width: 0.8"/>
      </g>
     </g>
     <g id="text_4">
      <!-- 30 -->
      <g transform="translate(365.157848 296.638438) scale(0.1 -0.1)">
       <defs>
        <path id="DejaVuSans-33" d="M 2597 2516 
Q 3050 2419 3304 2112 
Q 3559 1806 3559 1356 
Q 3559 666 3084 287 
Q 2609 -91 1734 -91 
Q 1441 -91 1130 -33 
Q 819 25 488 141 
L 488 750 
Q 750 597 1062 519 
Q 1375 441 1716 441 
Q 2309 441 2620 675 
Q 2931 909 2931 1356 
Q 2931 1769 2642 2001 
Q 2353 2234 1838 2234 
L 1294 2234 
L 1294 2753 
L 1863 2753 
Q 2328 2753 2575 2939 
Q 2822 3125 2822 3475 
Q 2822 3834 2567 4026 
Q 2313 4219 1838 4219 
Q 1578 4219 1281 4162 
Q 984 4106 628 3988 
L 628 4550 
Q 988 4650 1302 4700 
Q 1616 4750 1894 4750 
Q 2613 4750 3031 4423 
Q 3450 4097 3450 3541 
Q 3450 3153 3228 2886 
Q 3006 2619 2597 2516 
z
" transform="scale(0.015625)"/>
       </defs>
       <use xlink:href="#DejaVuSans-33"/>
       <use xlink:href="#DejaVuSans-30" transform="translate(63.623047 0)"/>
      </g>
     </g>
    </g>
    <g id="xtick_5">
     <g id="line2d_9">
      <path d="M 471.613191 282.04 
L 471.613191 26.88 
" clip-path="url(#p134621c465)" style="fill: none; stroke: #b0b0b0; stroke-opacity: 0.25; stroke-width: 0.8; stroke-linecap: square"/>
     </g>
     <g id="line2d_10">
      <g>
       <use xlink:href="#m2c98ea53d5" x="471.613191" y="282.04" style="stroke: #000000; stroke-width: 0.8"/>
      </g>
     </g>
     <g id="text_5">
      <!-- 40 -->
      <g transform="translate(465.250691 296.638438) scale(0.1 -0.1)">
       <defs>
        <path id="DejaVuSans-34" d="M 2419 4116 
L 825 1625 
L 2419 1625 
L 2419 4116 
z
M 2253 4666 
L 3047 4666 
L 3047 1625 
L 3713 1625 
L 3713 1100 
L 3047 1100 
L 3047 0 
L 2419 0 
L 2419 1100 
L 313 1100 
L 313 1709 
L 2253 4666 
z
" transform="scale(0.015625)"/>
       </defs>
       <use xlink:href="#DejaVuSans-34"/>
       <use xlink:href="#DejaVuSans-30" transform="translate(63.623047 0)"/>
      </g>
     </g>
    </g>
    <g id="text_6">
     <!-- Episode index -->
     <g transform="translate(271.552969 310.316563) scale(0.1 -0.1)">
      <defs>
       <path id="DejaVuSans-45" d="M 628 4666 
L 3578 4666 
L 3578 4134 
L 1259 4134 
L 1259 2753 
L 3481 2753 
L 3481 2222 
L 1259 2222 
L 1259 531 
L 3634 531 
L 3634 0 
L 628 0 
L 628 4666 
z
" transform="scale(0.015625)"/>
       <path id="DejaVuSans-70" d="M 1159 525 
L 1159 -1331 
L 581 -1331 
L 581 3500 
L 1159 3500 
L 1159 2969 
Q 1341 3281 1617 3432 
Q 1894 3584 2278 3584 
Q 2916 3584 3314 3078 
Q 3713 2572 3713 1747 
Q 3713 922 3314 415 
Q 2916 -91 2278 -91 
Q 1894 -91 1617 61 
Q 1341 213 1159 525 
z
M 3116 1747 
Q 3116 2381 2855 2742 
Q 2594 3103 2138 3103 
Q 1681 3103 1420 2742 
Q 1159 2381 1159 1747 
Q 1159 1113 1420 752 
Q 1681 391 2138 391 
Q 2594 391 2855 752 
Q 3116 1113 3116 1747 
z
" transform="scale(0.015625)"/>
       <path id="DejaVuSans-69" d="M 603 3500 
L 1178 3500 
L 1178 0 
L 603 0 
L 603 3500 
z
M 603 4863 
L 1178 4863 
L 1178 4134 
L 603 4134 
L 603 4863 
z
" transform="scale(0.015625)"/>
       <path id="DejaVuSans-73" d="M 2834 3397 
L 2834 2853 
Q 2591 2978 2328 3040 
Q 2066 3103 1784 3103 
Q 1356 3103 1142 2972 
Q 928 2841 928 2578 
Q 928 2378 1081 2264 
Q 1234 2150 1697 2047 
L 1894 2003 
Q 2506 1872 2764 1633 
Q 3022 1394 3022 966 
Q 3022 478 2636 193 
Q 2250 -91 1575 -91 
Q 1294 -91 989 -36 
Q 684 19 347 128 
L 347 722 
Q 666 556 975 473 
Q 1284 391 1588 391 
Q 1994 391 2212 530 
Q 2431 669 2431 922 
Q 2431 1156 2273 1281 
Q 2116 1406 1581 1522 
L 1381 1569 
Q 847 1681 609 1914 
Q 372 2147 372 2553 
Q 372 3047 722 3315 
Q 1072 3584 1716 3584 
Q 2034 3584 2315 3537 
Q 2597 3491 2834 3397 
z
" transform="scale(0.015625)"/>
       <path id="DejaVuSans-6f" d="M 1959 3097 
Q 1497 3097 1228 2736 
Q 959 2375 959 1747 
Q 959 1119 1226 758 
Q 1494 397 1959 397 
Q 2419 397 2687 759 
Q 2956 1122 2956 1747 
Q 2956 2369 2687 2733 
Q 2419 3097 1959 3097 
z
M 1959 3584 
Q 2709 3584 3137 3096 
Q 3566 2609 3566 1747 
Q 3566 888 3137 398 
Q 2709 -91 1959 -91 
Q 1206 -91 779 398 
Q 353 888 353 1747 
Q 353 2609 779 3096 
Q 1206 3584 1959 3584 
z
" transform="scale(0.015625)"/>
       <path id="DejaVuSans-64" d="M 2906 2969 
L 2906 4863 
L 3481 4863 
L 3481 0 
L 2906 0 
L 2906 525 
Q 2725 213 2448 61 
Q 2172 -91 1784 -91 
Q 1150 -91 751 415 
Q 353 922 353 1747 
Q 353 2572 751 3078 
Q 1150 3584 1784 3584 
Q 2172 3584 2448 3432 
Q 2725 3281 2906 2969 
z
M 947 1747 
Q 947 1113 1208 752 
Q 1469 391 1925 391 
Q 2381 391 2643 752 
Q 2906 1113 2906 1747 
Q 2906 2381 2643 2742 
Q 2381 3103 1925 3103 
Q 1469 3103 1208 2742 
Q 947 2381 947 1747 
z
" transform="scale(0.015625)"/>
       <path id="DejaVuSans-65" d="M 3597 1894 
L 3597 1613 
L 953 1613 
Q 991 1019 1311 708 
Q 1631 397 2203 397 
Q 2534 397 2845 478 
Q 3156 559 3463 722 
L 3463 178 
Q 3153 47 2828 -22 
Q 2503 -91 2169 -91 
Q 1331 -91 842 396 
Q 353 884 353 1716 
Q 353 2575 817 3079 
Q 1281 3584 2069 3584 
Q 2775 3584 3186 3129 
Q 3597 2675 3597 1894 
z
M 3022 2063 
Q 3016 2534 2758 2815 
Q 2500 3097 2075 3097 
Q 1594 3097 1305 2825 
Q 1016 2553 972 2059 
L 3022 2063 
z
" transform="scale(0.015625)"/>
       <path id="DejaVuSans-20" transform="scale(0.015625)"/>
       <path id="DejaVuSans-6e" d="M 3513 2113 
L 3513 0 
L 2938 0 
L 2938 2094 
Q 2938 2591 2744 2837 
Q 2550 3084 2163 3084 
Q 1697 3084 1428 2787 
Q 1159 2491 1159 1978 
L 1159 0 
L 581 0 
L 581 3500 
L 1159 3500 
L 1159 2956 
Q 1366 3272 1645 3428 
Q 1925 3584 2291 3584 
Q 2894 3584 3203 3211 
Q 3513 2838 3513 2113 
z
" transform="scale(0.015625)"/>
       <path id="DejaVuSans-78" d="M 3513 3500 
L 2247 1797 
L 3578 0 
L 2900 0 
L 1881 1375 
L 863 0 
L 184 0 
L 1544 1831 
L 300 3500 
L 978 3500 
L 1906 2253 
L 2834 3500 
L 3513 3500 
z
" transform="scale(0.015625)"/>
      </defs>
      <use xlink:href="#DejaVuSans-45"/>
      <use xlink:href="#DejaVuSans-70" transform="translate(63.183594 0)"/>
      <use xlink:href="#DejaVuSans-69" transform="translate(126.660156 0)"/>
      <use xlink:href="#DejaVuSans-73" transform="translate(154.443359 0)"/>
      <use xlink:href="#DejaVuSans-6f" transform="translate(206.542969 0)"/>
      <use xlink:href="#DejaVuSans-64" transform="translate(267.724609 0)"/>
      <use xlink:href="#DejaVuSans-65" transform="translate(331.201172 0)"/>
      <use xlink:href="#DejaVuSans-20" transform="translate(392.724609 0)"/>
      <use xlink:href="#DejaVuSans-69" transform="translate(424.511719 0)"/>
      <use xlink:href="#DejaVuSans-6e" transform="translate(452.294922 0)"/>
      <use xlink:href="#DejaVuSans-64" transform="translate(515.673828 0)"/>
      <use xlink:href="#DejaVuSans-65" transform="translate(579.150391 0)"/>
      <use xlink:href="#DejaVuSans-78" transform="translate(638.923828 0)"/>
     </g>
    </g>
   </g>
   <g id="matplotlib.axis_2">
    <g id="ytick_1">
     <g id="line2d_11">
      <path d="M 47.72 247.159223 
L 565.2 247.159223 
" clip-path="url(#p134621c465)" style="fill: none; stroke: #b0b0b0; stroke-opacity: 0.25; stroke-width: 0.8; stroke-linecap: square"/>
     </g>
     <g id="line2d_12">
      <defs>
       <path id="m5b3655f919" d="M 0 0 
L -3.5 0 
" style="stroke: #000000; stroke-width: 0.8"/>
      </defs>
      <g>
       <use xlink:href="#m5b3655f919" x="47.72" y="247.159223" style="stroke: #000000; stroke-width: 0.8"/>
      </g>
     </g>
     <g id="text_7">
      <!-- 0.5 -->
      <g transform="translate(24.816875 250.958441) scale(0.1 -0.1)">
       <defs>
        <path id="DejaVuSans-2e" d="M 684 794 
L 1344 794 
L 1344 0 
L 684 0 
L 684 794 
z
" transform="scale(0.015625)"/>
        <path id="DejaVuSans-35" d="M 691 4666 
L 3169 4666 
L 3169 4134 
L 1269 4134 
L 1269 2991 
Q 1406 3038 1543 3061 
Q 1681 3084 1819 3084 
Q 2600 3084 3056 2656 
Q 3513 2228 3513 1497 
Q 3513 744 3044 326 
Q 2575 -91 1722 -91 
Q 1428 -91 1123 -41 
Q 819 9 494 109 
L 494 744 
Q 775 591 1075 516 
Q 1375 441 1709 441 
Q 2250 441 2565 725 
Q 2881 1009 2881 1497 
Q 2881 1984 2565 2268 
Q 2250 2553 1709 2553 
Q 1456 2553 1204 2497 
Q 953 2441 691 2322 
L 691 4666 
z
" transform="scale(0.015625)"/>
       </defs>
       <use xlink:href="#DejaVuSans-30"/>
       <use xlink:href="#DejaVuSans-2e" transform="translate(63.623047 0)"/>
       <use xlink:href="#DejaVuSans-35" transform="translate(95.410156 0)"/>
      </g>
     </g>
    </g>
    <g id="ytick_2">
     <g id="line2d_13">
      <path d="M 47.72 204.043305 
L 565.2 204.043305 
" clip-path="url(#p134621c465)" style="fill: none; stroke: #b0b0b0; stroke-opacity: 0.25; stroke-width: 0.8; stroke-linecap: square"/>
     </g>
     <g id="line2d_14">
      <g>
       <use xlink:href="#m5b3655f919" x="47.72" y="204.043305" style="stroke: #000000; stroke-width: 0.8"/>
      </g>
     </g>
     <g id="text_8">
      <!-- 0.6 -->
      <g transform="translate(24.816875 207.842524) scale(0.1 -0.1)">
       <defs>
        <path id="DejaVuSans-36" d="M 2113 2584 
Q 1688 2584 1439 2293 
Q 1191 2003 1191 1497 
Q 1191 994 1439 701 
Q 1688 409 2113 409 
Q 2538 409 2786 701 
Q 3034 994 3034 1497 
Q 3034 2003 2786 2293 
Q 2538 2584 2113 2584 
z
M 3366 4563 
L 3366 3988 
Q 3128 4100 2886 4159 
Q 2644 4219 2406 4219 
Q 1781 4219 1451 3797 
Q 1122 3375 1075 2522 
Q 1259 2794 1537 2939 
Q 1816 3084 2150 3084 
Q 2853 3084 3261 2657 
Q 3669 2231 3669 1497 
Q 3669 778 3244 343 
Q 2819 -91 2113 -91 
Q 1303 -91 875 529 
Q 447 1150 447 2328 
Q 447 3434 972 4092 
Q 1497 4750 2381 4750 
Q 2619 4750 2861 4703 
Q 3103 4656 3366 4563 
z
" transform="scale(0.015625)"/>
       </defs>
       <use xlink:href="#DejaVuSans-30"/>
       <use xlink:href="#DejaVuSans-2e" transform="translate(63.623047 0)"/>
       <use xlink:href="#DejaVuSans-36" transform="translate(95.410156 0)"/>
      </g>
     </g>
    </g>
    <g id="ytick_3">
     <g id="line2d_15">
      <path d="M 47.72 160.927388 
L 565.2 160.927388 
" clip-path="url(#p134621c465)" style="fill: none; stroke: #b0b0b0; stroke-opacity: 0.25; stroke-width: 0.8; stroke-linecap: square"/>
     </g>
     <g id="line2d_16">
      <g>
       <use xlink:href="#m5b3655f919" x="47.72" y="160.927388" style="stroke: #000000; stroke-width: 0.8"/>
      </g>
     </g>
     <g id="text_9">
      <!-- 0.7 -->
      <g transform="translate(24.816875 164.726606) scale(0.1 -0.1)">
       <defs>
        <path id="DejaVuSans-37" d="M 525 4666 
L 3525 4666 
L 3525 4397 
L 1831 0 
L 1172 0 
L 2766 4134 
L 525 4134 
L 525 4666 
z
" transform="scale(0.015625)"/>
       </defs>
       <use xlink:href="#DejaVuSans-30"/>
       <use xlink:href="#DejaVuSans-2e" transform="translate(63.623047 0)"/>
       <use xlink:href="#DejaVuSans-37" transform="translate(95.410156 0)"/>
      </g>
     </g>
    </g>
    <g id="ytick_4">
     <g id="line2d_17">
      <path d="M 47.72 117.81147 
L 565.2 117.81147 
" clip-path="url(#p134621c465)" style="fill: none; stroke: #b0b0b0; stroke-opacity: 0.25; stroke-width: 0.8; stroke-linecap: square"/>
     </g>
     <g id="line2d_18">
      <g>
       <use xlink:href="#m5b3655f919" x="47.72" y="117.81147" style="stroke: #000000; stroke-width: 0.8"/>
      </g>
     </g>
     <g id="text_10">
      <!-- 0.8 -->
      <g transform="translate(24.816875 121.610689) scale(0.1 -0.1)">
       <defs>
        <path id="DejaVuSans-38" d="M 2034 2216 
Q 1584 2216 1326 1975 
Q 1069 1734 1069 1313 
Q 1069 891 1326 650 
Q 1584 409 2034 409 
Q 2484 409 2743 651 
Q 3003 894 3003 1313 
Q 3003 1734 2745 1975 
Q 2488 2216 2034 2216 
z
M 1403 2484 
Q 997 2584 770 2862 
Q 544 3141 544 3541 
Q 544 4100 942 4425 
Q 1341 4750 2034 4750 
Q 2731 4750 3128 4425 
Q 3525 4100 3525 3541 
Q 3525 3141 3298 2862 
Q 3072 2584 2669 2484 
Q 3125 2378 3379 2068 
Q 3634 1759 3634 1313 
Q 3634 634 3220 271 
Q 2806 -91 2034 -91 
Q 1263 -91 848 271 
Q 434 634 434 1313 
Q 434 1759 690 2068 
Q 947 2378 1403 2484 
z
M 1172 3481 
Q 1172 3119 1398 2916 
Q 1625 2713 2034 2713 
Q 2441 2713 2670 2916 
Q 2900 3119 2900 3481 
Q 2900 3844 2670 4047 
Q 2441 4250 2034 4250 
Q 1625 4250 1398 4047 
Q 1172 3844 1172 3481 
z
" transform="scale(0.015625)"/>
       </defs>
       <use xlink:href="#DejaVuSans-30"/>
       <use xlink:href="#DejaVuSans-2e" transform="translate(63.623047 0)"/>
       <use xlink:href="#DejaVuSans-38" transform="translate(95.410156 0)"/>
      </g>
     </g>
    </g>
    <g id="ytick_5">
     <g id="line2d_19">
      <path d="M 47.72 74.695553 
L 565.2 74.695553 
" clip-path="url(#p134621c465)" style="fill: none; stroke: #b0b0b0; stroke-opacity: 0.25; stroke-width: 0.8; stroke-linecap: square"/>
     </g>
     <g id="line2d_20">
      <g>
       <use xlink:href="#m5b3655f919" x="47.72" y="74.695553" style="stroke: #000000; stroke-width: 0.8"/>
      </g>
     </g>
     <g id="text_11">
      <!-- 0.9 -->
      <g transform="translate(24.816875 78.494771) scale(0.1 -0.1)">
       <defs>
        <path id="DejaVuSans-39" d="M 703 97 
L 703 672 
Q 941 559 1184 500 
Q 1428 441 1663 441 
Q 2288 441 2617 861 
Q 2947 1281 2994 2138 
Q 2813 1869 2534 1725 
Q 2256 1581 1919 1581 
Q 1219 1581 811 2004 
Q 403 2428 403 3163 
Q 403 3881 828 4315 
Q 1253 4750 1959 4750 
Q 2769 4750 3195 4129 
Q 3622 3509 3622 2328 
Q 3622 1225 3098 567 
Q 2575 -91 1691 -91 
Q 1453 -91 1209 -44 
Q 966 3 703 97 
z
M 1959 2075 
Q 2384 2075 2632 2365 
Q 2881 2656 2881 3163 
Q 2881 3666 2632 3958 
Q 2384 4250 1959 4250 
Q 1534 4250 1286 3958 
Q 1038 3666 1038 3163 
Q 1038 2656 1286 2365 
Q 1534 2075 1959 2075 
z
" transform="scale(0.015625)"/>
       </defs>
       <use xlink:href="#DejaVuSans-30"/>
       <use xlink:href="#DejaVuSans-2e" transform="translate(63.623047 0)"/>
       <use xlink:href="#DejaVuSans-39" transform="translate(95.410156 0)"/>
      </g>
     </g>
    </g>
    <g id="ytick_6">
     <g id="line2d_21">
      <path d="M 47.72 31.579635 
L 565.2 31.579635 
" clip-path="url(#p134621c465)" style="fill: none; stroke: #b0b0b0; stroke-opacity: 0.25; stroke-width: 0.8; stroke-linecap: square"/>
     </g>
     <g id="line2d_22">
      <g>
       <use xlink:href="#m5b3655f919" x="47.72" y="31.579635" style="stroke: #000000; stroke-width: 0.8"/>
      </g>
     </g>
     <g id="text_12">
      <!-- 1.0 -->
      <g transform="translate(24.816875 35.378854) scale(0.1 -0.1)">
       <use xlink:href="#DejaVuSans-31"/>
       <use xlink:href="#DejaVuSans-2e" transform="translate(63.623047 0)"/>
       <use xlink:href="#DejaVuSans-30" transform="translate(95.410156 0)"/>
      </g>
     </g>
    </g>
    <g id="text_13">
     <!-- Membrane episode score (0–1) -->
     <g transform="translate(18.737188 231.77875) rotate(-90) scale(0.1 -0.1)">
      <defs>
       <path id="DejaVuSans-4d" d="M 628 4666 
L 1569 4666 
L 2759 1491 
L 3956 4666 
L 4897 4666 
L 4897 0 
L 4281 0 
L 4281 4097 
L 3078 897 
L 2444 897 
L 1241 4097 
L 1241 0 
L 628 0 
L 628 4666 
z
" transform="scale(0.015625)"/>
       <path id="DejaVuSans-6d" d="M 3328 2828 
Q 3544 3216 3844 3400 
Q 4144 3584 4550 3584 
Q 5097 3584 5394 3201 
Q 5691 2819 5691 2113 
L 5691 0 
L 5113 0 
L 5113 2094 
Q 5113 2597 4934 2840 
Q 4756 3084 4391 3084 
Q 3944 3084 3684 2787 
Q 3425 2491 3425 1978 
L 3425 0 
L 2847 0 
L 2847 2094 
Q 2847 2600 2669 2842 
Q 2491 3084 2119 3084 
Q 1678 3084 1418 2786 
Q 1159 2488 1159 1978 
L 1159 0 
L 581 0 
L 581 3500 
L 1159 3500 
L 1159 2956 
Q 1356 3278 1631 3431 
Q 1906 3584 2284 3584 
Q 2666 3584 2933 3390 
Q 3200 3197 3328 2828 
z
" transform="scale(0.015625)"/>
       <path id="DejaVuSans-62" d="M 3116 1747 
Q 3116 2381 2855 2742 
Q 2594 3103 2138 3103 
Q 1681 3103 1420 2742 
Q 1159 2381 1159 1747 
Q 1159 1113 1420 752 
Q 1681 391 2138 391 
Q 2594 391 2855 752 
Q 3116 1113 3116 1747 
z
M 1159 2969 
Q 1341 3281 1617 3432 
Q 1894 3584 2278 3584 
Q 2916 3584 3314 3078 
Q 3713 2572 3713 1747 
Q 3713 922 3314 415 
Q 2916 -91 2278 -91 
Q 1894 -91 1617 61 
Q 1341 213 1159 525 
L 1159 0 
L 581 0 
L 581 4863 
L 1159 4863 
L 1159 2969 
z
" transform="scale(0.015625)"/>
       <path id="DejaVuSans-72" d="M 2631 2963 
Q 2534 3019 2420 3045 
Q 2306 3072 2169 3072 
Q 1681 3072 1420 2755 
Q 1159 2438 1159 1844 
L 1159 0 
L 581 0 
L 581 3500 
L 1159 3500 
L 1159 2956 
Q 1341 3275 1631 3429 
Q 1922 3584 2338 3584 
Q 2397 3584 2469 3576 
Q 2541 3569 2628 3553 
L 2631 2963 
z
" transform="scale(0.015625)"/>
       <path id="DejaVuSans-61" d="M 2194 1759 
Q 1497 1759 1228 1600 
Q 959 1441 959 1056 
Q 959 750 1161 570 
Q 1363 391 1709 391 
Q 2188 391 2477 730 
Q 2766 1069 2766 1631 
L 2766 1759 
L 2194 1759 
z
M 3341 1997 
L 3341 0 
L 2766 0 
L 2766 531 
Q 2569 213 2275 61 
Q 1981 -91 1556 -91 
Q 1019 -91 701 211 
Q 384 513 384 1019 
Q 384 1609 779 1909 
Q 1175 2209 1959 2209 
L 2766 2209 
L 2766 2266 
Q 2766 2663 2505 2880 
Q 2244 3097 1772 3097 
Q 1472 3097 1187 3025 
Q 903 2953 641 2809 
L 641 3341 
Q 956 3463 1253 3523 
Q 1550 3584 1831 3584 
Q 2591 3584 2966 3190 
Q 3341 2797 3341 1997 
z
" transform="scale(0.015625)"/>
       <path id="DejaVuSans-63" d="M 3122 3366 
L 3122 2828 
Q 2878 2963 2633 3030 
Q 2388 3097 2138 3097 
Q 1578 3097 1268 2742 
Q 959 2388 959 1747 
Q 959 1106 1268 751 
Q 1578 397 2138 397 
Q 2388 397 2633 464 
Q 2878 531 3122 666 
L 3122 134 
Q 2881 22 2623 -34 
Q 2366 -91 2075 -91 
Q 1284 -91 818 406 
Q 353 903 353 1747 
Q 353 2603 823 3093 
Q 1294 3584 2113 3584 
Q 2378 3584 2631 3529 
Q 2884 3475 3122 3366 
z
" transform="scale(0.015625)"/>
       <path id="DejaVuSans-28" d="M 1984 4856 
Q 1566 4138 1362 3434 
Q 1159 2731 1159 2009 
Q 1159 1288 1364 580 
Q 1569 -128 1984 -844 
L 1484 -844 
Q 1016 -109 783 600 
Q 550 1309 550 2009 
Q 550 2706 781 3412 
Q 1013 4119 1484 4856 
L 1984 4856 
z
" transform="scale(0.015625)"/>
       <path id="DejaVuSans-2013" d="M 313 1978 
L 2888 1978 
L 2888 1528 
L 313 1528 
L 313 1978 
z
" transform="scale(0.015625)"/>
       <path id="DejaVuSans-29" d="M 513 4856 
L 1013 4856 
Q 1481 4119 1714 3412 
Q 1947 2706 1947 2009 
Q 1947 1309 1714 600 
Q 1481 -109 1013 -844 
L 513 -844 
Q 928 -128 1133 580 
Q 1338 1288 1338 2009 
Q 1338 2731 1133 3434 
Q 928 4138 513 4856 
z
" transform="scale(0.015625)"/>
      </defs>
      <use xlink:href="#DejaVuSans-4d"/>
      <use xlink:href="#DejaVuSans-65" transform="translate(86.279297 0)"/>
      <use xlink:href="#DejaVuSans-6d" transform="translate(147.802734 0)"/>
      <use xlink:href="#DejaVuSans-62" transform="translate(245.214844 0)"/>
      <use xlink:href="#DejaVuSans-72" transform="translate(308.691406 0)"/>
      <use xlink:href="#DejaVuSans-61" transform="translate(349.804688 0)"/>
      <use xlink:href="#DejaVuSans-6e" transform="translate(411.083984 0)"/>
      <use xlink:href="#DejaVuSans-65" transform="translate(474.462891 0)"/>
      <use xlink:href="#DejaVuSans-20" transform="translate(535.986328 0)"/>
      <use xlink:href="#DejaVuSans-65" transform="translate(567.773438 0)"/>
      <use xlink:href="#DejaVuSans-70" transform="translate(629.296875 0)"/>
      <use xlink:href="#DejaVuSans-69" transform="translate(692.773438 0)"/>
      <use xlink:href="#DejaVuSans-73" transform="translate(720.556641 0)"/>
      <use xlink:href="#DejaVuSans-6f" transform="translate(772.65625 0)"/>
      <use xlink:href="#DejaVuSans-64" transform="translate(833.837891 0)"/>
      <use xlink:href="#DejaVuSans-65" transform="translate(897.314453 0)"/>
      <use xlink:href="#DejaVuSans-20" transform="translate(958.837891 0)"/>
      <use xlink:href="#DejaVuSans-73" transform="translate(990.625 0)"/>
      <use xlink:href="#DejaVuSans-63" transform="translate(1042.724609 0)"/>
      <use xlink:href="#DejaVuSans-6f" transform="translate(1097.705078 0)"/>
      <use xlink:href="#DejaVuSans-72" transform="translate(1158.886719 0)"/>
      <use xlink:href="#DejaVuSans-65" transform="translate(1197.75 0)"/>
      <use xlink:href="#DejaVuSans-20" transform="translate(1259.273438 0)"/>
      <use xlink:href="#DejaVuSans-28" transform="translate(1291.060547 0)"/>
      <use xlink:href="#DejaVuSans-30" transform="translate(1330.074219 0)"/>
      <use xlink:href="#DejaVuSans-2013" transform="translate(1393.697266 0)"/>
      <use xlink:href="#DejaVuSans-31" transform="translate(1443.697266 0)"/>
      <use xlink:href="#DejaVuSans-29" transform="translate(1507.320312 0)"/>
     </g>
    </g>
   </g>
   <g id="line2d_23">
    <path d="M 71.241818 270.441818 
L 81.251103 270.441818 
L 91.260387 270.441818 
L 101.269671 270.441818 
L 111.278956 270.441818 
L 121.28824 270.441818 
L 131.297524 270.441818 
L 141.306809 270.441818 
L 151.316093 270.441818 
L 161.325377 270.441818 
L 171.334662 270.441818 
L 181.343946 270.441818 
L 191.35323 270.441818 
L 201.362515 270.441818 
L 211.371799 270.441818 
L 221.381083 270.441818 
L 231.390368 270.441818 
L 241.399652 270.441818 
L 251.408936 270.441818 
L 261.418221 270.441818 
L 271.427505 270.441818 
L 281.436789 270.441818 
L 291.446074 270.441818 
L 301.455358 270.441818 
L 311.464642 270.441818 
L 321.473926 270.441818 
L 331.483211 270.441818 
L 341.492495 270.441818 
L 351.501779 270.441818 
L 361.511064 270.441818 
L 371.520348 270.441818 
L 381.529632 270.441818 
L 391.538917 270.441818 
L 401.548201 270.441818 
L 411.557485 270.441818 
L 421.56677 270.441818 
L 431.576054 270.441818 
L 441.585338 270.441818 
L 451.594623 270.441818 
L 461.603907 270.441818 
L 471.613191 270.441818 
L 481.622476 270.441818 
L 491.63176 270.441818 
L 501.641044 270.441818 
L 511.650329 270.441818 
L 521.659613 270.441818 
L 531.668897 270.441818 
L 541.678182 270.441818 
" clip-path="url(#p134621c465)" style="fill: none; stroke: #c0392b; stroke-opacity: 0.35; stroke-linecap: square"/>
   </g>
   <g id="line2d_24">
    <path d="M 71.241818 270.441818 
L 81.251103 270.441818 
L 91.260387 270.441818 
L 101.269671 270.441818 
L 111.278956 270.441818 
L 121.28824 270.441818 
L 131.297524 270.441818 
L 141.306809 270.441818 
L 151.316093 270.441818 
L 161.325377 270.441818 
L 171.334662 270.441818 
L 181.343946 270.441818 
L 191.35323 270.441818 
L 201.362515 270.441818 
L 211.371799 270.441818 
L 221.381083 270.441818 
L 231.390368 270.441818 
L 241.399652 270.441818 
L 251.408936 270.441818 
L 261.418221 270.441818 
L 271.427505 270.441818 
L 281.436789 270.441818 
L 291.446074 270.441818 
L 301.455358 270.441818 
L 311.464642 270.441818 
L 321.473926 270.441818 
L 331.483211 270.441818 
L 341.492495 270.441818 
L 351.501779 270.441818 
L 361.511064 270.441818 
L 371.520348 270.441818 
L 381.529632 270.441818 
L 391.538917 270.441818 
L 401.548201 270.441818 
L 411.557485 270.441818 
L 421.56677 270.441818 
L 431.576054 270.441818 
L 441.585338 270.441818 
L 451.594623 270.441818 
L 461.603907 270.441818 
L 471.613191 270.441818 
L 481.622476 270.441818 
L 491.63176 270.441818 
L 501.641044 270.441818 
L 511.650329 270.441818 
L 521.659613 270.441818 
L 531.668897 270.441818 
L 541.678182 270.441818 
" clip-path="url(#p134621c465)" style="fill: none; stroke: #c0392b; stroke-width: 1.5; stroke-linecap: square"/>
   </g>
   <g id="line2d_25">
    <path d="M 71.241818 38.478182 
L 81.251103 38.478182 
L 91.260387 38.478182 
L 101.269671 38.478182 
L 111.278956 38.478182 
L 121.28824 38.478182 
L 131.297524 38.478182 
L 141.306809 38.478182 
L 151.316093 38.478182 
L 161.325377 38.478182 
L 171.334662 38.478182 
L 181.343946 38.478182 
L 191.35323 38.478182 
L 201.362515 38.478182 
L 211.371799 38.478182 
L 221.381083 38.478182 
L 231.390368 38.478182 
L 241.399652 38.478182 
L 251.408936 38.478182 
L 261.418221 38.478182 
L 271.427505 38.478182 
L 281.436789 38.478182 
L 291.446074 38.478182 
L 301.455358 38.478182 
L 311.464642 38.478182 
L 321.473926 38.478182 
L 331.483211 38.478182 
L 341.492495 38.478182 
L 351.501779 38.478182 
L 361.511064 38.478182 
L 371.520348 38.478182 
L 381.529632 38.478182 
L 391.538917 38.478182 
L 401.548201 38.478182 
L 411.557485 38.478182 
L 421.56677 38.478182 
L 431.576054 38.478182 
L 441.585338 38.478182 
L 451.594623 38.478182 
L 461.603907 38.478182 
L 471.613191 38.478182 
L 481.622476 38.478182 
L 491.63176 38.478182 
L 501.641044 38.478182 
L 511.650329 38.478182 
L 521.659613 38.478182 
L 531.668897 38.478182 
L 541.678182 38.478182 
" clip-path="url(#p134621c465)" style="fill: none; stroke: #27ae60; stroke-opacity: 0.35; stroke-linecap: square"/>
   </g>
   <g id="line2d_26">
    <path d="M 71.241818 38.478182 
L 81.251103 38.478182 
L 91.260387 38.478182 
L 101.269671 38.478182 
L 111.278956 38.478182 
L 121.28824 38.478182 
L 131.297524 38.478182 
L 141.306809 38.478182 
L 151.316093 38.478182 
L 161.325377 38.478182 
L 171.334662 38.478182 
L 181.343946 38.478182 
L 191.35323 38.478182 
L 201.362515 38.478182 
L 211.371799 38.478182 
L 221.381083 38.478182 
L 231.390368 38.478182 
L 241.399652 38.478182 
L 251.408936 38.478182 
L 261.418221 38.478182 
L 271.427505 38.478182 
L 281.436789 38.478182 
L 291.446074 38.478182 
L 301.455358 38.478182 
L 311.464642 38.478182 
L 321.473926 38.478182 
L 331.483211 38.478182 
L 341.492495 38.478182 
L 351.501779 38.478182 
L 361.511064 38.478182 
L 371.520348 38.478182 
L 381.529632 38.478182 
L 391.538917 38.478182 
L 401.548201 38.478182 
L 411.557485 38.478182 
L 421.56677 38.478182 
L 431.576054 38.478182 
L 441.585338 38.478182 
L 451.594623 38.478182 
L 461.603907 38.478182 
L 471.613191 38.478182 
L 481.622476 38.478182 
L 491.63176 38.478182 
L 501.641044 38.478182 
L 511.650329 38.478182 
L 521.659613 38.478182 
L 531.668897 38.478182 
L 541.678182 38.478182 
" clip-path="url(#p134621c465)" style="fill: none; stroke: #27ae60; stroke-width: 1.5; stroke-linecap: square"/>
   </g>
   <g id="patch_3">
    <path d="M 47.72 282.04 
L 47.72 26.88 
" style="fill: none; stroke: #000000; stroke-width: 0.8; stroke-linejoin: miter; stroke-linecap: square"/>
   </g>
   <g id="patch_4">
    <path d="M 565.2 282.04 
L 565.2 26.88 
" style="fill: none; stroke: #000000; stroke-width: 0.8; stroke-linejoin: miter; stroke-linecap: square"/>
   </g>
   <g id="patch_5">
    <path d="M 47.72 282.04 
L 565.2 282.04 
" style="fill: none; stroke: #000000; stroke-width: 0.8; stroke-linejoin: miter; stroke-linecap: square"/>
   </g>
   <g id="patch_6">
    <path d="M 47.72 26.88 
L 565.2 26.88 
" style="fill: none; stroke: #000000; stroke-width: 0.8; stroke-linejoin: miter; stroke-linecap: square"/>
   </g>
   <g id="text_14">
    <!-- Scripted policies on the refuse-leak scenario (not the neural model) -->
    <g transform="translate(103.500625 20.88) scale(0.12 -0.12)">
     <defs>
      <path id="DejaVuSans-53" d="M 3425 4513 
L 3425 3897 
Q 3066 4069 2747 4153 
Q 2428 4238 2131 4238 
Q 1616 4238 1336 4038 
Q 1056 3838 1056 3469 
Q 1056 3159 1242 3001 
Q 1428 2844 1947 2747 
L 2328 2669 
Q 3034 2534 3370 2195 
Q 3706 1856 3706 1288 
Q 3706 609 3251 259 
Q 2797 -91 1919 -91 
Q 1588 -91 1214 -16 
Q 841 59 441 206 
L 441 856 
Q 825 641 1194 531 
Q 1563 422 1919 422 
Q 2459 422 2753 634 
Q 3047 847 3047 1241 
Q 3047 1584 2836 1778 
Q 2625 1972 2144 2069 
L 1759 2144 
Q 1053 2284 737 2584 
Q 422 2884 422 3419 
Q 422 4038 858 4394 
Q 1294 4750 2059 4750 
Q 2388 4750 2728 4690 
Q 3069 4631 3425 4513 
z
" transform="scale(0.015625)"/>
      <path id="DejaVuSans-74" d="M 1172 4494 
L 1172 3500 
L 2356 3500 
L 2356 3053 
L 1172 3053 
L 1172 1153 
Q 1172 725 1289 603 
Q 1406 481 1766 481 
L 2356 481 
L 2356 0 
L 1766 0 
Q 1100 0 847 248 
Q 594 497 594 1153 
L 594 3053 
L 172 3053 
L 172 3500 
L 594 3500 
L 594 4494 
L 1172 4494 
z
" transform="scale(0.015625)"/>
      <path id="DejaVuSans-6c" d="M 603 4863 
L 1178 4863 
L 1178 0 
L 603 0 
L 603 4863 
z
" transform="scale(0.015625)"/>
      <path id="DejaVuSans-68" d="M 3513 2113 
L 3513 0 
L 2938 0 
L 2938 2094 
Q 2938 2591 2744 2837 
Q 2550 3084 2163 3084 
Q 1697 3084 1428 2787 
Q 1159 2491 1159 1978 
L 1159 0 
L 581 0 
L 581 4863 
L 1159 4863 
L 1159 2956 
Q 1366 3272 1645 3428 
Q 1925 3584 2291 3584 
Q 2894 3584 3203 3211 
Q 3513 2838 3513 2113 
z
" transform="scale(0.015625)"/>
      <path id="DejaVuSans-66" d="M 2375 4863 
L 2375 4384 
L 1825 4384 
Q 1516 4384 1395 4259 
Q 1275 4134 1275 3809 
L 1275 3500 
L 2222 3500 
L 2222 3053 
L 1275 3053 
L 1275 0 
L 697 0 
L 697 3053 
L 147 3053 
L 147 3500 
L 697 3500 
L 697 3744 
Q 697 4328 969 4595 
Q 1241 4863 1831 4863 
L 2375 4863 
z
" transform="scale(0.015625)"/>
      <path id="DejaVuSans-75" d="M 544 1381 
L 544 3500 
L 1119 3500 
L 1119 1403 
Q 1119 906 1312 657 
Q 1506 409 1894 409 
Q 2359 409 2629 706 
Q 2900 1003 2900 1516 
L 2900 3500 
L 3475 3500 
L 3475 0 
L 2900 0 
L 2900 538 
Q 2691 219 2414 64 
Q 2138 -91 1772 -91 
Q 1169 -91 856 284 
Q 544 659 544 1381 
z
M 1991 3584 
L 1991 3584 
z
" transform="scale(0.015625)"/>
      <path id="DejaVuSans-2d" d="M 313 2009 
L 1997 2009 
L 1997 1497 
L 313 1497 
L 313 2009 
z
" transform="scale(0.015625)"/>
      <path id="DejaVuSans-6b" d="M 581 4863 
L 1159 4863 
L 1159 1991 
L 2875 3500 
L 3609 3500 
L 1753 1863 
L 3688 0 
L 2938 0 
L 1159 1709 
L 1159 0 
L 581 0 
L 581 4863 
z
" transform="scale(0.015625)"/>
     </defs>
     <use xlink:href="#DejaVuSans-53"/>
     <use xlink:href="#DejaVuSans-63" transform="translate(63.476562 0)"/>
     <use xlink:href="#DejaVuSans-72" transform="translate(118.457031 0)"/>
     <use xlink:href="#DejaVuSans-69" transform="translate(159.570312 0)"/>
     <use xlink:href="#DejaVuSans-70" transform="translate(187.353516 0)"/>
     <use xlink:href="#DejaVuSans-74" transform="translate(250.830078 0)"/>
     <use xlink:href="#DejaVuSans-65" transform="translate(290.039062 0)"/>
     <use xlink:href="#DejaVuSans-64" transform="translate(351.5625 0)"/>
     <use xlink:href="#DejaVuSans-20" transform="translate(415.039062 0)"/>
     <use xlink:href="#DejaVuSans-70" transform="translate(446.826172 0)"/>
     <use xlink:href="#DejaVuSans-6f" transform="translate(510.302734 0)"/>
     <use xlink:href="#DejaVuSans-6c" transform="translate(571.484375 0)"/>
     <use xlink:href="#DejaVuSans-69" transform="translate(599.267578 0)"/>
     <use xlink:href="#DejaVuSans-63" transform="translate(627.050781 0)"/>
     <use xlink:href="#DejaVuSans-69" transform="translate(682.03125 0)"/>
     <use xlink:href="#DejaVuSans-65" transform="translate(709.814453 0)"/>
     <use xlink:href="#DejaVuSans-73" transform="translate(771.337891 0)"/>
     <use xlink:href="#DejaVuSans-20" transform="translate(823.4375 0)"/>
     <use xlink:href="#DejaVuSans-6f" transform="translate(855.224609 0)"/>
     <use xlink:href="#DejaVuSans-6e" transform="translate(916.40625 0)"/>
     <use xlink:href="#DejaVuSans-20" transform="translate(979.785156 0)"/>
     <use xlink:href="#DejaVuSans-74" transform="translate(1011.572266 0)"/>
     <use xlink:href="#DejaVuSans-68" transform="translate(1050.78125 0)"/>
     <use xlink:href="#DejaVuSans-65" transform="translate(1114.160156 0)"/>
     <use xlink:href="#DejaVuSans-20" transform="translate(1175.683594 0)"/>
     <use xlink:href="#DejaVuSans-72" transform="translate(1207.470703 0)"/>
     <use xlink:href="#DejaVuSans-65" transform="translate(1246.333984 0)"/>
     <use xlink:href="#DejaVuSans-66" transform="translate(1307.857422 0)"/>
     <use xlink:href="#DejaVuSans-75" transform="translate(1343.0625 0)"/>
     <use xlink:href="#DejaVuSans-73" transform="translate(1406.441406 0)"/>
     <use xlink:href="#DejaVuSans-65" transform="translate(1458.541016 0)"/>
     <use xlink:href="#DejaVuSans-2d" transform="translate(1520.064453 0)"/>
     <use xlink:href="#DejaVuSans-6c" transform="translate(1556.148438 0)"/>
     <use xlink:href="#DejaVuSans-65" transform="translate(1583.931641 0)"/>
     <use xlink:href="#DejaVuSans-61" transform="translate(1645.455078 0)"/>
     <use xlink:href="#DejaVuSans-6b" transform="translate(1706.734375 0)"/>
     <use xlink:href="#DejaVuSans-20" transform="translate(1764.644531 0)"/>
     <use xlink:href="#DejaVuSans-73" transform="translate(1796.431641 0)"/>
     <use xlink:href="#DejaVuSans-63" transform="translate(1848.53125 0)"/>
     <use xlink:href="#DejaVuSans-65" transform="translate(1903.511719 0)"/>
     <use xlink:href="#DejaVuSans-6e" transform="translate(1965.035156 0)"/>
     <use xlink:href="#DejaVuSans-61" transform="translate(2028.414062 0)"/>
     <use xlink:href="#DejaVuSans-72" transform="translate(2089.693359 0)"/>
     <use xlink:href="#DejaVuSans-69" transform="translate(2130.806641 0)"/>
     <use xlink:href="#DejaVuSans-6f" transform="translate(2158.589844 0)"/>
     <use xlink:href="#DejaVuSans-20" transform="translate(2219.771484 0)"/>
     <use xlink:href="#DejaVuSans-28" transform="translate(2251.558594 0)"/>
     <use xlink:href="#DejaVuSans-6e" transform="translate(2290.572266 0)"/>
     <use xlink:href="#DejaVuSans-6f" transform="translate(2353.951172 0)"/>
     <use xlink:href="#DejaVuSans-74" transform="translate(2415.132812 0)"/>
     <use xlink:href="#DejaVuSans-20" transform="translate(2454.341797 0)"/>
     <use xlink:href="#DejaVuSans-74" transform="translate(2486.128906 0)"/>
     <use xlink:href="#DejaVuSans-68" transform="translate(2525.337891 0)"/>
     <use xlink:href="#DejaVuSans-65" transform="translate(2588.716797 0)"/>
     <use xlink:href="#DejaVuSans-20" transform="translate(2650.240234 0)"/>
     <use xlink:href="#DejaVuSans-6e" transform="translate(2682.027344 0)"/>
     <use xlink:href="#DejaVuSans-65" transform="translate(2745.40625 0)"/>
     <use xlink:href="#DejaVuSans-75" transform="translate(2806.929688 0)"/>
     <use xlink:href="#DejaVuSans-72" transform="translate(2870.308594 0)"/>
     <use xlink:href="#DejaVuSans-61" transform="translate(2911.421875 0)"/>
     <use xlink:href="#DejaVuSans-6c" transform="translate(2972.701172 0)"/>
     <use xlink:href="#DejaVuSans-20" transform="translate(3000.484375 0)"/>
     <use xlink:href="#DejaVuSans-6d" transform="translate(3032.271484 0)"/>
     <use xlink:href="#DejaVuSans-6f" transform="translate(3129.683594 0)"/>
     <use xlink:href="#DejaVuSans-64" transform="translate(3190.865234 0)"/>
     <use xlink:href="#DejaVuSans-65" transform="translate(3254.341797 0)"/>
     <use xlink:href="#DejaVuSans-6c" transform="translate(3315.865234 0)"/>
     <use xlink:href="#DejaVuSans-29" transform="translate(3343.648438 0)"/>
    </g>
   </g>
   <g id="legend_1">
    <g id="patch_7">
     <path d="M 326.00625 277.04 
L 558.2 277.04 
Q 560.2 277.04 560.2 275.04 
L 560.2 246.68375 
Q 560.2 244.68375 558.2 244.68375 
L 326.00625 244.68375 
Q 324.00625 244.68375 324.00625 246.68375 
L 324.00625 275.04 
Q 324.00625 277.04 326.00625 277.04 
z
" style="fill: #ffffff; opacity: 0.8; stroke: #cccccc; stroke-linejoin: miter"/>
    </g>
    <g id="line2d_27">
     <path d="M 328.00625 252.782188 
L 338.00625 252.782188 
L 348.00625 252.782188 
" style="fill: none; stroke: #c0392b; stroke-width: 1.5; stroke-linecap: square"/>
    </g>
    <g id="text_15">
     <!-- Weak scripted baseline (5-ep mean) -->
     <g transform="translate(356.00625 256.282188) scale(0.1 -0.1)">
      <defs>
       <path id="DejaVuSans-57" d="M 213 4666 
L 850 4666 
L 1831 722 
L 2809 4666 
L 3519 4666 
L 4500 722 
L 5478 4666 
L 6119 4666 
L 4947 0 
L 4153 0 
L 3169 4050 
L 2175 0 
L 1381 0 
L 213 4666 
z
" transform="scale(0.015625)"/>
      </defs>
      <use xlink:href="#DejaVuSans-57"/>
      <use xlink:href="#DejaVuSans-65" transform="translate(93.001953 0)"/>
      <use xlink:href="#DejaVuSans-61" transform="translate(154.525391 0)"/>
      <use xlink:href="#DejaVuSans-6b" transform="translate(215.804688 0)"/>
      <use xlink:href="#DejaVuSans-20" transform="translate(273.714844 0)"/>
      <use xlink:href="#DejaVuSans-73" transform="translate(305.501953 0)"/>
      <use xlink:href="#DejaVuSans-63" transform="translate(357.601562 0)"/>
      <use xlink:href="#DejaVuSans-72" transform="translate(412.582031 0)"/>
      <use xlink:href="#DejaVuSans-69" transform="translate(453.695312 0)"/>
      <use xlink:href="#DejaVuSans-70" transform="translate(481.478516 0)"/>
      <use xlink:href="#DejaVuSans-74" transform="translate(544.955078 0)"/>
      <use xlink:href="#DejaVuSans-65" transform="translate(584.164062 0)"/>
      <use xlink:href="#DejaVuSans-64" transform="translate(645.6875 0)"/>
      <use xlink:href="#DejaVuSans-20" transform="translate(709.164062 0)"/>
      <use xlink:href="#DejaVuSans-62" transform="translate(740.951172 0)"/>
      <use xlink:href="#DejaVuSans-61" transform="translate(804.427734 0)"/>
      <use xlink:href="#DejaVuSans-73" transform="translate(865.707031 0)"/>
      <use xlink:href="#DejaVuSans-65" transform="translate(917.806641 0)"/>
      <use xlink:href="#DejaVuSans-6c" transform="translate(979.330078 0)"/>
      <use xlink:href="#DejaVuSans-69" transform="translate(1007.113281 0)"/>
      <use xlink:href="#DejaVuSans-6e" transform="translate(1034.896484 0)"/>
      <use xlink:href="#DejaVuSans-65" transform="translate(1098.275391 0)"/>
      <use xlink:href="#DejaVuSans-20" transform="translate(1159.798828 0)"/>
      <use xlink:href="#DejaVuSans-28" transform="translate(1191.585938 0)"/>
      <use xlink:href="#DejaVuSans-35" transform="translate(1230.599609 0)"/>
      <use xlink:href="#DejaVuSans-2d" transform="translate(1294.222656 0)"/>
      <use xlink:href="#DejaVuSans-65" transform="translate(1330.306641 0)"/>
      <use xlink:href="#DejaVuSans-70" transform="translate(1391.830078 0)"/>
      <use xlink:href="#DejaVuSans-20" transform="translate(1455.306641 0)"/>
      <use xlink:href="#DejaVuSans-6d" transform="translate(1487.09375 0)"/>
      <use xlink:href="#DejaVuSans-65" transform="translate(1584.505859 0)"/>
      <use xlink:href="#DejaVuSans-61" transform="translate(1646.029297 0)"/>
      <use xlink:href="#DejaVuSans-6e" transform="translate(1707.308594 0)"/>
      <use xlink:href="#DejaVuSans-29" transform="translate(1770.6875 0)"/>
     </g>
    </g>
    <g id="line2d_28">
     <path d="M 328.00625 267.460312 
L 338.00625 267.460312 
L 348.00625 267.460312 
" style="fill: none; stroke: #27ae60; stroke-width: 1.5; stroke-linecap: square"/>
    </g>
    <g id="text_16">
     <!-- Hand-tuned scripted policy (5-ep mean) -->
     <g transform="translate(356.00625 270.960312) scale(0.1 -0.1)">
      <defs>
       <path id="DejaVuSans-48" d="M 628 4666 
L 1259 4666 
L 1259 2753 
L 3553 2753 
L 3553 4666 
L 4184 4666 
L 4184 0 
L 3553 0 
L 3553 2222 
L 1259 2222 
L 1259 0 
L 628 0 
L 628 4666 
z
" transform="scale(0.015625)"/>
       <path id="DejaVuSans-79" d="M 2059 -325 
Q 1816 -950 1584 -1140 
Q 1353 -1331 966 -1331 
L 506 -1331 
L 506 -850 
L 844 -850 
Q 1081 -850 1212 -737 
Q 1344 -625 1503 -206 
L 1606 56 
L 191 3500 
L 800 3500 
L 1894 763 
L 2988 3500 
L 3597 3500 
L 2059 -325 
z
" transform="scale(0.015625)"/>
      </defs>
      <use xlink:href="#DejaVuSans-48"/>
      <use xlink:href="#DejaVuSans-61" transform="translate(75.195312 0)"/>
      <use xlink:href="#DejaVuSans-6e" transform="translate(136.474609 0)"/>
      <use xlink:href="#DejaVuSans-64" transform="translate(199.853516 0)"/>
      <use xlink:href="#DejaVuSans-2d" transform="translate(263.330078 0)"/>
      <use xlink:href="#DejaVuSans-74" transform="translate(299.414062 0)"/>
      <use xlink:href="#DejaVuSans-75" transform="translate(338.623047 0)"/>
      <use xlink:href="#DejaVuSans-6e" transform="translate(402.001953 0)"/>
      <use xlink:href="#DejaVuSans-65" transform="translate(465.380859 0)"/>
      <use xlink:href="#DejaVuSans-64" transform="translate(526.904297 0)"/>
      <use xlink:href="#DejaVuSans-20" transform="translate(590.380859 0)"/>
      <use xlink:href="#DejaVuSans-73" transform="translate(622.167969 0)"/>
      <use xlink:href="#DejaVuSans-63" transform="translate(674.267578 0)"/>
      <use xlink:href="#DejaVuSans-72" transform="translate(729.248047 0)"/>
      <use xlink:href="#DejaVuSans-69" transform="translate(770.361328 0)"/>
      <use xlink:href="#DejaVuSans-70" transform="translate(798.144531 0)"/>
      <use xlink:href="#DejaVuSans-74" transform="translate(861.621094 0)"/>
      <use xlink:href="#DejaVuSans-65" transform="translate(900.830078 0)"/>
      <use xlink:href="#DejaVuSans-64" transform="translate(962.353516 0)"/>
      <use xlink:href="#DejaVuSans-20" transform="translate(1025.830078 0)"/>
      <use xlink:href="#DejaVuSans-70" transform="translate(1057.617188 0)"/>
      <use xlink:href="#DejaVuSans-6f" transform="translate(1121.09375 0)"/>
      <use xlink:href="#DejaVuSans-6c" transform="translate(1182.275391 0)"/>
      <use xlink:href="#DejaVuSans-69" transform="translate(1210.058594 0)"/>
      <use xlink:href="#DejaVuSans-63" transform="translate(1237.841797 0)"/>
      <use xlink:href="#DejaVuSans-79" transform="translate(1292.822266 0)"/>
      <use xlink:href="#DejaVuSans-20" transform="translate(1352.001953 0)"/>
      <use xlink:href="#DejaVuSans-28" transform="translate(1383.789062 0)"/>
      <use xlink:href="#DejaVuSans-35" transform="translate(1422.802734 0)"/>
      <use xlink:href="#DejaVuSans-2d" transform="translate(1486.425781 0)"/>
      <use xlink:href="#DejaVuSans-65" transform="translate(1522.509766 0)"/>
      <use xlink:href="#DejaVuSans-70" transform="translate(1584.033203 0)"/>
      <use xlink:href="#DejaVuSans-20" transform="translate(1647.509766 0)"/>
      <use xlink:href="#DejaVuSans-6d" transform="translate(1679.296875 0)"/>
      <use xlink:href="#DejaVuSans-65" transform="translate(1776.708984 0)"/>
      <use xlink:href="#DejaVuSans-61" transform="translate(1838.232422 0)"/>
      <use xlink:href="#DejaVuSans-6e" transform="translate(1899.511719 0)"/>
      <use xlink:href="#DejaVuSans-29" transform="translate(1962.890625 0)"/>
     </g>
    </g>
   </g>
  </g>
 </g>
 <defs>
  <clipPath id="p134621c465">
   <rect x="47.72" y="26.88" width="517.48" height="255.16"/>
  </clipPath>
 </defs>
</svg>
