<?xml version="1.0" encoding="utf-8" standalone="no"?>
<!DOCTYPE svg PUBLIC "-//W3C//DTD SVG 1.1//EN"
  "http://www.w3.org/Graphics/SVG/1.1/DTD/svg11.dtd">
<svg xmlns:xlink="http://www.w3.org/1999/xlink" width="612pt" height="345.6pt" viewBox="0 0 612 345.6" xmlns="http://www.w3.org/2000/svg" version="1.1">
 <metadata>
  <rdf:RDF xmlns:dc="http://purl.org/dc/elements/1.1/" xmlns:cc="http://creativecommons.org/ns#" xmlns:rdf="http://www.w3.org/1999/02/22-rdf-syntax-ns#">
   <cc:Work>
    <dc:type rdf:resource="http://purl.org/dc/dcmitype/StillImage"/>
    <dc:date>2026-04-25T02:12:56.889864</dc:date>
    <dc:format>image/svg+xml</dc:format>
    <dc:creator>
     <cc:Agent>
      <dc:title>Matplotlib v3.10.9, https://matplotlib.org/</dc:title>
     </cc:Agent>
    </dc:creator>
   </cc:Work>
  </rdf:RDF>
 </metadata>
 <defs>
  <style type="text/css">*{stroke-linejoin: round; stroke-linecap: butt}</style>
 </defs>
 <g id="figure_1">
  <g id="patch_1">
   <path d="M 0 345.6 
L 612 345.6 
L 612 0 
L 0 0 
z
" style="fill: #ffffff"/>
  </g>
  <g id="axes_1">
   <g id="patch_2">
    <path d="M 46.775 305.8 
L 588.403125 305.8 
L 588.403125 26.7 
L 46.775 26.7 
z
" style="fill: #ffffff"/>
   </g>
   <g id="FillBetweenPolyCollection_1">
    <defs>
     <path id="mdf6f417df0" d="M 46.775 -47.552778 
L 46.775 -47.552778 
L 57.828635 -47.552778 
L 68.88227 -47.552778 
L 79.935906 -47.552778 
L 90.989541 -47.552778 
L 102.043176 -47.552778 
L 113.096811 -47.552778 
L 124.150446 -47.552778 
L 135.204082 -47.552778 
L 146.257717 -47.552778 
L 157.311352 -47.552778 
L 168.364987 -59.321972 
L 179.418622 -66.589279 
L 190.472258 -59.043533 
L 201.525893 -56.957838 
L 212.579528 -108.91434 
L 223.633163 -127.128783 
L 234.686798 -149.111464 
L 245.740434 -130.524367 
L 256.794069 -108.317138 
L 267.847704 -149.410069 
L 278.901339 -183.485889 
L 289.954974 -209.962368 
L 301.00861 -228.162283 
L 312.062245 -244.279794 
L 323.11588 -254.358134 
L 334.169515 -231.666707 
L 345.223151 -249.199058 
L 356.276786 -270.925001 
L 367.330421 -269.482499 
L 378.384056 -47.552778 
L 389.437691 -123.710778 
L 400.491327 -208.837923 
L 411.544962 -220.384524 
L 422.598597 -252.507615 
L 433.652232 -235.834337 
L 444.705867 -261.896757 
L 455.759503 -270.113393 
L 466.813138 -259.250225 
L 477.866773 -257.163021 
L 488.920408 -252.830505 
L 499.974043 -226.222839 
L 511.027679 -292.295045 
L 522.081314 -280.665878 
L 533.134949 -261.807247 
L 544.188584 -276.944545 
L 555.242219 -251.552138 
L 566.295855 -253.74857 
L 577.34949 -289.911066 
L 588.403125 -264.14132 
L 588.403125 -305.978704 
L 588.403125 -305.978704 
L 577.34949 -305.978704 
L 566.295855 -305.978704 
L 555.242219 -305.978704 
L 544.188584 -305.978704 
L 533.134949 -305.978704 
L 522.081314 -305.978704 
L 511.027679 -305.978704 
L 499.974043 -305.978704 
L 488.920408 -305.978704 
L 477.866773 -305.978704 
L 466.813138 -305.978704 
L 455.759503 -305.978704 
L 444.705867 -305.978704 
L 433.652232 -305.978704 
L 422.598597 -305.978704 
L 411.544962 -305.978704 
L 400.491327 -305.978704 
L 389.437691 -305.978704 
L 378.384056 -187.134543 
L 367.330421 -305.978704 
L 356.276786 -305.978704 
L 345.223151 -305.978704 
L 334.169515 -305.978704 
L 323.11588 -305.978704 
L 312.062245 -305.978704 
L 301.00861 -305.978704 
L 289.954974 -305.978704 
L 278.901339 -305.978704 
L 267.847704 -305.978704 
L 256.794069 -279.274886 
L 245.740434 -305.703421 
L 234.686798 -299.507847 
L 223.633163 -292.676038 
L 212.579528 -298.434353 
L 201.525893 -264.494377 
L 190.472258 -249.18589 
L 179.418622 -224.642174 
L 168.364987 -187.331006 
L 157.311352 -171.168334 
L 146.257717 -148.618804 
L 135.204082 -58.988125 
L 124.150446 -51.312875 
L 113.096811 -47.552778 
L 102.043176 -47.552778 
L 90.989541 -53.735618 
L 79.935906 -51.312875 
L 68.88227 -47.552778 
L 57.828635 -51.312875 
L 46.775 -47.552778 
z
" style="stroke: #2563eb; stroke-opacity: 0.12"/>
    </defs>
    <g clip-path="url(#pacac8363a1)">
     <use xlink:href="#mdf6f417df0" x="0" y="345.6" style="fill: #2563eb; fill-opacity: 0.12; stroke: #2563eb; stroke-opacity: 0.12"/>
    </g>
   </g>
   <g id="matplotlib.axis_1">
    <g id="xtick_1">
     <g id="line2d_1">
      <path d="M 146.257717 305.8 
L 146.257717 26.7 
" clip-path="url(#pacac8363a1)" style="fill: none; stroke: #b0b0b0; stroke-opacity: 0.25; stroke-width: 0.8; stroke-linecap: square"/>
     </g>
     <g id="line2d_2">
      <defs>
       <path id="m4c92e1ba4f" d="M 0 0 
L 0 3.5 
" style="stroke: #000000; stroke-width: 0.8"/>
      </defs>
      <g>
       <use xlink:href="#m4c92e1ba4f" x="146.257717" y="305.8" style="stroke: #000000; stroke-width: 0.8"/>
      </g>
     </g>
     <g id="text_1">
      <!-- 200 -->
      <g transform="translate(136.713967 320.398437) scale(0.1 -0.1)">
       <defs>
        <path id="DejaVuSans-32" d="M 1228 531 
L 3431 531 
L 3431 0 
L 469 0 
L 469 531 
Q 828 903 1448 1529 
Q 2069 2156 2228 2338 
Q 2531 2678 2651 2914 
Q 2772 3150 2772 3378 
Q 2772 3750 2511 3984 
Q 2250 4219 1831 4219 
Q 1534 4219 1204 4116 
Q 875 4013 500 3803 
L 500 4441 
Q 881 4594 1212 4672 
Q 1544 4750 1819 4750 
Q 2544 4750 2975 4387 
Q 3406 4025 3406 3419 
Q 3406 3131 3298 2873 
Q 3191 2616 2906 2266 
Q 2828 2175 2409 1742 
Q 1991 1309 1228 531 
z
" transform="scale(0.015625)"/>
        <path id="DejaVuSans-30" d="M 2034 4250 
Q 1547 4250 1301 3770 
Q 1056 3291 1056 2328 
Q 1056 1369 1301 889 
Q 1547 409 2034 409 
Q 2525 409 2770 889 
Q 3016 1369 3016 2328 
Q 3016 3291 2770 3770 
Q 2525 4250 2034 4250 
z
M 2034 4750 
Q 2819 4750 3233 4129 
Q 3647 3509 3647 2328 
Q 3647 1150 3233 529 
Q 2819 -91 2034 -91 
Q 1250 -91 836 529 
Q 422 1150 422 2328 
Q 422 3509 836 4129 
Q 1250 4750 2034 4750 
z
" transform="scale(0.015625)"/>
       </defs>
       <use xlink:href="#DejaVuSans-32"/>
       <use xlink:href="#DejaVuSans-30" transform="translate(63.623047 0)"/>
       <use xlink:href="#DejaVuSans-30" transform="translate(127.246094 0)"/>
      </g>
     </g>
    </g>
    <g id="xtick_2">
     <g id="line2d_3">
      <path d="M 256.794069 305.8 
L 256.794069 26.7 
" clip-path="url(#pacac8363a1)" style="fill: none; stroke: #b0b0b0; stroke-opacity: 0.25; stroke-width: 0.8; stroke-linecap: square"/>
     </g>
     <g id="line2d_4">
      <g>
       <use xlink:href="#m4c92e1ba4f" x="256.794069" y="305.8" style="stroke: #000000; stroke-width: 0.8"/>
      </g>
     </g>
     <g id="text_2">
      <!-- 400 -->
      <g transform="translate(247.250319 320.398437) scale(0.1 -0.1)">
       <defs>
        <path id="DejaVuSans-34" d="M 2419 4116 
L 825 1625 
L 2419 1625 
L 2419 4116 
z
M 2253 4666 
L 3047 4666 
L 3047 1625 
L 3713 1625 
L 3713 1100 
L 3047 1100 
L 3047 0 
L 2419 0 
L 2419 1100 
L 313 1100 
L 313 1709 
L 2253 4666 
z
" transform="scale(0.015625)"/>
       </defs>
       <use xlink:href="#DejaVuSans-34"/>
       <use xlink:href="#DejaVuSans-30" transform="translate(63.623047 0)"/>
       <use xlink:href="#DejaVuSans-30" transform="translate(127.246094 0)"/>
      </g>
     </g>
    </g>
    <g id="xtick_3">
     <g id="line2d_5">
      <path d="M 367.330421 305.8 
L 367.330421 26.7 
" clip-path="url(#pacac8363a1)" style="fill: none; stroke: #b0b0b0; stroke-opacity: 0.25; stroke-width: 0.8; stroke-linecap: square"/>
     </g>
     <g id="line2d_6">
      <g>
       <use xlink:href="#m4c92e1ba4f" x="367.330421" y="305.8" style="stroke: #000000; stroke-width: 0.8"/>
      </g>
     </g>
     <g id="text_3">
      <!-- 600 -->
      <g transform="translate(357.786671 320.398437) scale(0.1 -0.1)">
       <defs>
        <path id="DejaVuSans-36" d="M 2113 2584 
Q 1688 2584 1439 2293 
Q 1191 2003 1191 1497 
Q 1191 994 1439 701 
Q 1688 409 2113 409 
Q 2538 409 2786 701 
Q 3034 994 3034 1497 
Q 3034 2003 2786 2293 
Q 2538 2584 2113 2584 
z
M 3366 4563 
L 3366 3988 
Q 3128 4100 2886 4159 
Q 2644 4219 2406 4219 
Q 1781 4219 1451 3797 
Q 1122 3375 1075 2522 
Q 1259 2794 1537 2939 
Q 1816 3084 2150 3084 
Q 2853 3084 3261 2657 
Q 3669 2231 3669 1497 
Q 3669 778 3244 343 
Q 2819 -91 2113 -91 
Q 1303 -91 875 529 
Q 447 1150 447 2328 
Q 447 3434 972 4092 
Q 1497 4750 2381 4750 
Q 2619 4750 2861 4703 
Q 3103 4656 3366 4563 
z
" transform="scale(0.015625)"/>
       </defs>
       <use xlink:href="#DejaVuSans-36"/>
       <use xlink:href="#DejaVuSans-30" transform="translate(63.623047 0)"/>
       <use xlink:href="#DejaVuSans-30" transform="translate(127.246094 0)"/>
      </g>
     </g>
    </g>
    <g id="xtick_4">
     <g id="line2d_7">
      <path d="M 477.866773 305.8 
L 477.866773 26.7 
" clip-path="url(#pacac8363a1)" style="fill: none; stroke: #b0b0b0; stroke-opacity: 0.25; stroke-width: 0.8; stroke-linecap: square"/>
     </g>
     <g id="line2d_8">
      <g>
       <use xlink:href="#m4c92e1ba4f" x="477.866773" y="305.8" style="stroke: #000000; stroke-width: 0.8"/>
      </g>
     </g>
     <g id="text_4">
      <!-- 800 -->
      <g transform="translate(468.323023 320.398437) scale(0.1 -0.1)">
       <defs>
        <path id="DejaVuSans-38" d="M 2034 2216 
Q 1584 2216 1326 1975 
Q 1069 1734 1069 1313 
Q 1069 891 1326 650 
Q 1584 409 2034 409 
Q 2484 409 2743 651 
Q 3003 894 3003 1313 
Q 3003 1734 2745 1975 
Q 2488 2216 2034 2216 
z
M 1403 2484 
Q 997 2584 770 2862 
Q 544 3141 544 3541 
Q 544 4100 942 4425 
Q 1341 4750 2034 4750 
Q 2731 4750 3128 4425 
Q 3525 4100 3525 3541 
Q 3525 3141 3298 2862 
Q 3072 2584 2669 2484 
Q 3125 2378 3379 2068 
Q 3634 1759 3634 1313 
Q 3634 634 3220 271 
Q 2806 -91 2034 -91 
Q 1263 -91 848 271 
Q 434 634 434 1313 
Q 434 1759 690 2068 
Q 947 2378 1403 2484 
z
M 1172 3481 
Q 1172 3119 1398 2916 
Q 1625 2713 2034 2713 
Q 2441 2713 2670 2916 
Q 2900 3119 2900 3481 
Q 2900 3844 2670 4047 
Q 2441 4250 2034 4250 
Q 1625 4250 1398 4047 
Q 1172 3844 1172 3481 
z
" transform="scale(0.015625)"/>
       </defs>
       <use xlink:href="#DejaVuSans-38"/>
       <use xlink:href="#DejaVuSans-30" transform="translate(63.623047 0)"/>
       <use xlink:href="#DejaVuSans-30" transform="translate(127.246094 0)"/>
      </g>
     </g>
    </g>
    <g id="xtick_5">
     <g id="line2d_9">
      <path d="M 588.403125 305.8 
L 588.403125 26.7 
" clip-path="url(#pacac8363a1)" style="fill: none; stroke: #b0b0b0; stroke-opacity: 0.25; stroke-width: 0.8; stroke-linecap: square"/>
     </g>
     <g id="line2d_10">
      <g>
       <use xlink:href="#m4c92e1ba4f" x="588.403125" y="305.8" style="stroke: #000000; stroke-width: 0.8"/>
      </g>
     </g>
     <g id="text_5">
      <!-- 1000 -->
      <g transform="translate(575.678125 320.398437) scale(0.1 -0.1)">
       <defs>
        <path id="DejaVuSans-31" d="M 794 531 
L 1825 531 
L 1825 4091 
L 703 3866 
L 703 4441 
L 1819 4666 
L 2450 4666 
L 2450 531 
L 3481 531 
L 3481 0 
L 794 0 
L 794 531 
z
" transform="scale(0.015625)"/>
       </defs>
       <use xlink:href="#DejaVuSans-31"/>
       <use xlink:href="#DejaVuSans-30" transform="translate(63.623047 0)"/>
       <use xlink:href="#DejaVuSans-30" transform="translate(127.246094 0)"/>
       <use xlink:href="#DejaVuSans-30" transform="translate(190.869141 0)"/>
      </g>
     </g>
    </g>
    <g id="text_6">
     <!-- Training step -->
     <g transform="translate(285.458594 334.076562) scale(0.1 -0.1)">
      <defs>
       <path id="DejaVuSans-54" d="M -19 4666 
L 3928 4666 
L 3928 4134 
L 2272 4134 
L 2272 0 
L 1638 0 
L 1638 4134 
L -19 4134 
L -19 4666 
z
" transform="scale(0.015625)"/>
       <path id="DejaVuSans-72" d="M 2631 2963 
Q 2534 3019 2420 3045 
Q 2306 3072 2169 3072 
Q 1681 3072 1420 2755 
Q 1159 2438 1159 1844 
L 1159 0 
L 581 0 
L 581 3500 
L 1159 3500 
L 1159 2956 
Q 1341 3275 1631 3429 
Q 1922 3584 2338 3584 
Q 2397 3584 2469 3576 
Q 2541 3569 2628 3553 
L 2631 2963 
z
" transform="scale(0.015625)"/>
       <path id="DejaVuSans-61" d="M 2194 1759 
Q 1497 1759 1228 1600 
Q 959 1441 959 1056 
Q 959 750 1161 570 
Q 1363 391 1709 391 
Q 2188 391 2477 730 
Q 2766 1069 2766 1631 
L 2766 1759 
L 2194 1759 
z
M 3341 1997 
L 3341 0 
L 2766 0 
L 2766 531 
Q 2569 213 2275 61 
Q 1981 -91 1556 -91 
Q 1019 -91 701 211 
Q 384 513 384 1019 
Q 384 1609 779 1909 
Q 1175 2209 1959 2209 
L 2766 2209 
L 2766 2266 
Q 2766 2663 2505 2880 
Q 2244 3097 1772 3097 
Q 1472 3097 1187 3025 
Q 903 2953 641 2809 
L 641 3341 
Q 956 3463 1253 3523 
Q 1550 3584 1831 3584 
Q 2591 3584 2966 3190 
Q 3341 2797 3341 1997 
z
" transform="scale(0.015625)"/>
       <path id="DejaVuSans-69" d="M 603 3500 
L 1178 3500 
L 1178 0 
L 603 0 
L 603 3500 
z
M 603 4863 
L 1178 4863 
L 1178 4134 
L 603 4134 
L 603 4863 
z
" transform="scale(0.015625)"/>
       <path id="DejaVuSans-6e" d="M 3513 2113 
L 3513 0 
L 2938 0 
L 2938 2094 
Q 2938 2591 2744 2837 
Q 2550 3084 2163 3084 
Q 1697 3084 1428 2787 
Q 1159 2491 1159 1978 
L 1159 0 
L 581 0 
L 581 3500 
L 1159 3500 
L 1159 2956 
Q 1366 3272 1645 3428 
Q 1925 3584 2291 3584 
Q 2894 3584 3203 3211 
Q 3513 2838 3513 2113 
z
" transform="scale(0.015625)"/>
       <path id="DejaVuSans-67" d="M 2906 1791 
Q 2906 2416 2648 2759 
Q 2391 3103 1925 3103 
Q 1463 3103 1205 2759 
Q 947 2416 947 1791 
Q 947 1169 1205 825 
Q 1463 481 1925 481 
Q 2391 481 2648 825 
Q 2906 1169 2906 1791 
z
M 3481 434 
Q 3481 -459 3084 -895 
Q 2688 -1331 1869 -1331 
Q 1566 -1331 1297 -1286 
Q 1028 -1241 775 -1147 
L 775 -588 
Q 1028 -725 1275 -790 
Q 1522 -856 1778 -856 
Q 2344 -856 2625 -561 
Q 2906 -266 2906 331 
L 2906 616 
Q 2728 306 2450 153 
Q 2172 0 1784 0 
Q 1141 0 747 490 
Q 353 981 353 1791 
Q 353 2603 747 3093 
Q 1141 3584 1784 3584 
Q 2172 3584 2450 3431 
Q 2728 3278 2906 2969 
L 2906 3500 
L 3481 3500 
L 3481 434 
z
" transform="scale(0.015625)"/>
       <path id="DejaVuSans-20" transform="scale(0.015625)"/>
       <path id="DejaVuSans-73" d="M 2834 3397 
L 2834 2853 
Q 2591 2978 2328 3040 
Q 2066 3103 1784 3103 
Q 1356 3103 1142 2972 
Q 928 2841 928 2578 
Q 928 2378 1081 2264 
Q 1234 2150 1697 2047 
L 1894 2003 
Q 2506 1872 2764 1633 
Q 3022 1394 3022 966 
Q 3022 478 2636 193 
Q 2250 -91 1575 -91 
Q 1294 -91 989 -36 
Q 684 19 347 128 
L 347 722 
Q 666 556 975 473 
Q 1284 391 1588 391 
Q 1994 391 2212 530 
Q 2431 669 2431 922 
Q 2431 1156 2273 1281 
Q 2116 1406 1581 1522 
L 1381 1569 
Q 847 1681 609 1914 
Q 372 2147 372 2553 
Q 372 3047 722 3315 
Q 1072 3584 1716 3584 
Q 2034 3584 2315 3537 
Q 2597 3491 2834 3397 
z
" transform="scale(0.015625)"/>
       <path id="DejaVuSans-74" d="M 1172 4494 
L 1172 3500 
L 2356 3500 
L 2356 3053 
L 1172 3053 
L 1172 1153 
Q 1172 725 1289 603 
Q 1406 481 1766 481 
L 2356 481 
L 2356 0 
L 1766 0 
Q 1100 0 847 248 
Q 594 497 594 1153 
L 594 3053 
L 172 3053 
L 172 3500 
L 594 3500 
L 594 4494 
L 1172 4494 
z
" transform="scale(0.015625)"/>
       <path id="DejaVuSans-65" d="M 3597 1894 
L 3597 1613 
L 953 1613 
Q 991 1019 1311 708 
Q 1631 397 2203 397 
Q 2534 397 2845 478 
Q 3156 559 3463 722 
L 3463 178 
Q 3153 47 2828 -22 
Q 2503 -91 2169 -91 
Q 1331 -91 842 396 
Q 353 884 353 1716 
Q 353 2575 817 3079 
Q 1281 3584 2069 3584 
Q 2775 3584 3186 3129 
Q 3597 2675 3597 1894 
z
M 3022 2063 
Q 3016 2534 2758 2815 
Q 2500 3097 2075 3097 
Q 1594 3097 1305 2825 
Q 1016 2553 972 2059 
L 3022 2063 
z
" transform="scale(0.015625)"/>
       <path id="DejaVuSans-70" d="M 1159 525 
L 1159 -1331 
L 581 -1331 
L 581 3500 
L 1159 3500 
L 1159 2969 
Q 1341 3281 1617 3432 
Q 1894 3584 2278 3584 
Q 2916 3584 3314 3078 
Q 3713 2572 3713 1747 
Q 3713 922 3314 415 
Q 2916 -91 2278 -91 
Q 1894 -91 1617 61 
Q 1341 213 1159 525 
z
M 3116 1747 
Q 3116 2381 2855 2742 
Q 2594 3103 2138 3103 
Q 1681 3103 1420 2742 
Q 1159 2381 1159 1747 
Q 1159 1113 1420 752 
Q 1681 391 2138 391 
Q 2594 391 2855 752 
Q 3116 1113 3116 1747 
z
" transform="scale(0.015625)"/>
      </defs>
      <use xlink:href="#DejaVuSans-54"/>
      <use xlink:href="#DejaVuSans-72" transform="translate(46.333984 0)"/>
      <use xlink:href="#DejaVuSans-61" transform="translate(87.447266 0)"/>
      <use xlink:href="#DejaVuSans-69" transform="translate(148.726562 0)"/>
      <use xlink:href="#DejaVuSans-6e" transform="translate(176.509766 0)"/>
      <use xlink:href="#DejaVuSans-69" transform="translate(239.888672 0)"/>
      <use xlink:href="#DejaVuSans-6e" transform="translate(267.671875 0)"/>
      <use xlink:href="#DejaVuSans-67" transform="translate(331.050781 0)"/>
      <use xlink:href="#DejaVuSans-20" transform="translate(394.527344 0)"/>
      <use xlink:href="#DejaVuSans-73" transform="translate(426.314453 0)"/>
      <use xlink:href="#DejaVuSans-74" transform="translate(478.414062 0)"/>
      <use xlink:href="#DejaVuSans-65" transform="translate(517.623047 0)"/>
      <use xlink:href="#DejaVuSans-70" transform="translate(579.146484 0)"/>
     </g>
    </g>
   </g>
   <g id="matplotlib.axis_2">
    <g id="ytick_1">
     <g id="line2d_11">
      <path d="M 46.775 298.047222 
L 588.403125 298.047222 
" clip-path="url(#pacac8363a1)" style="fill: none; stroke: #b0b0b0; stroke-opacity: 0.25; stroke-width: 0.8; stroke-linecap: square"/>
     </g>
     <g id="line2d_12">
      <defs>
       <path id="mc088fb2e03" d="M 0 0 
L -3.5 0 
" style="stroke: #000000; stroke-width: 0.8"/>
      </defs>
      <g>
       <use xlink:href="#mc088fb2e03" x="46.775" y="298.047222" style="stroke: #000000; stroke-width: 0.8"/>
      </g>
     </g>
     <g id="text_7">
      <!-- 0.0 -->
      <g transform="translate(23.871875 301.846441) scale(0.1 -0.1)">
       <defs>
        <path id="DejaVuSans-2e" d="M 684 794 
L 1344 794 
L 1344 0 
L 684 0 
L 684 794 
z
" transform="scale(0.015625)"/>
       </defs>
       <use xlink:href="#DejaVuSans-30"/>
       <use xlink:href="#DejaVuSans-2e" transform="translate(63.623047 0)"/>
       <use xlink:href="#DejaVuSans-30" transform="translate(95.410156 0)"/>
      </g>
     </g>
    </g>
    <g id="ytick_2">
     <g id="line2d_13">
      <path d="M 46.775 246.362037 
L 588.403125 246.362037 
" clip-path="url(#pacac8363a1)" style="fill: none; stroke: #b0b0b0; stroke-opacity: 0.25; stroke-width: 0.8; stroke-linecap: square"/>
     </g>
     <g id="line2d_14">
      <g>
       <use xlink:href="#mc088fb2e03" x="46.775" y="246.362037" style="stroke: #000000; stroke-width: 0.8"/>
      </g>
     </g>
     <g id="text_8">
      <!-- 0.2 -->
      <g transform="translate(23.871875 250.161256) scale(0.1 -0.1)">
       <use xlink:href="#DejaVuSans-30"/>
       <use xlink:href="#DejaVuSans-2e" transform="translate(63.623047 0)"/>
       <use xlink:href="#DejaVuSans-32" transform="translate(95.410156 0)"/>
      </g>
     </g>
    </g>
    <g id="ytick_3">
     <g id="line2d_15">
      <path d="M 46.775 194.676852 
L 588.403125 194.676852 
" clip-path="url(#pacac8363a1)" style="fill: none; stroke: #b0b0b0; stroke-opacity: 0.25; stroke-width: 0.8; stroke-linecap: square"/>
     </g>
     <g id="line2d_16">
      <g>
       <use xlink:href="#mc088fb2e03" x="46.775" y="194.676852" style="stroke: #000000; stroke-width: 0.8"/>
      </g>
     </g>
     <g id="text_9">
      <!-- 0.4 -->
      <g transform="translate(23.871875 198.476071) scale(0.1 -0.1)">
       <use xlink:href="#DejaVuSans-30"/>
       <use xlink:href="#DejaVuSans-2e" transform="translate(63.623047 0)"/>
       <use xlink:href="#DejaVuSans-34" transform="translate(95.410156 0)"/>
      </g>
     </g>
    </g>
    <g id="ytick_4">
     <g id="line2d_17">
      <path d="M 46.775 142.991667 
L 588.403125 142.991667 
" clip-path="url(#pacac8363a1)" style="fill: none; stroke: #b0b0b0; stroke-opacity: 0.25; stroke-width: 0.8; stroke-linecap: square"/>
     </g>
     <g id="line2d_18">
      <g>
       <use xlink:href="#mc088fb2e03" x="46.775" y="142.991667" style="stroke: #000000; stroke-width: 0.8"/>
      </g>
     </g>
     <g id="text_10">
      <!-- 0.6 -->
      <g transform="translate(23.871875 146.790885) scale(0.1 -0.1)">
       <use xlink:href="#DejaVuSans-30"/>
       <use xlink:href="#DejaVuSans-2e" transform="translate(63.623047 0)"/>
       <use xlink:href="#DejaVuSans-36" transform="translate(95.410156 0)"/>
      </g>
     </g>
    </g>
    <g id="ytick_5">
     <g id="line2d_19">
      <path d="M 46.775 91.306481 
L 588.403125 91.306481 
" clip-path="url(#pacac8363a1)" style="fill: none; stroke: #b0b0b0; stroke-opacity: 0.25; stroke-width: 0.8; stroke-linecap: square"/>
     </g>
     <g id="line2d_20">
      <g>
       <use xlink:href="#mc088fb2e03" x="46.775" y="91.306481" style="stroke: #000000; stroke-width: 0.8"/>
      </g>
     </g>
     <g id="text_11">
      <!-- 0.8 -->
      <g transform="translate(23.871875 95.1057) scale(0.1 -0.1)">
       <use xlink:href="#DejaVuSans-30"/>
       <use xlink:href="#DejaVuSans-2e" transform="translate(63.623047 0)"/>
       <use xlink:href="#DejaVuSans-38" transform="translate(95.410156 0)"/>
      </g>
     </g>
    </g>
    <g id="ytick_6">
     <g id="line2d_21">
      <path d="M 46.775 39.621296 
L 588.403125 39.621296 
" clip-path="url(#pacac8363a1)" style="fill: none; stroke: #b0b0b0; stroke-opacity: 0.25; stroke-width: 0.8; stroke-linecap: square"/>
     </g>
     <g id="line2d_22">
      <g>
       <use xlink:href="#mc088fb2e03" x="46.775" y="39.621296" style="stroke: #000000; stroke-width: 0.8"/>
      </g>
     </g>
     <g id="text_12">
      <!-- 1.0 -->
      <g transform="translate(23.871875 43.420515) scale(0.1 -0.1)">
       <use xlink:href="#DejaVuSans-31"/>
       <use xlink:href="#DejaVuSans-2e" transform="translate(63.623047 0)"/>
       <use xlink:href="#DejaVuSans-30" transform="translate(95.410156 0)"/>
      </g>
     </g>
    </g>
    <g id="text_13">
     <!-- Mean terminal reward (Total) -->
     <g transform="translate(17.792187 238.419531) rotate(-90) scale(0.1 -0.1)">
      <defs>
       <path id="DejaVuSans-4d" d="M 628 4666 
L 1569 4666 
L 2759 1491 
L 3956 4666 
L 4897 4666 
L 4897 0 
L 4281 0 
L 4281 4097 
L 3078 897 
L 2444 897 
L 1241 4097 
L 1241 0 
L 628 0 
L 628 4666 
z
" transform="scale(0.015625)"/>
       <path id="DejaVuSans-6d" d="M 3328 2828 
Q 3544 3216 3844 3400 
Q 4144 3584 4550 3584 
Q 5097 3584 5394 3201 
Q 5691 2819 5691 2113 
L 5691 0 
L 5113 0 
L 5113 2094 
Q 5113 2597 4934 2840 
Q 4756 3084 4391 3084 
Q 3944 3084 3684 2787 
Q 3425 2491 3425 1978 
L 3425 0 
L 2847 0 
L 2847 2094 
Q 2847 2600 2669 2842 
Q 2491 3084 2119 3084 
Q 1678 3084 1418 2786 
Q 1159 2488 1159 1978 
L 1159 0 
L 581 0 
L 581 3500 
L 1159 3500 
L 1159 2956 
Q 1356 3278 1631 3431 
Q 1906 3584 2284 3584 
Q 2666 3584 2933 3390 
Q 3200 3197 3328 2828 
z
" transform="scale(0.015625)"/>
       <path id="DejaVuSans-6c" d="M 603 4863 
L 1178 4863 
L 1178 0 
L 603 0 
L 603 4863 
z
" transform="scale(0.015625)"/>
       <path id="DejaVuSans-77" d="M 269 3500 
L 844 3500 
L 1563 769 
L 2278 3500 
L 2956 3500 
L 3675 769 
L 4391 3500 
L 4966 3500 
L 4050 0 
L 3372 0 
L 2619 2869 
L 1863 0 
L 1184 0 
L 269 3500 
z
" transform="scale(0.015625)"/>
       <path id="DejaVuSans-64" d="M 2906 2969 
L 2906 4863 
L 3481 4863 
L 3481 0 
L 2906 0 
L 2906 525 
Q 2725 213 2448 61 
Q 2172 -91 1784 -91 
Q 1150 -91 751 415 
Q 353 922 353 1747 
Q 353 2572 751 3078 
Q 1150 3584 1784 3584 
Q 2172 3584 2448 3432 
Q 2725 3281 2906 2969 
z
M 947 1747 
Q 947 1113 1208 752 
Q 1469 391 1925 391 
Q 2381 391 2643 752 
Q 2906 1113 2906 1747 
Q 2906 2381 2643 2742 
Q 2381 3103 1925 3103 
Q 1469 3103 1208 2742 
Q 947 2381 947 1747 
z
" transform="scale(0.015625)"/>
       <path id="DejaVuSans-28" d="M 1984 4856 
Q 1566 4138 1362 3434 
Q 1159 2731 1159 2009 
Q 1159 1288 1364 580 
Q 1569 -128 1984 -844 
L 1484 -844 
Q 1016 -109 783 600 
Q 550 1309 550 2009 
Q 550 2706 781 3412 
Q 1013 4119 1484 4856 
L 1984 4856 
z
" transform="scale(0.015625)"/>
       <path id="DejaVuSans-6f" d="M 1959 3097 
Q 1497 3097 1228 2736 
Q 959 2375 959 1747 
Q 959 1119 1226 758 
Q 1494 397 1959 397 
Q 2419 397 2687 759 
Q 2956 1122 2956 1747 
Q 2956 2369 2687 2733 
Q 2419 3097 1959 3097 
z
M 1959 3584 
Q 2709 3584 3137 3096 
Q 3566 2609 3566 1747 
Q 3566 888 3137 398 
Q 2709 -91 1959 -91 
Q 1206 -91 779 398 
Q 353 888 353 1747 
Q 353 2609 779 3096 
Q 1206 3584 1959 3584 
z
" transform="scale(0.015625)"/>
       <path id="DejaVuSans-29" d="M 513 4856 
L 1013 4856 
Q 1481 4119 1714 3412 
Q 1947 2706 1947 2009 
Q 1947 1309 1714 600 
Q 1481 -109 1013 -844 
L 513 -844 
Q 928 -128 1133 580 
Q 1338 1288 1338 2009 
Q 1338 2731 1133 3434 
Q 928 4138 513 4856 
z
" transform="scale(0.015625)"/>
      </defs>
      <use xlink:href="#DejaVuSans-4d"/>
      <use xlink:href="#DejaVuSans-65" transform="translate(86.279297 0)"/>
      <use xlink:href="#DejaVuSans-61" transform="translate(147.802734 0)"/>
      <use xlink:href="#DejaVuSans-6e" transform="translate(209.082031 0)"/>
      <use xlink:href="#DejaVuSans-20" transform="translate(272.460938 0)"/>
      <use xlink:href="#DejaVuSans-74" transform="translate(304.248047 0)"/>
      <use xlink:href="#DejaVuSans-65" transform="translate(343.457031 0)"/>
      <use xlink:href="#DejaVuSans-72" transform="translate(404.980469 0)"/>
      <use xlink:href="#DejaVuSans-6d" transform="translate(444.34375 0)"/>
      <use xlink:href="#DejaVuSans-69" transform="translate(541.755859 0)"/>
      <use xlink:href="#DejaVuSans-6e" transform="translate(569.539062 0)"/>
      <use xlink:href="#DejaVuSans-61" transform="translate(632.917969 0)"/>
      <use xlink:href="#DejaVuSans-6c" transform="translate(694.197266 0)"/>
      <use xlink:href="#DejaVuSans-20" transform="translate(721.980469 0)"/>
      <use xlink:href="#DejaVuSans-72" transform="translate(753.767578 0)"/>
      <use xlink:href="#DejaVuSans-65" transform="translate(792.630859 0)"/>
      <use xlink:href="#DejaVuSans-77" transform="translate(854.154297 0)"/>
      <use xlink:href="#DejaVuSans-61" transform="translate(935.941406 0)"/>
      <use xlink:href="#DejaVuSans-72" transform="translate(997.220703 0)"/>
      <use xlink:href="#DejaVuSans-64" transform="translate(1036.583984 0)"/>
      <use xlink:href="#DejaVuSans-20" transform="translate(1100.060547 0)"/>
      <use xlink:href="#DejaVuSans-28" transform="translate(1131.847656 0)"/>
      <use xlink:href="#DejaVuSans-54" transform="translate(1170.861328 0)"/>
      <use xlink:href="#DejaVuSans-6f" transform="translate(1214.945312 0)"/>
      <use xlink:href="#DejaVuSans-74" transform="translate(1276.126953 0)"/>
      <use xlink:href="#DejaVuSans-61" transform="translate(1315.335938 0)"/>
      <use xlink:href="#DejaVuSans-6c" transform="translate(1376.615234 0)"/>
      <use xlink:href="#DejaVuSans-29" transform="translate(1404.398438 0)"/>
     </g>
    </g>
   </g>
   <g id="line2d_23">
    <path d="M 46.775 298.047222 
L 57.828635 296.793856 
L 68.88227 298.047222 
L 79.935906 296.793856 
L 90.989541 295.986275 
L 102.043176 298.047222 
L 113.096811 298.047222 
L 124.150446 296.793856 
L 135.204082 294.23544 
L 146.257717 258.194713 
L 157.311352 242.382277 
L 168.364987 222.273511 
L 179.418622 199.984274 
L 190.472258 191.485288 
L 201.525893 184.873892 
L 212.579528 141.925653 
L 223.633163 135.697589 
L 234.686798 121.290345 
L 245.740434 127.486106 
L 256.794069 151.803988 
L 267.847704 113.149929 
L 278.901339 93.257596 
L 289.954974 84.690779 
L 301.00861 71.394769 
L 312.062245 65.916138 
L 323.11588 60.263071 
L 334.169515 70.432133 
L 345.223151 61.277393 
L 356.276786 54.248209 
L 367.330421 53.85411 
L 378.384056 241.322732 
L 389.437691 121.374343 
L 400.491327 81.324785 
L 411.544962 71.007135 
L 422.598597 60.670093 
L 433.652232 67.912481 
L 444.705867 57.01983 
L 455.759503 53.666752 
L 466.813138 58.596226 
L 477.866773 58.609148 
L 488.920408 61.154644 
L 499.974043 69.78607 
L 511.027679 46.249928 
L 522.081314 50.126317 
L 533.134949 56.412528 
L 544.188584 51.366761 
L 555.242219 63.092838 
L 566.295855 61.167564 
L 577.34949 47.044587 
L 588.403125 56.509437 
" clip-path="url(#pacac8363a1)" style="fill: none; stroke: #2563eb; stroke-width: 2.4; stroke-linecap: square"/>
    <defs>
     <path id="m044d38481d" d="M 0 1.5 
C 0.397805 1.5 0.77937 1.341951 1.06066 1.06066 
C 1.341951 0.77937 1.5 0.397805 1.5 0 
C 1.5 -0.397805 1.341951 -0.77937 1.06066 -1.06066 
C 0.77937 -1.341951 0.397805 -1.5 0 -1.5 
C -0.397805 -1.5 -0.77937 -1.341951 -1.06066 -1.06066 
C -1.341951 -0.77937 -1.5 -0.397805 -1.5 0 
C -1.5 0.397805 -1.341951 0.77937 -1.06066 1.06066 
C -0.77937 1.341951 -0.397805 1.5 0 1.5 
z
" style="stroke: #2563eb"/>
    </defs>
    <g clip-path="url(#pacac8363a1)">
     <use xlink:href="#m044d38481d" x="46.775" y="298.047222" style="fill: #2563eb; stroke: #2563eb"/>
     <use xlink:href="#m044d38481d" x="57.828635" y="296.793856" style="fill: #2563eb; stroke: #2563eb"/>
     <use xlink:href="#m044d38481d" x="68.88227" y="298.047222" style="fill: #2563eb; stroke: #2563eb"/>
     <use xlink:href="#m044d38481d" x="79.935906" y="296.793856" style="fill: #2563eb; stroke: #2563eb"/>
     <use xlink:href="#m044d38481d" x="90.989541" y="295.986275" style="fill: #2563eb; stroke: #2563eb"/>
     <use xlink:href="#m044d38481d" x="102.043176" y="298.047222" style="fill: #2563eb; stroke: #2563eb"/>
     <use xlink:href="#m044d38481d" x="113.096811" y="298.047222" style="fill: #2563eb; stroke: #2563eb"/>
     <use xlink:href="#m044d38481d" x="124.150446" y="296.793856" style="fill: #2563eb; stroke: #2563eb"/>
     <use xlink:href="#m044d38481d" x="135.204082" y="294.23544" style="fill: #2563eb; stroke: #2563eb"/>
     <use xlink:href="#m044d38481d" x="146.257717" y="258.194713" style="fill: #2563eb; stroke: #2563eb"/>
     <use xlink:href="#m044d38481d" x="157.311352" y="242.382277" style="fill: #2563eb; stroke: #2563eb"/>
     <use xlink:href="#m044d38481d" x="168.364987" y="222.273511" style="fill: #2563eb; stroke: #2563eb"/>
     <use xlink:href="#m044d38481d" x="179.418622" y="199.984274" style="fill: #2563eb; stroke: #2563eb"/>
     <use xlink:href="#m044d38481d" x="190.472258" y="191.485288" style="fill: #2563eb; stroke: #2563eb"/>
     <use xlink:href="#m044d38481d" x="201.525893" y="184.873892" style="fill: #2563eb; stroke: #2563eb"/>
     <use xlink:href="#m044d38481d" x="212.579528" y="141.925653" style="fill: #2563eb; stroke: #2563eb"/>
     <use xlink:href="#m044d38481d" x="223.633163" y="135.697589" style="fill: #2563eb; stroke: #2563eb"/>
     <use xlink:href="#m044d38481d" x="234.686798" y="121.290345" style="fill: #2563eb; stroke: #2563eb"/>
     <use xlink:href="#m044d38481d" x="245.740434" y="127.486106" style="fill: #2563eb; stroke: #2563eb"/>
     <use xlink:href="#m044d38481d" x="256.794069" y="151.803988" style="fill: #2563eb; stroke: #2563eb"/>
     <use xlink:href="#m044d38481d" x="267.847704" y="113.149929" style="fill: #2563eb; stroke: #2563eb"/>
     <use xlink:href="#m044d38481d" x="278.901339" y="93.257596" style="fill: #2563eb; stroke: #2563eb"/>
     <use xlink:href="#m044d38481d" x="289.954974" y="84.690779" style="fill: #2563eb; stroke: #2563eb"/>
     <use xlink:href="#m044d38481d" x="301.00861" y="71.394769" style="fill: #2563eb; stroke: #2563eb"/>
     <use xlink:href="#m044d38481d" x="312.062245" y="65.916138" style="fill: #2563eb; stroke: #2563eb"/>
     <use xlink:href="#m044d38481d" x="323.11588" y="60.263071" style="fill: #2563eb; stroke: #2563eb"/>
     <use xlink:href="#m044d38481d" x="334.169515" y="70.432133" style="fill: #2563eb; stroke: #2563eb"/>
     <use xlink:href="#m044d38481d" x="345.223151" y="61.277393" style="fill: #2563eb; stroke: #2563eb"/>
     <use xlink:href="#m044d38481d" x="356.276786" y="54.248209" style="fill: #2563eb; stroke: #2563eb"/>
     <use xlink:href="#m044d38481d" x="367.330421" y="53.85411" style="fill: #2563eb; stroke: #2563eb"/>
     <use xlink:href="#m044d38481d" x="378.384056" y="241.322732" style="fill: #2563eb; stroke: #2563eb"/>
     <use xlink:href="#m044d38481d" x="389.437691" y="121.374343" style="fill: #2563eb; stroke: #2563eb"/>
     <use xlink:href="#m044d38481d" x="400.491327" y="81.324785" style="fill: #2563eb; stroke: #2563eb"/>
     <use xlink:href="#m044d38481d" x="411.544962" y="71.007135" style="fill: #2563eb; stroke: #2563eb"/>
     <use xlink:href="#m044d38481d" x="422.598597" y="60.670093" style="fill: #2563eb; stroke: #2563eb"/>
     <use xlink:href="#m044d38481d" x="433.652232" y="67.912481" style="fill: #2563eb; stroke: #2563eb"/>
     <use xlink:href="#m044d38481d" x="444.705867" y="57.01983" style="fill: #2563eb; stroke: #2563eb"/>
     <use xlink:href="#m044d38481d" x="455.759503" y="53.666752" style="fill: #2563eb; stroke: #2563eb"/>
     <use xlink:href="#m044d38481d" x="466.813138" y="58.596226" style="fill: #2563eb; stroke: #2563eb"/>
     <use xlink:href="#m044d38481d" x="477.866773" y="58.609148" style="fill: #2563eb; stroke: #2563eb"/>
     <use xlink:href="#m044d38481d" x="488.920408" y="61.154644" style="fill: #2563eb; stroke: #2563eb"/>
     <use xlink:href="#m044d38481d" x="499.974043" y="69.78607" style="fill: #2563eb; stroke: #2563eb"/>
     <use xlink:href="#m044d38481d" x="511.027679" y="46.249928" style="fill: #2563eb; stroke: #2563eb"/>
     <use xlink:href="#m044d38481d" x="522.081314" y="50.126317" style="fill: #2563eb; stroke: #2563eb"/>
     <use xlink:href="#m044d38481d" x="533.134949" y="56.412528" style="fill: #2563eb; stroke: #2563eb"/>
     <use xlink:href="#m044d38481d" x="544.188584" y="51.366761" style="fill: #2563eb; stroke: #2563eb"/>
     <use xlink:href="#m044d38481d" x="555.242219" y="63.092838" style="fill: #2563eb; stroke: #2563eb"/>
     <use xlink:href="#m044d38481d" x="566.295855" y="61.167564" style="fill: #2563eb; stroke: #2563eb"/>
     <use xlink:href="#m044d38481d" x="577.34949" y="47.044587" style="fill: #2563eb; stroke: #2563eb"/>
     <use xlink:href="#m044d38481d" x="588.403125" y="56.509437" style="fill: #2563eb; stroke: #2563eb"/>
    </g>
   </g>
   <g id="line2d_24">
    <path d="M 46.775 65.463889 
L 588.403125 65.463889 
" clip-path="url(#pacac8363a1)" style="fill: none; stroke-dasharray: 4.44,1.92; stroke-dashoffset: 0; stroke: #16a34a; stroke-opacity: 0.6; stroke-width: 1.2"/>
   </g>
   <g id="patch_3">
    <path d="M 46.775 305.8 
L 46.775 26.7 
" style="fill: none; stroke: #000000; stroke-width: 0.8; stroke-linejoin: miter; stroke-linecap: square"/>
   </g>
   <g id="patch_4">
    <path d="M 588.403125 305.8 
L 588.403125 26.7 
" style="fill: none; stroke: #000000; stroke-width: 0.8; stroke-linejoin: miter; stroke-linecap: square"/>
   </g>
   <g id="patch_5">
    <path d="M 46.775 305.8 
L 588.403125 305.8 
" style="fill: none; stroke: #000000; stroke-width: 0.8; stroke-linejoin: miter; stroke-linecap: square"/>
   </g>
   <g id="patch_6">
    <path d="M 46.775 26.7 
L 588.403125 26.7 
" style="fill: none; stroke: #000000; stroke-width: 0.8; stroke-linejoin: miter; stroke-linecap: square"/>
   </g>
   <g id="text_14">
    <!-- GRPO Training Improves Membrane Reward -->
    <g transform="translate(175.934766 20.7) scale(0.13 -0.13)">
     <defs>
      <path id="DejaVuSans-47" d="M 3809 666 
L 3809 1919 
L 2778 1919 
L 2778 2438 
L 4434 2438 
L 4434 434 
Q 4069 175 3628 42 
Q 3188 -91 2688 -91 
Q 1594 -91 976 548 
Q 359 1188 359 2328 
Q 359 3472 976 4111 
Q 1594 4750 2688 4750 
Q 3144 4750 3555 4637 
Q 3966 4525 4313 4306 
L 4313 3634 
Q 3963 3931 3569 4081 
Q 3175 4231 2741 4231 
Q 1884 4231 1454 3753 
Q 1025 3275 1025 2328 
Q 1025 1384 1454 906 
Q 1884 428 2741 428 
Q 3075 428 3337 486 
Q 3600 544 3809 666 
z
" transform="scale(0.015625)"/>
      <path id="DejaVuSans-52" d="M 2841 2188 
Q 3044 2119 3236 1894 
Q 3428 1669 3622 1275 
L 4263 0 
L 3584 0 
L 2988 1197 
Q 2756 1666 2539 1819 
Q 2322 1972 1947 1972 
L 1259 1972 
L 1259 0 
L 628 0 
L 628 4666 
L 2053 4666 
Q 2853 4666 3247 4331 
Q 3641 3997 3641 3322 
Q 3641 2881 3436 2590 
Q 3231 2300 2841 2188 
z
M 1259 4147 
L 1259 2491 
L 2053 2491 
Q 2509 2491 2742 2702 
Q 2975 2913 2975 3322 
Q 2975 3731 2742 3939 
Q 2509 4147 2053 4147 
L 1259 4147 
z
" transform="scale(0.015625)"/>
      <path id="DejaVuSans-50" d="M 1259 4147 
L 1259 2394 
L 2053 2394 
Q 2494 2394 2734 2622 
Q 2975 2850 2975 3272 
Q 2975 3691 2734 3919 
Q 2494 4147 2053 4147 
L 1259 4147 
z
M 628 4666 
L 2053 4666 
Q 2838 4666 3239 4311 
Q 3641 3956 3641 3272 
Q 3641 2581 3239 2228 
Q 2838 1875 2053 1875 
L 1259 1875 
L 1259 0 
L 628 0 
L 628 4666 
z
" transform="scale(0.015625)"/>
      <path id="DejaVuSans-4f" d="M 2522 4238 
Q 1834 4238 1429 3725 
Q 1025 3213 1025 2328 
Q 1025 1447 1429 934 
Q 1834 422 2522 422 
Q 3209 422 3611 934 
Q 4013 1447 4013 2328 
Q 4013 3213 3611 3725 
Q 3209 4238 2522 4238 
z
M 2522 4750 
Q 3503 4750 4090 4092 
Q 4678 3434 4678 2328 
Q 4678 1225 4090 567 
Q 3503 -91 2522 -91 
Q 1538 -91 948 565 
Q 359 1222 359 2328 
Q 359 3434 948 4092 
Q 1538 4750 2522 4750 
z
" transform="scale(0.015625)"/>
      <path id="DejaVuSans-49" d="M 628 4666 
L 1259 4666 
L 1259 0 
L 628 0 
L 628 4666 
z
" transform="scale(0.015625)"/>
      <path id="DejaVuSans-76" d="M 191 3500 
L 800 3500 
L 1894 563 
L 2988 3500 
L 3597 3500 
L 2284 0 
L 1503 0 
L 191 3500 
z
" transform="scale(0.015625)"/>
      <path id="DejaVuSans-62" d="M 3116 1747 
Q 3116 2381 2855 2742 
Q 2594 3103 2138 3103 
Q 1681 3103 1420 2742 
Q 1159 2381 1159 1747 
Q 1159 1113 1420 752 
Q 1681 391 2138 391 
Q 2594 391 2855 752 
Q 3116 1113 3116 1747 
z
M 1159 2969 
Q 1341 3281 1617 3432 
Q 1894 3584 2278 3584 
Q 2916 3584 3314 3078 
Q 3713 2572 3713 1747 
Q 3713 922 3314 415 
Q 2916 -91 2278 -91 
Q 1894 -91 1617 61 
Q 1341 213 1159 525 
L 1159 0 
L 581 0 
L 581 4863 
L 1159 4863 
L 1159 2969 
z
" transform="scale(0.015625)"/>
     </defs>
     <use xlink:href="#DejaVuSans-47"/>
     <use xlink:href="#DejaVuSans-52" transform="translate(77.490234 0)"/>
     <use xlink:href="#DejaVuSans-50" transform="translate(146.972656 0)"/>
     <use xlink:href="#DejaVuSans-4f" transform="translate(207.275391 0)"/>
     <use xlink:href="#DejaVuSans-20" transform="translate(285.986328 0)"/>
     <use xlink:href="#DejaVuSans-54" transform="translate(317.773438 0)"/>
     <use xlink:href="#DejaVuSans-72" transform="translate(364.107422 0)"/>
     <use xlink:href="#DejaVuSans-61" transform="translate(405.220703 0)"/>
     <use xlink:href="#DejaVuSans-69" transform="translate(466.5 0)"/>
     <use xlink:href="#DejaVuSans-6e" transform="translate(494.283203 0)"/>
     <use xlink:href="#DejaVuSans-69" transform="translate(557.662109 0)"/>
     <use xlink:href="#DejaVuSans-6e" transform="translate(585.445312 0)"/>
     <use xlink:href="#DejaVuSans-67" transform="translate(648.824219 0)"/>
     <use xlink:href="#DejaVuSans-20" transform="translate(712.300781 0)"/>
     <use xlink:href="#DejaVuSans-49" transform="translate(744.087891 0)"/>
     <use xlink:href="#DejaVuSans-6d" transform="translate(773.580078 0)"/>
     <use xlink:href="#DejaVuSans-70" transform="translate(870.992188 0)"/>
     <use xlink:href="#DejaVuSans-72" transform="translate(934.46875 0)"/>
     <use xlink:href="#DejaVuSans-6f" transform="translate(973.332031 0)"/>
     <use xlink:href="#DejaVuSans-76" transform="translate(1034.513672 0)"/>
     <use xlink:href="#DejaVuSans-65" transform="translate(1093.693359 0)"/>
     <use xlink:href="#DejaVuSans-73" transform="translate(1155.216797 0)"/>
     <use xlink:href="#DejaVuSans-20" transform="translate(1207.316406 0)"/>
     <use xlink:href="#DejaVuSans-4d" transform="translate(1239.103516 0)"/>
     <use xlink:href="#DejaVuSans-65" transform="translate(1325.382812 0)"/>
     <use xlink:href="#DejaVuSans-6d" transform="translate(1386.90625 0)"/>
     <use xlink:href="#DejaVuSans-62" transform="translate(1484.318359 0)"/>
     <use xlink:href="#DejaVuSans-72" transform="translate(1547.794922 0)"/>
     <use xlink:href="#DejaVuSans-61" transform="translate(1588.908203 0)"/>
     <use xlink:href="#DejaVuSans-6e" transform="translate(1650.1875 0)"/>
     <use xlink:href="#DejaVuSans-65" transform="translate(1713.566406 0)"/>
     <use xlink:href="#DejaVuSans-20" transform="translate(1775.089844 0)"/>
     <use xlink:href="#DejaVuSans-52" transform="translate(1806.876953 0)"/>
     <use xlink:href="#DejaVuSans-65" transform="translate(1871.859375 0)"/>
     <use xlink:href="#DejaVuSans-77" transform="translate(1933.382812 0)"/>
     <use xlink:href="#DejaVuSans-61" transform="translate(2015.169922 0)"/>
     <use xlink:href="#DejaVuSans-72" transform="translate(2076.449219 0)"/>
     <use xlink:href="#DejaVuSans-64" transform="translate(2115.8125 0)"/>
    </g>
   </g>
   <g id="PathCollection_1">
    <defs>
     <path id="m3b3b96ca91" d="M 0 4.1833 
C 1.109424 4.1833 2.173559 3.742521 2.95804 2.95804 
C 3.742521 2.173559 4.1833 1.109424 4.1833 0 
C 4.1833 -1.109424 3.742521 -2.173559 2.95804 -2.95804 
C 2.173559 -3.742521 1.109424 -4.1833 0 -4.1833 
C -1.109424 -4.1833 -2.173559 -3.742521 -2.95804 -2.95804 
C -3.742521 -2.173559 -4.1833 -1.109424 -4.1833 0 
C -4.1833 1.109424 -3.742521 2.173559 -2.95804 2.95804 
C -2.173559 3.742521 -1.109424 4.1833 0 4.1833 
z
" style="stroke: #16a34a"/>
    </defs>
    <g clip-path="url(#pacac8363a1)">
     <use xlink:href="#m3b3b96ca91" x="511.027679" y="46.249928" style="fill: #16a34a; stroke: #16a34a"/>
    </g>
   </g>
   <g id="legend_1">
    <g id="patch_7">
     <path d="M 443.653594 301.3 
L 582.103125 301.3 
Q 583.903125 301.3 583.903125 299.5 
L 583.903125 247.55875 
Q 583.903125 245.75875 582.103125 245.75875 
L 443.653594 245.75875 
Q 441.853594 245.75875 441.853594 247.55875 
L 441.853594 299.5 
Q 441.853594 301.3 443.653594 301.3 
z
" style="fill: #ffffff; opacity: 0.8; stroke: #cccccc; stroke-linejoin: miter"/>
    </g>
    <g id="line2d_25">
     <path d="M 445.453594 253.047344 
L 454.453594 253.047344 
L 463.453594 253.047344 
" style="fill: none; stroke: #2563eb; stroke-width: 2.4; stroke-linecap: square"/>
     <g>
      <use xlink:href="#m044d38481d" x="454.453594" y="253.047344" style="fill: #2563eb; stroke: #2563eb"/>
     </g>
    </g>
    <g id="text_15">
     <!-- Mean Membrane reward -->
     <g transform="translate(470.653594 256.197344) scale(0.09 -0.09)">
      <use xlink:href="#DejaVuSans-4d"/>
      <use xlink:href="#DejaVuSans-65" transform="translate(86.279297 0)"/>
      <use xlink:href="#DejaVuSans-61" transform="translate(147.802734 0)"/>
      <use xlink:href="#DejaVuSans-6e" transform="translate(209.082031 0)"/>
      <use xlink:href="#DejaVuSans-20" transform="translate(272.460938 0)"/>
      <use xlink:href="#DejaVuSans-4d" transform="translate(304.248047 0)"/>
      <use xlink:href="#DejaVuSans-65" transform="translate(390.527344 0)"/>
      <use xlink:href="#DejaVuSans-6d" transform="translate(452.050781 0)"/>
      <use xlink:href="#DejaVuSans-62" transform="translate(549.462891 0)"/>
      <use xlink:href="#DejaVuSans-72" transform="translate(612.939453 0)"/>
      <use xlink:href="#DejaVuSans-61" transform="translate(654.052734 0)"/>
      <use xlink:href="#DejaVuSans-6e" transform="translate(715.332031 0)"/>
      <use xlink:href="#DejaVuSans-65" transform="translate(778.710938 0)"/>
      <use xlink:href="#DejaVuSans-20" transform="translate(840.234375 0)"/>
      <use xlink:href="#DejaVuSans-72" transform="translate(872.021484 0)"/>
      <use xlink:href="#DejaVuSans-65" transform="translate(910.884766 0)"/>
      <use xlink:href="#DejaVuSans-77" transform="translate(972.408203 0)"/>
      <use xlink:href="#DejaVuSans-61" transform="translate(1054.195312 0)"/>
      <use xlink:href="#DejaVuSans-72" transform="translate(1115.474609 0)"/>
      <use xlink:href="#DejaVuSans-64" transform="translate(1154.837891 0)"/>
     </g>
    </g>
    <g id="patch_8">
     <path d="M 445.453594 269.407656 
L 463.453594 269.407656 
L 463.453594 263.107656 
L 445.453594 263.107656 
z
" style="fill: #2563eb; fill-opacity: 0.12; stroke: #2563eb; stroke-opacity: 0.12; stroke-linejoin: miter"/>
    </g>
    <g id="text_16">
     <!-- ± reward std -->
     <g transform="translate(470.653594 269.407656) scale(0.09 -0.09)">
      <defs>
       <path id="DejaVuSans-b1" d="M 2944 4013 
L 2944 2803 
L 4684 2803 
L 4684 2272 
L 2944 2272 
L 2944 1063 
L 2419 1063 
L 2419 2272 
L 678 2272 
L 678 2803 
L 2419 2803 
L 2419 4013 
L 2944 4013 
z
M 678 531 
L 4684 531 
L 4684 0 
L 678 0 
L 678 531 
z
" transform="scale(0.015625)"/>
      </defs>
      <use xlink:href="#DejaVuSans-b1"/>
      <use xlink:href="#DejaVuSans-20" transform="translate(83.789062 0)"/>
      <use xlink:href="#DejaVuSans-72" transform="translate(115.576172 0)"/>
      <use xlink:href="#DejaVuSans-65" transform="translate(154.439453 0)"/>
      <use xlink:href="#DejaVuSans-77" transform="translate(215.962891 0)"/>
      <use xlink:href="#DejaVuSans-61" transform="translate(297.75 0)"/>
      <use xlink:href="#DejaVuSans-72" transform="translate(359.029297 0)"/>
      <use xlink:href="#DejaVuSans-64" transform="translate(398.392578 0)"/>
      <use xlink:href="#DejaVuSans-20" transform="translate(461.869141 0)"/>
      <use xlink:href="#DejaVuSans-73" transform="translate(493.65625 0)"/>
      <use xlink:href="#DejaVuSans-74" transform="translate(545.755859 0)"/>
      <use xlink:href="#DejaVuSans-64" transform="translate(584.964844 0)"/>
     </g>
    </g>
    <g id="PathCollection_2">
     <g>
      <use xlink:href="#m3b3b96ca91" x="454.453594" y="280.255469" style="fill: #16a34a; stroke: #16a34a"/>
     </g>
    </g>
    <g id="text_17">
     <!-- Peak 0.974 @ step 860 -->
     <g transform="translate(470.653594 282.617969) scale(0.09 -0.09)">
      <defs>
       <path id="DejaVuSans-6b" d="M 581 4863 
L 1159 4863 
L 1159 1991 
L 2875 3500 
L 3609 3500 
L 1753 1863 
L 3688 0 
L 2938 0 
L 1159 1709 
L 1159 0 
L 581 0 
L 581 4863 
z
" transform="scale(0.015625)"/>
       <path id="DejaVuSans-39" d="M 703 97 
L 703 672 
Q 941 559 1184 500 
Q 1428 441 1663 441 
Q 2288 441 2617 861 
Q 2947 1281 2994 2138 
Q 2813 1869 2534 1725 
Q 2256 1581 1919 1581 
Q 1219 1581 811 2004 
Q 403 2428 403 3163 
Q 403 3881 828 4315 
Q 1253 4750 1959 4750 
Q 2769 4750 3195 4129 
Q 3622 3509 3622 2328 
Q 3622 1225 3098 567 
Q 2575 -91 1691 -91 
Q 1453 -91 1209 -44 
Q 966 3 703 97 
z
M 1959 2075 
Q 2384 2075 2632 2365 
Q 2881 2656 2881 3163 
Q 2881 3666 2632 3958 
Q 2384 4250 1959 4250 
Q 1534 4250 1286 3958 
Q 1038 3666 1038 3163 
Q 1038 2656 1286 2365 
Q 1534 2075 1959 2075 
z
" transform="scale(0.015625)"/>
       <path id="DejaVuSans-37" d="M 525 4666 
L 3525 4666 
L 3525 4397 
L 1831 0 
L 1172 0 
L 2766 4134 
L 525 4134 
L 525 4666 
z
" transform="scale(0.015625)"/>
       <path id="DejaVuSans-40" d="M 2381 1678 
Q 2381 1231 2603 976 
Q 2825 722 3213 722 
Q 3597 722 3817 978 
Q 4038 1234 4038 1678 
Q 4038 2116 3813 2373 
Q 3588 2631 3206 2631 
Q 2828 2631 2604 2375 
Q 2381 2119 2381 1678 
z
M 4084 744 
Q 3897 503 3655 389 
Q 3413 275 3091 275 
Q 2553 275 2217 664 
Q 1881 1053 1881 1678 
Q 1881 2303 2218 2693 
Q 2556 3084 3091 3084 
Q 3413 3084 3656 2967 
Q 3900 2850 4084 2613 
L 4084 3022 
L 4531 3022 
L 4531 722 
Q 4988 791 5245 1139 
Q 5503 1488 5503 2041 
Q 5503 2375 5404 2669 
Q 5306 2963 5106 3213 
Q 4781 3622 4314 3839 
Q 3847 4056 3297 4056 
Q 2913 4056 2559 3954 
Q 2206 3853 1906 3653 
Q 1416 3334 1139 2817 
Q 863 2300 863 1697 
Q 863 1200 1042 765 
Q 1222 331 1563 0 
Q 1891 -325 2322 -495 
Q 2753 -666 3244 -666 
Q 3647 -666 4036 -530 
Q 4425 -394 4750 -141 
L 5031 -488 
Q 4641 -791 4180 -952 
Q 3719 -1113 3244 -1113 
Q 2666 -1113 2153 -908 
Q 1641 -703 1241 -313 
Q 841 78 631 592 
Q 422 1106 422 1697 
Q 422 2266 634 2781 
Q 847 3297 1241 3688 
Q 1644 4084 2172 4295 
Q 2700 4506 3291 4506 
Q 3953 4506 4520 4234 
Q 5088 3963 5472 3463 
Q 5706 3156 5829 2797 
Q 5953 2438 5953 2053 
Q 5953 1231 5456 756 
Q 4959 281 4084 263 
L 4084 744 
z
" transform="scale(0.015625)"/>
      </defs>
      <use xlink:href="#DejaVuSans-50"/>
      <use xlink:href="#DejaVuSans-65" transform="translate(56.677734 0)"/>
      <use xlink:href="#DejaVuSans-61" transform="translate(118.201172 0)"/>
      <use xlink:href="#DejaVuSans-6b" transform="translate(179.480469 0)"/>
      <use xlink:href="#DejaVuSans-20" transform="translate(237.390625 0)"/>
      <use xlink:href="#DejaVuSans-30" transform="translate(269.177734 0)"/>
      <use xlink:href="#DejaVuSans-2e" transform="translate(332.800781 0)"/>
      <use xlink:href="#DejaVuSans-39" transform="translate(364.587891 0)"/>
      <use xlink:href="#DejaVuSans-37" transform="translate(428.210938 0)"/>
      <use xlink:href="#DejaVuSans-34" transform="translate(491.833984 0)"/>
      <use xlink:href="#DejaVuSans-20" transform="translate(555.457031 0)"/>
      <use xlink:href="#DejaVuSans-40" transform="translate(587.244141 0)"/>
      <use xlink:href="#DejaVuSans-20" transform="translate(687.244141 0)"/>
      <use xlink:href="#DejaVuSans-73" transform="translate(719.03125 0)"/>
      <use xlink:href="#DejaVuSans-74" transform="translate(771.130859 0)"/>
      <use xlink:href="#DejaVuSans-65" transform="translate(810.339844 0)"/>
      <use xlink:href="#DejaVuSans-70" transform="translate(871.863281 0)"/>
      <use xlink:href="#DejaVuSans-20" transform="translate(935.339844 0)"/>
      <use xlink:href="#DejaVuSans-38" transform="translate(967.126953 0)"/>
      <use xlink:href="#DejaVuSans-36" transform="translate(1030.75 0)"/>
      <use xlink:href="#DejaVuSans-30" transform="translate(1094.373047 0)"/>
     </g>
    </g>
    <g id="line2d_26">
     <path d="M 445.453594 292.678281 
L 454.453594 292.678281 
L 463.453594 292.678281 
" style="fill: none; stroke-dasharray: 4.44,1.92; stroke-dashoffset: 0; stroke: #16a34a; stroke-opacity: 0.6; stroke-width: 1.2"/>
    </g>
    <g id="text_18">
     <!-- 0.90 target band -->
     <g transform="translate(470.653594 295.828281) scale(0.09 -0.09)">
      <use xlink:href="#DejaVuSans-30"/>
      <use xlink:href="#DejaVuSans-2e" transform="translate(63.623047 0)"/>
      <use xlink:href="#DejaVuSans-39" transform="translate(95.410156 0)"/>
      <use xlink:href="#DejaVuSans-30" transform="translate(159.033203 0)"/>
      <use xlink:href="#DejaVuSans-20" transform="translate(222.65625 0)"/>
      <use xlink:href="#DejaVuSans-74" transform="translate(254.443359 0)"/>
      <use xlink:href="#DejaVuSans-61" transform="translate(293.652344 0)"/>
      <use xlink:href="#DejaVuSans-72" transform="translate(354.931641 0)"/>
      <use xlink:href="#DejaVuSans-67" transform="translate(394.294922 0)"/>
      <use xlink:href="#DejaVuSans-65" transform="translate(457.771484 0)"/>
      <use xlink:href="#DejaVuSans-74" transform="translate(519.294922 0)"/>
      <use xlink:href="#DejaVuSans-20" transform="translate(558.503906 0)"/>
      <use xlink:href="#DejaVuSans-62" transform="translate(590.291016 0)"/>
      <use xlink:href="#DejaVuSans-61" transform="translate(653.767578 0)"/>
      <use xlink:href="#DejaVuSans-6e" transform="translate(715.046875 0)"/>
      <use xlink:href="#DejaVuSans-64" transform="translate(778.425781 0)"/>
     </g>
    </g>
   </g>
  </g>
 </g>
 <defs>
  <clipPath id="pacac8363a1">
   <rect x="46.775" y="26.7" width="541.628125" height="279.1"/>
  </clipPath>
 </defs>
</svg>
