<?xml version="1.0" encoding="utf-8" standalone="no"?>
<!DOCTYPE svg PUBLIC "-//W3C//DTD SVG 1.1//EN"
  "http://www.w3.org/Graphics/SVG/1.1/DTD/svg11.dtd">
<svg xmlns:xlink="http://www.w3.org/1999/xlink" width="785.269318pt" height="592.47625pt" viewBox="0 0 785.269318 592.47625" xmlns="http://www.w3.org/2000/svg" version="1.1">
 <metadata>
  <rdf:RDF xmlns:dc="http://purl.org/dc/elements/1.1/" xmlns:cc="http://creativecommons.org/ns#" xmlns:rdf="http://www.w3.org/1999/02/22-rdf-syntax-ns#">
   <cc:Work>
    <dc:type rdf:resource="http://purl.org/dc/dcmitype/StillImage"/>
    <dc:date>2026-04-25T02:12:58.692845</dc:date>
    <dc:format>image/svg+xml</dc:format>
    <dc:creator>
     <cc:Agent>
      <dc:title>Matplotlib v3.10.9, https://matplotlib.org/</dc:title>
     </cc:Agent>
    </dc:creator>
   </cc:Work>
  </rdf:RDF>
 </metadata>
 <defs>
  <style type="text/css">*{stroke-linejoin: round; stroke-linecap: butt}</style>
 </defs>
 <g id="figure_1">
  <g id="patch_1">
   <path d="M 0 592.47625 
L 785.269318 592.47625 
L 785.269318 0 
L 0 0 
z
" style="fill: #ffffff"/>
  </g>
  <g id="axes_1">
   <g id="patch_2">
    <path d="M 46.965625 291.645 
L 392.366193 291.645 
L 392.366193 71.07 
L 46.965625 71.07 
z
" style="fill: #ffffff"/>
   </g>
   <g id="FillBetweenPolyCollection_1">
    <defs>
     <path id="m35a135adad" d="M 62.665651 -306.958333 
L 62.665651 -306.958333 
L 69.073825 -306.958333 
L 75.481998 -306.958333 
L 81.890172 -306.958333 
L 88.298346 -306.958333 
L 94.70652 -306.958333 
L 101.114694 -306.958333 
L 107.522867 -306.958333 
L 113.931041 -306.958333 
L 120.339215 -306.958333 
L 126.747389 -306.958333 
L 133.155563 -316.259624 
L 139.563737 -322.003035 
L 145.97191 -316.039571 
L 152.380084 -314.391229 
L 158.788258 -355.452875 
L 165.196432 -369.847897 
L 171.604606 -387.220989 
L 178.012779 -372.531455 
L 184.420953 -354.980901 
L 190.829127 -387.456979 
L 197.237301 -414.387377 
L 203.645475 -435.311953 
L 210.053648 -449.695494 
L 216.461822 -462.433294 
L 222.869996 -470.398288 
L 229.27817 -452.465069 
L 235.686344 -466.321029 
L 242.094517 -483.491218 
L 248.502691 -482.351197 
L 254.910865 -306.958333 
L 261.319039 -367.146621 
L 267.727213 -434.423296 
L 274.135386 -443.548668 
L 280.54356 -468.935808 
L 286.951734 -455.758781 
L 293.359908 -476.356123 
L 299.768082 -482.849798 
L 306.176255 -474.264547 
L 312.584429 -472.615013 
L 318.992603 -469.19099 
L 325.400777 -448.162736 
L 331.808951 -500.380138 
L 338.217125 -491.189513 
L 344.625298 -476.285383 
L 351.033472 -488.248513 
L 357.441646 -468.180687 
L 363.84982 -469.916545 
L 370.257994 -498.496059 
L 376.666167 -478.13002 
L 376.666167 -511.194444 
L 376.666167 -511.194444 
L 370.257994 -511.194444 
L 363.84982 -511.194444 
L 357.441646 -511.194444 
L 351.033472 -511.194444 
L 344.625298 -511.194444 
L 338.217125 -511.194444 
L 331.808951 -511.194444 
L 325.400777 -511.194444 
L 318.992603 -511.194444 
L 312.584429 -511.194444 
L 306.176255 -511.194444 
L 299.768082 -511.194444 
L 293.359908 -511.194444 
L 286.951734 -511.194444 
L 280.54356 -511.194444 
L 274.135386 -511.194444 
L 267.727213 -511.194444 
L 261.319039 -511.194444 
L 254.910865 -417.270937 
L 248.502691 -511.194444 
L 242.094517 -511.194444 
L 235.686344 -511.194444 
L 229.27817 -511.194444 
L 222.869996 -511.194444 
L 216.461822 -511.194444 
L 210.053648 -511.194444 
L 203.645475 -511.194444 
L 197.237301 -511.194444 
L 190.829127 -511.194444 
L 184.420953 -490.0902 
L 178.012779 -510.976886 
L 171.604606 -506.080474 
L 165.196432 -500.68124 
L 158.788258 -505.232083 
L 152.380084 -478.409044 
L 145.97191 -466.310622 
L 139.563737 -446.913524 
L 133.155563 -417.426204 
L 126.747389 -404.652713 
L 120.339215 -386.831636 
L 113.931041 -315.995782 
L 107.522867 -309.929969 
L 101.114694 -306.958333 
L 94.70652 -306.958333 
L 88.298346 -311.844682 
L 81.890172 -309.929969 
L 75.481998 -306.958333 
L 69.073825 -309.929969 
L 62.665651 -306.958333 
z
" style="stroke: #2563eb; stroke-opacity: 0.12"/>
    </defs>
    <g clip-path="url(#p7042091a8c)">
     <use xlink:href="#m35a135adad" x="0" y="592.47625" style="fill: #2563eb; fill-opacity: 0.12; stroke: #2563eb; stroke-opacity: 0.12"/>
    </g>
   </g>
   <g id="PathCollection_1">
    <defs>
     <path id="ma6bc9969b7" d="M 0 3.708099 
C 0.983399 3.708099 1.926654 3.317391 2.622022 2.622022 
C 3.317391 1.926654 3.708099 0.983399 3.708099 0 
C 3.708099 -0.983399 3.317391 -1.926654 2.622022 -2.622022 
C 1.926654 -3.317391 0.983399 -3.708099 0 -3.708099 
C -0.983399 -3.708099 -1.926654 -3.317391 -2.622022 -2.622022 
C -3.317391 -1.926654 -3.708099 -0.983399 -3.708099 0 
C -3.708099 0.983399 -3.317391 1.926654 -2.622022 2.622022 
C -1.926654 3.317391 -0.983399 3.708099 0 3.708099 
z
" style="stroke: #16a34a"/>
    </defs>
    <g clip-path="url(#p7042091a8c)">
     <use xlink:href="#ma6bc9969b7" x="331.808951" y="86.520467" style="fill: #16a34a; stroke: #16a34a"/>
    </g>
   </g>
   <g id="matplotlib.axis_1">
    <g id="xtick_1">
     <g id="line2d_1">
      <path d="M 56.257477 291.645 
L 56.257477 71.07 
" clip-path="url(#p7042091a8c)" style="fill: none; stroke: #b0b0b0; stroke-opacity: 0.25; stroke-width: 0.8; stroke-linecap: square"/>
     </g>
     <g id="line2d_2">
      <defs>
       <path id="me3e9906419" d="M 0 0 
L 0 3.5 
" style="stroke: #000000; stroke-width: 0.8"/>
      </defs>
      <g>
       <use xlink:href="#me3e9906419" x="56.257477" y="291.645" style="stroke: #000000; stroke-width: 0.8"/>
      </g>
     </g>
     <g id="text_1">
      <!-- 0 -->
      <g transform="translate(53.076227 306.243438) scale(0.1 -0.1)">
       <defs>
        <path id="DejaVuSans-30" d="M 2034 4250 
Q 1547 4250 1301 3770 
Q 1056 3291 1056 2328 
Q 1056 1369 1301 889 
Q 1547 409 2034 409 
Q 2525 409 2770 889 
Q 3016 1369 3016 2328 
Q 3016 3291 2770 3770 
Q 2525 4250 2034 4250 
z
M 2034 4750 
Q 2819 4750 3233 4129 
Q 3647 3509 3647 2328 
Q 3647 1150 3233 529 
Q 2819 -91 2034 -91 
Q 1250 -91 836 529 
Q 422 1150 422 2328 
Q 422 3509 836 4129 
Q 1250 4750 2034 4750 
z
" transform="scale(0.015625)"/>
       </defs>
       <use xlink:href="#DejaVuSans-30"/>
      </g>
     </g>
    </g>
    <g id="xtick_2">
     <g id="line2d_3">
      <path d="M 120.339215 291.645 
L 120.339215 71.07 
" clip-path="url(#p7042091a8c)" style="fill: none; stroke: #b0b0b0; stroke-opacity: 0.25; stroke-width: 0.8; stroke-linecap: square"/>
     </g>
     <g id="line2d_4">
      <g>
       <use xlink:href="#me3e9906419" x="120.339215" y="291.645" style="stroke: #000000; stroke-width: 0.8"/>
      </g>
     </g>
     <g id="text_2">
      <!-- 200 -->
      <g transform="translate(110.795465 306.243438) scale(0.1 -0.1)">
       <defs>
        <path id="DejaVuSans-32" d="M 1228 531 
L 3431 531 
L 3431 0 
L 469 0 
L 469 531 
Q 828 903 1448 1529 
Q 2069 2156 2228 2338 
Q 2531 2678 2651 2914 
Q 2772 3150 2772 3378 
Q 2772 3750 2511 3984 
Q 2250 4219 1831 4219 
Q 1534 4219 1204 4116 
Q 875 4013 500 3803 
L 500 4441 
Q 881 4594 1212 4672 
Q 1544 4750 1819 4750 
Q 2544 4750 2975 4387 
Q 3406 4025 3406 3419 
Q 3406 3131 3298 2873 
Q 3191 2616 2906 2266 
Q 2828 2175 2409 1742 
Q 1991 1309 1228 531 
z
" transform="scale(0.015625)"/>
       </defs>
       <use xlink:href="#DejaVuSans-32"/>
       <use xlink:href="#DejaVuSans-30" transform="translate(63.623047 0)"/>
       <use xlink:href="#DejaVuSans-30" transform="translate(127.246094 0)"/>
      </g>
     </g>
    </g>
    <g id="xtick_3">
     <g id="line2d_5">
      <path d="M 184.420953 291.645 
L 184.420953 71.07 
" clip-path="url(#p7042091a8c)" style="fill: none; stroke: #b0b0b0; stroke-opacity: 0.25; stroke-width: 0.8; stroke-linecap: square"/>
     </g>
     <g id="line2d_6">
      <g>
       <use xlink:href="#me3e9906419" x="184.420953" y="291.645" style="stroke: #000000; stroke-width: 0.8"/>
      </g>
     </g>
     <g id="text_3">
      <!-- 400 -->
      <g transform="translate(174.877203 306.243438) scale(0.1 -0.1)">
       <defs>
        <path id="DejaVuSans-34" d="M 2419 4116 
L 825 1625 
L 2419 1625 
L 2419 4116 
z
M 2253 4666 
L 3047 4666 
L 3047 1625 
L 3713 1625 
L 3713 1100 
L 3047 1100 
L 3047 0 
L 2419 0 
L 2419 1100 
L 313 1100 
L 313 1709 
L 2253 4666 
z
" transform="scale(0.015625)"/>
       </defs>
       <use xlink:href="#DejaVuSans-34"/>
       <use xlink:href="#DejaVuSans-30" transform="translate(63.623047 0)"/>
       <use xlink:href="#DejaVuSans-30" transform="translate(127.246094 0)"/>
      </g>
     </g>
    </g>
    <g id="xtick_4">
     <g id="line2d_7">
      <path d="M 248.502691 291.645 
L 248.502691 71.07 
" clip-path="url(#p7042091a8c)" style="fill: none; stroke: #b0b0b0; stroke-opacity: 0.25; stroke-width: 0.8; stroke-linecap: square"/>
     </g>
     <g id="line2d_8">
      <g>
       <use xlink:href="#me3e9906419" x="248.502691" y="291.645" style="stroke: #000000; stroke-width: 0.8"/>
      </g>
     </g>
     <g id="text_4">
      <!-- 600 -->
      <g transform="translate(238.958941 306.243438) scale(0.1 -0.1)">
       <defs>
        <path id="DejaVuSans-36" d="M 2113 2584 
Q 1688 2584 1439 2293 
Q 1191 2003 1191 1497 
Q 1191 994 1439 701 
Q 1688 409 2113 409 
Q 2538 409 2786 701 
Q 3034 994 3034 1497 
Q 3034 2003 2786 2293 
Q 2538 2584 2113 2584 
z
M 3366 4563 
L 3366 3988 
Q 3128 4100 2886 4159 
Q 2644 4219 2406 4219 
Q 1781 4219 1451 3797 
Q 1122 3375 1075 2522 
Q 1259 2794 1537 2939 
Q 1816 3084 2150 3084 
Q 2853 3084 3261 2657 
Q 3669 2231 3669 1497 
Q 3669 778 3244 343 
Q 2819 -91 2113 -91 
Q 1303 -91 875 529 
Q 447 1150 447 2328 
Q 447 3434 972 4092 
Q 1497 4750 2381 4750 
Q 2619 4750 2861 4703 
Q 3103 4656 3366 4563 
z
" transform="scale(0.015625)"/>
       </defs>
       <use xlink:href="#DejaVuSans-36"/>
       <use xlink:href="#DejaVuSans-30" transform="translate(63.623047 0)"/>
       <use xlink:href="#DejaVuSans-30" transform="translate(127.246094 0)"/>
      </g>
     </g>
    </g>
    <g id="xtick_5">
     <g id="line2d_9">
      <path d="M 312.584429 291.645 
L 312.584429 71.07 
" clip-path="url(#p7042091a8c)" style="fill: none; stroke: #b0b0b0; stroke-opacity: 0.25; stroke-width: 0.8; stroke-linecap: square"/>
     </g>
     <g id="line2d_10">
      <g>
       <use xlink:href="#me3e9906419" x="312.584429" y="291.645" style="stroke: #000000; stroke-width: 0.8"/>
      </g>
     </g>
     <g id="text_5">
      <!-- 800 -->
      <g transform="translate(303.040679 306.243438) scale(0.1 -0.1)">
       <defs>
        <path id="DejaVuSans-38" d="M 2034 2216 
Q 1584 2216 1326 1975 
Q 1069 1734 1069 1313 
Q 1069 891 1326 650 
Q 1584 409 2034 409 
Q 2484 409 2743 651 
Q 3003 894 3003 1313 
Q 3003 1734 2745 1975 
Q 2488 2216 2034 2216 
z
M 1403 2484 
Q 997 2584 770 2862 
Q 544 3141 544 3541 
Q 544 4100 942 4425 
Q 1341 4750 2034 4750 
Q 2731 4750 3128 4425 
Q 3525 4100 3525 3541 
Q 3525 3141 3298 2862 
Q 3072 2584 2669 2484 
Q 3125 2378 3379 2068 
Q 3634 1759 3634 1313 
Q 3634 634 3220 271 
Q 2806 -91 2034 -91 
Q 1263 -91 848 271 
Q 434 634 434 1313 
Q 434 1759 690 2068 
Q 947 2378 1403 2484 
z
M 1172 3481 
Q 1172 3119 1398 2916 
Q 1625 2713 2034 2713 
Q 2441 2713 2670 2916 
Q 2900 3119 2900 3481 
Q 2900 3844 2670 4047 
Q 2441 4250 2034 4250 
Q 1625 4250 1398 4047 
Q 1172 3844 1172 3481 
z
" transform="scale(0.015625)"/>
       </defs>
       <use xlink:href="#DejaVuSans-38"/>
       <use xlink:href="#DejaVuSans-30" transform="translate(63.623047 0)"/>
       <use xlink:href="#DejaVuSans-30" transform="translate(127.246094 0)"/>
      </g>
     </g>
    </g>
    <g id="xtick_6">
     <g id="line2d_11">
      <path d="M 376.666167 291.645 
L 376.666167 71.07 
" clip-path="url(#p7042091a8c)" style="fill: none; stroke: #b0b0b0; stroke-opacity: 0.25; stroke-width: 0.8; stroke-linecap: square"/>
     </g>
     <g id="line2d_12">
      <g>
       <use xlink:href="#me3e9906419" x="376.666167" y="291.645" style="stroke: #000000; stroke-width: 0.8"/>
      </g>
     </g>
     <g id="text_6">
      <!-- 1000 -->
      <g transform="translate(363.941167 306.243438) scale(0.1 -0.1)">
       <defs>
        <path id="DejaVuSans-31" d="M 794 531 
L 1825 531 
L 1825 4091 
L 703 3866 
L 703 4441 
L 1819 4666 
L 2450 4666 
L 2450 531 
L 3481 531 
L 3481 0 
L 794 0 
L 794 531 
z
" transform="scale(0.015625)"/>
       </defs>
       <use xlink:href="#DejaVuSans-31"/>
       <use xlink:href="#DejaVuSans-30" transform="translate(63.623047 0)"/>
       <use xlink:href="#DejaVuSans-30" transform="translate(127.246094 0)"/>
       <use xlink:href="#DejaVuSans-30" transform="translate(190.869141 0)"/>
      </g>
     </g>
    </g>
   </g>
   <g id="matplotlib.axis_2">
    <g id="ytick_1">
     <g id="line2d_13">
      <path d="M 46.965625 285.517917 
L 392.366193 285.517917 
" clip-path="url(#p7042091a8c)" style="fill: none; stroke: #b0b0b0; stroke-opacity: 0.25; stroke-width: 0.8; stroke-linecap: square"/>
     </g>
     <g id="line2d_14">
      <defs>
       <path id="mc8ddb3472b" d="M 0 0 
L -3.5 0 
" style="stroke: #000000; stroke-width: 0.8"/>
      </defs>
      <g>
       <use xlink:href="#mc8ddb3472b" x="46.965625" y="285.517917" style="stroke: #000000; stroke-width: 0.8"/>
      </g>
     </g>
     <g id="text_7">
      <!-- 0.0 -->
      <g transform="translate(24.0625 289.317135) scale(0.1 -0.1)">
       <defs>
        <path id="DejaVuSans-2e" d="M 684 794 
L 1344 794 
L 1344 0 
L 684 0 
L 684 794 
z
" transform="scale(0.015625)"/>
       </defs>
       <use xlink:href="#DejaVuSans-30"/>
       <use xlink:href="#DejaVuSans-2e" transform="translate(63.623047 0)"/>
       <use xlink:href="#DejaVuSans-30" transform="translate(95.410156 0)"/>
      </g>
     </g>
    </g>
    <g id="ytick_2">
     <g id="line2d_15">
      <path d="M 46.965625 244.670694 
L 392.366193 244.670694 
" clip-path="url(#p7042091a8c)" style="fill: none; stroke: #b0b0b0; stroke-opacity: 0.25; stroke-width: 0.8; stroke-linecap: square"/>
     </g>
     <g id="line2d_16">
      <g>
       <use xlink:href="#mc8ddb3472b" x="46.965625" y="244.670694" style="stroke: #000000; stroke-width: 0.8"/>
      </g>
     </g>
     <g id="text_8">
      <!-- 0.2 -->
      <g transform="translate(24.0625 248.469913) scale(0.1 -0.1)">
       <use xlink:href="#DejaVuSans-30"/>
       <use xlink:href="#DejaVuSans-2e" transform="translate(63.623047 0)"/>
       <use xlink:href="#DejaVuSans-32" transform="translate(95.410156 0)"/>
      </g>
     </g>
    </g>
    <g id="ytick_3">
     <g id="line2d_17">
      <path d="M 46.965625 203.823472 
L 392.366193 203.823472 
" clip-path="url(#p7042091a8c)" style="fill: none; stroke: #b0b0b0; stroke-opacity: 0.25; stroke-width: 0.8; stroke-linecap: square"/>
     </g>
     <g id="line2d_18">
      <g>
       <use xlink:href="#mc8ddb3472b" x="46.965625" y="203.823472" style="stroke: #000000; stroke-width: 0.8"/>
      </g>
     </g>
     <g id="text_9">
      <!-- 0.4 -->
      <g transform="translate(24.0625 207.622691) scale(0.1 -0.1)">
       <use xlink:href="#DejaVuSans-30"/>
       <use xlink:href="#DejaVuSans-2e" transform="translate(63.623047 0)"/>
       <use xlink:href="#DejaVuSans-34" transform="translate(95.410156 0)"/>
      </g>
     </g>
    </g>
    <g id="ytick_4">
     <g id="line2d_19">
      <path d="M 46.965625 162.97625 
L 392.366193 162.97625 
" clip-path="url(#p7042091a8c)" style="fill: none; stroke: #b0b0b0; stroke-opacity: 0.25; stroke-width: 0.8; stroke-linecap: square"/>
     </g>
     <g id="line2d_20">
      <g>
       <use xlink:href="#mc8ddb3472b" x="46.965625" y="162.97625" style="stroke: #000000; stroke-width: 0.8"/>
      </g>
     </g>
     <g id="text_10">
      <!-- 0.6 -->
      <g transform="translate(24.0625 166.775469) scale(0.1 -0.1)">
       <use xlink:href="#DejaVuSans-30"/>
       <use xlink:href="#DejaVuSans-2e" transform="translate(63.623047 0)"/>
       <use xlink:href="#DejaVuSans-36" transform="translate(95.410156 0)"/>
      </g>
     </g>
    </g>
    <g id="ytick_5">
     <g id="line2d_21">
      <path d="M 46.965625 122.129028 
L 392.366193 122.129028 
" clip-path="url(#p7042091a8c)" style="fill: none; stroke: #b0b0b0; stroke-opacity: 0.25; stroke-width: 0.8; stroke-linecap: square"/>
     </g>
     <g id="line2d_22">
      <g>
       <use xlink:href="#mc8ddb3472b" x="46.965625" y="122.129028" style="stroke: #000000; stroke-width: 0.8"/>
      </g>
     </g>
     <g id="text_11">
      <!-- 0.8 -->
      <g transform="translate(24.0625 125.928247) scale(0.1 -0.1)">
       <use xlink:href="#DejaVuSans-30"/>
       <use xlink:href="#DejaVuSans-2e" transform="translate(63.623047 0)"/>
       <use xlink:href="#DejaVuSans-38" transform="translate(95.410156 0)"/>
      </g>
     </g>
    </g>
    <g id="ytick_6">
     <g id="line2d_23">
      <path d="M 46.965625 81.281806 
L 392.366193 81.281806 
" clip-path="url(#p7042091a8c)" style="fill: none; stroke: #b0b0b0; stroke-opacity: 0.25; stroke-width: 0.8; stroke-linecap: square"/>
     </g>
     <g id="line2d_24">
      <g>
       <use xlink:href="#mc8ddb3472b" x="46.965625" y="81.281806" style="stroke: #000000; stroke-width: 0.8"/>
      </g>
     </g>
     <g id="text_12">
      <!-- 1.0 -->
      <g transform="translate(24.0625 85.081024) scale(0.1 -0.1)">
       <use xlink:href="#DejaVuSans-31"/>
       <use xlink:href="#DejaVuSans-2e" transform="translate(63.623047 0)"/>
       <use xlink:href="#DejaVuSans-30" transform="translate(95.410156 0)"/>
      </g>
     </g>
    </g>
    <g id="text_13">
     <!-- Reward -->
     <g transform="translate(17.982812 199.978594) rotate(-90) scale(0.1 -0.1)">
      <defs>
       <path id="DejaVuSans-52" d="M 2841 2188 
Q 3044 2119 3236 1894 
Q 3428 1669 3622 1275 
L 4263 0 
L 3584 0 
L 2988 1197 
Q 2756 1666 2539 1819 
Q 2322 1972 1947 1972 
L 1259 1972 
L 1259 0 
L 628 0 
L 628 4666 
L 2053 4666 
Q 2853 4666 3247 4331 
Q 3641 3997 3641 3322 
Q 3641 2881 3436 2590 
Q 3231 2300 2841 2188 
z
M 1259 4147 
L 1259 2491 
L 2053 2491 
Q 2509 2491 2742 2702 
Q 2975 2913 2975 3322 
Q 2975 3731 2742 3939 
Q 2509 4147 2053 4147 
L 1259 4147 
z
" transform="scale(0.015625)"/>
       <path id="DejaVuSans-65" d="M 3597 1894 
L 3597 1613 
L 953 1613 
Q 991 1019 1311 708 
Q 1631 397 2203 397 
Q 2534 397 2845 478 
Q 3156 559 3463 722 
L 3463 178 
Q 3153 47 2828 -22 
Q 2503 -91 2169 -91 
Q 1331 -91 842 396 
Q 353 884 353 1716 
Q 353 2575 817 3079 
Q 1281 3584 2069 3584 
Q 2775 3584 3186 3129 
Q 3597 2675 3597 1894 
z
M 3022 2063 
Q 3016 2534 2758 2815 
Q 2500 3097 2075 3097 
Q 1594 3097 1305 2825 
Q 1016 2553 972 2059 
L 3022 2063 
z
" transform="scale(0.015625)"/>
       <path id="DejaVuSans-77" d="M 269 3500 
L 844 3500 
L 1563 769 
L 2278 3500 
L 2956 3500 
L 3675 769 
L 4391 3500 
L 4966 3500 
L 4050 0 
L 3372 0 
L 2619 2869 
L 1863 0 
L 1184 0 
L 269 3500 
z
" transform="scale(0.015625)"/>
       <path id="DejaVuSans-61" d="M 2194 1759 
Q 1497 1759 1228 1600 
Q 959 1441 959 1056 
Q 959 750 1161 570 
Q 1363 391 1709 391 
Q 2188 391 2477 730 
Q 2766 1069 2766 1631 
L 2766 1759 
L 2194 1759 
z
M 3341 1997 
L 3341 0 
L 2766 0 
L 2766 531 
Q 2569 213 2275 61 
Q 1981 -91 1556 -91 
Q 1019 -91 701 211 
Q 384 513 384 1019 
Q 384 1609 779 1909 
Q 1175 2209 1959 2209 
L 2766 2209 
L 2766 2266 
Q 2766 2663 2505 2880 
Q 2244 3097 1772 3097 
Q 1472 3097 1187 3025 
Q 903 2953 641 2809 
L 641 3341 
Q 956 3463 1253 3523 
Q 1550 3584 1831 3584 
Q 2591 3584 2966 3190 
Q 3341 2797 3341 1997 
z
" transform="scale(0.015625)"/>
       <path id="DejaVuSans-72" d="M 2631 2963 
Q 2534 3019 2420 3045 
Q 2306 3072 2169 3072 
Q 1681 3072 1420 2755 
Q 1159 2438 1159 1844 
L 1159 0 
L 581 0 
L 581 3500 
L 1159 3500 
L 1159 2956 
Q 1341 3275 1631 3429 
Q 1922 3584 2338 3584 
Q 2397 3584 2469 3576 
Q 2541 3569 2628 3553 
L 2631 2963 
z
" transform="scale(0.015625)"/>
       <path id="DejaVuSans-64" d="M 2906 2969 
L 2906 4863 
L 3481 4863 
L 3481 0 
L 2906 0 
L 2906 525 
Q 2725 213 2448 61 
Q 2172 -91 1784 -91 
Q 1150 -91 751 415 
Q 353 922 353 1747 
Q 353 2572 751 3078 
Q 1150 3584 1784 3584 
Q 2172 3584 2448 3432 
Q 2725 3281 2906 2969 
z
M 947 1747 
Q 947 1113 1208 752 
Q 1469 391 1925 391 
Q 2381 391 2643 752 
Q 2906 1113 2906 1747 
Q 2906 2381 2643 2742 
Q 2381 3103 1925 3103 
Q 1469 3103 1208 2742 
Q 947 2381 947 1747 
z
" transform="scale(0.015625)"/>
      </defs>
      <use xlink:href="#DejaVuSans-52"/>
      <use xlink:href="#DejaVuSans-65" transform="translate(64.982422 0)"/>
      <use xlink:href="#DejaVuSans-77" transform="translate(126.505859 0)"/>
      <use xlink:href="#DejaVuSans-61" transform="translate(208.292969 0)"/>
      <use xlink:href="#DejaVuSans-72" transform="translate(269.572266 0)"/>
      <use xlink:href="#DejaVuSans-64" transform="translate(308.935547 0)"/>
     </g>
    </g>
   </g>
   <g id="line2d_25">
    <path d="M 62.665651 285.517917 
L 69.073825 284.527371 
L 75.481998 285.517917 
L 81.890172 284.527371 
L 88.298346 283.889134 
L 94.70652 285.517917 
L 101.114694 285.517917 
L 107.522867 284.527371 
L 113.931041 282.505434 
L 120.339215 254.022155 
L 126.747389 241.525457 
L 133.155563 225.633336 
L 139.563737 208.017971 
L 145.97191 201.301154 
L 152.380084 196.076114 
L 158.788258 162.133771 
L 165.196432 157.211681 
L 171.604606 145.825519 
L 178.012779 150.722079 
L 184.420953 169.940699 
L 190.829127 139.392082 
L 197.237301 123.67101 
L 203.645475 116.900584 
L 210.053648 106.39264 
L 216.461822 102.062833 
L 222.869996 97.595168 
L 229.27817 105.63186 
L 235.686344 98.396795 
L 242.094517 92.841574 
L 248.502691 92.530114 
L 254.910865 240.688091 
L 261.319039 145.891904 
L 267.727213 114.240412 
L 274.135386 106.086289 
L 280.54356 97.916841 
L 286.951734 103.640559 
L 293.359908 95.032008 
L 299.768082 92.382044 
L 306.176255 96.277847 
L 312.584429 96.288059 
L 318.992603 98.299785 
L 325.400777 105.121271 
L 331.808951 86.520467 
L 338.217125 89.584009 
L 344.625298 94.552052 
L 351.033472 90.564342 
L 357.441646 99.831556 
L 363.84982 98.309996 
L 370.257994 87.148493 
L 376.666167 94.628641 
" clip-path="url(#p7042091a8c)" style="fill: none; stroke: #2563eb; stroke-width: 2.2; stroke-linecap: square"/>
   </g>
   <g id="patch_3">
    <path d="M 46.965625 291.645 
L 46.965625 71.07 
" style="fill: none; stroke: #000000; stroke-width: 0.8; stroke-linejoin: miter; stroke-linecap: square"/>
   </g>
   <g id="patch_4">
    <path d="M 392.366193 291.645 
L 392.366193 71.07 
" style="fill: none; stroke: #000000; stroke-width: 0.8; stroke-linejoin: miter; stroke-linecap: square"/>
   </g>
   <g id="patch_5">
    <path d="M 46.965625 291.645 
L 392.366193 291.645 
" style="fill: none; stroke: #000000; stroke-width: 0.8; stroke-linejoin: miter; stroke-linecap: square"/>
   </g>
   <g id="patch_6">
    <path d="M 46.965625 71.07 
L 392.366193 71.07 
" style="fill: none; stroke: #000000; stroke-width: 0.8; stroke-linejoin: miter; stroke-linecap: square"/>
   </g>
   <g id="text_14">
    <!-- Mean Membrane Reward -->
    <g transform="translate(138.776456 65.07) scale(0.13 -0.13)">
     <defs>
      <path id="DejaVuSans-4d" d="M 628 4666 
L 1569 4666 
L 2759 1491 
L 3956 4666 
L 4897 4666 
L 4897 0 
L 4281 0 
L 4281 4097 
L 3078 897 
L 2444 897 
L 1241 4097 
L 1241 0 
L 628 0 
L 628 4666 
z
" transform="scale(0.015625)"/>
      <path id="DejaVuSans-6e" d="M 3513 2113 
L 3513 0 
L 2938 0 
L 2938 2094 
Q 2938 2591 2744 2837 
Q 2550 3084 2163 3084 
Q 1697 3084 1428 2787 
Q 1159 2491 1159 1978 
L 1159 0 
L 581 0 
L 581 3500 
L 1159 3500 
L 1159 2956 
Q 1366 3272 1645 3428 
Q 1925 3584 2291 3584 
Q 2894 3584 3203 3211 
Q 3513 2838 3513 2113 
z
" transform="scale(0.015625)"/>
      <path id="DejaVuSans-20" transform="scale(0.015625)"/>
      <path id="DejaVuSans-6d" d="M 3328 2828 
Q 3544 3216 3844 3400 
Q 4144 3584 4550 3584 
Q 5097 3584 5394 3201 
Q 5691 2819 5691 2113 
L 5691 0 
L 5113 0 
L 5113 2094 
Q 5113 2597 4934 2840 
Q 4756 3084 4391 3084 
Q 3944 3084 3684 2787 
Q 3425 2491 3425 1978 
L 3425 0 
L 2847 0 
L 2847 2094 
Q 2847 2600 2669 2842 
Q 2491 3084 2119 3084 
Q 1678 3084 1418 2786 
Q 1159 2488 1159 1978 
L 1159 0 
L 581 0 
L 581 3500 
L 1159 3500 
L 1159 2956 
Q 1356 3278 1631 3431 
Q 1906 3584 2284 3584 
Q 2666 3584 2933 3390 
Q 3200 3197 3328 2828 
z
" transform="scale(0.015625)"/>
      <path id="DejaVuSans-62" d="M 3116 1747 
Q 3116 2381 2855 2742 
Q 2594 3103 2138 3103 
Q 1681 3103 1420 2742 
Q 1159 2381 1159 1747 
Q 1159 1113 1420 752 
Q 1681 391 2138 391 
Q 2594 391 2855 752 
Q 3116 1113 3116 1747 
z
M 1159 2969 
Q 1341 3281 1617 3432 
Q 1894 3584 2278 3584 
Q 2916 3584 3314 3078 
Q 3713 2572 3713 1747 
Q 3713 922 3314 415 
Q 2916 -91 2278 -91 
Q 1894 -91 1617 61 
Q 1341 213 1159 525 
L 1159 0 
L 581 0 
L 581 4863 
L 1159 4863 
L 1159 2969 
z
" transform="scale(0.015625)"/>
     </defs>
     <use xlink:href="#DejaVuSans-4d"/>
     <use xlink:href="#DejaVuSans-65" transform="translate(86.279297 0)"/>
     <use xlink:href="#DejaVuSans-61" transform="translate(147.802734 0)"/>
     <use xlink:href="#DejaVuSans-6e" transform="translate(209.082031 0)"/>
     <use xlink:href="#DejaVuSans-20" transform="translate(272.460938 0)"/>
     <use xlink:href="#DejaVuSans-4d" transform="translate(304.248047 0)"/>
     <use xlink:href="#DejaVuSans-65" transform="translate(390.527344 0)"/>
     <use xlink:href="#DejaVuSans-6d" transform="translate(452.050781 0)"/>
     <use xlink:href="#DejaVuSans-62" transform="translate(549.462891 0)"/>
     <use xlink:href="#DejaVuSans-72" transform="translate(612.939453 0)"/>
     <use xlink:href="#DejaVuSans-61" transform="translate(654.052734 0)"/>
     <use xlink:href="#DejaVuSans-6e" transform="translate(715.332031 0)"/>
     <use xlink:href="#DejaVuSans-65" transform="translate(778.710938 0)"/>
     <use xlink:href="#DejaVuSans-20" transform="translate(840.234375 0)"/>
     <use xlink:href="#DejaVuSans-52" transform="translate(872.021484 0)"/>
     <use xlink:href="#DejaVuSans-65" transform="translate(937.003906 0)"/>
     <use xlink:href="#DejaVuSans-77" transform="translate(998.527344 0)"/>
     <use xlink:href="#DejaVuSans-61" transform="translate(1080.314453 0)"/>
     <use xlink:href="#DejaVuSans-72" transform="translate(1141.59375 0)"/>
     <use xlink:href="#DejaVuSans-64" transform="translate(1180.957031 0)"/>
    </g>
   </g>
  </g>
  <g id="axes_2">
   <g id="patch_7">
    <path d="M 432.66875 291.645 
L 778.069318 291.645 
L 778.069318 71.07 
L 432.66875 71.07 
z
" style="fill: #ffffff"/>
   </g>
   <g id="matplotlib.axis_3">
    <g id="xtick_7">
     <g id="line2d_26">
      <path d="M 441.960602 291.645 
L 441.960602 71.07 
" clip-path="url(#p9110e42945)" style="fill: none; stroke: #b0b0b0; stroke-opacity: 0.25; stroke-width: 0.8; stroke-linecap: square"/>
     </g>
     <g id="line2d_27">
      <g>
       <use xlink:href="#me3e9906419" x="441.960602" y="291.645" style="stroke: #000000; stroke-width: 0.8"/>
      </g>
     </g>
     <g id="text_15">
      <!-- 0 -->
      <g transform="translate(438.779352 306.243438) scale(0.1 -0.1)">
       <use xlink:href="#DejaVuSans-30"/>
      </g>
     </g>
    </g>
    <g id="xtick_8">
     <g id="line2d_28">
      <path d="M 506.04234 291.645 
L 506.04234 71.07 
" clip-path="url(#p9110e42945)" style="fill: none; stroke: #b0b0b0; stroke-opacity: 0.25; stroke-width: 0.8; stroke-linecap: square"/>
     </g>
     <g id="line2d_29">
      <g>
       <use xlink:href="#me3e9906419" x="506.04234" y="291.645" style="stroke: #000000; stroke-width: 0.8"/>
      </g>
     </g>
     <g id="text_16">
      <!-- 200 -->
      <g transform="translate(496.49859 306.243438) scale(0.1 -0.1)">
       <use xlink:href="#DejaVuSans-32"/>
       <use xlink:href="#DejaVuSans-30" transform="translate(63.623047 0)"/>
       <use xlink:href="#DejaVuSans-30" transform="translate(127.246094 0)"/>
      </g>
     </g>
    </g>
    <g id="xtick_9">
     <g id="line2d_30">
      <path d="M 570.124078 291.645 
L 570.124078 71.07 
" clip-path="url(#p9110e42945)" style="fill: none; stroke: #b0b0b0; stroke-opacity: 0.25; stroke-width: 0.8; stroke-linecap: square"/>
     </g>
     <g id="line2d_31">
      <g>
       <use xlink:href="#me3e9906419" x="570.124078" y="291.645" style="stroke: #000000; stroke-width: 0.8"/>
      </g>
     </g>
     <g id="text_17">
      <!-- 400 -->
      <g transform="translate(560.580328 306.243438) scale(0.1 -0.1)">
       <use xlink:href="#DejaVuSans-34"/>
       <use xlink:href="#DejaVuSans-30" transform="translate(63.623047 0)"/>
       <use xlink:href="#DejaVuSans-30" transform="translate(127.246094 0)"/>
      </g>
     </g>
    </g>
    <g id="xtick_10">
     <g id="line2d_32">
      <path d="M 634.205816 291.645 
L 634.205816 71.07 
" clip-path="url(#p9110e42945)" style="fill: none; stroke: #b0b0b0; stroke-opacity: 0.25; stroke-width: 0.8; stroke-linecap: square"/>
     </g>
     <g id="line2d_33">
      <g>
       <use xlink:href="#me3e9906419" x="634.205816" y="291.645" style="stroke: #000000; stroke-width: 0.8"/>
      </g>
     </g>
     <g id="text_18">
      <!-- 600 -->
      <g transform="translate(624.662066 306.243438) scale(0.1 -0.1)">
       <use xlink:href="#DejaVuSans-36"/>
       <use xlink:href="#DejaVuSans-30" transform="translate(63.623047 0)"/>
       <use xlink:href="#DejaVuSans-30" transform="translate(127.246094 0)"/>
      </g>
     </g>
    </g>
    <g id="xtick_11">
     <g id="line2d_34">
      <path d="M 698.287554 291.645 
L 698.287554 71.07 
" clip-path="url(#p9110e42945)" style="fill: none; stroke: #b0b0b0; stroke-opacity: 0.25; stroke-width: 0.8; stroke-linecap: square"/>
     </g>
     <g id="line2d_35">
      <g>
       <use xlink:href="#me3e9906419" x="698.287554" y="291.645" style="stroke: #000000; stroke-width: 0.8"/>
      </g>
     </g>
     <g id="text_19">
      <!-- 800 -->
      <g transform="translate(688.743804 306.243438) scale(0.1 -0.1)">
       <use xlink:href="#DejaVuSans-38"/>
       <use xlink:href="#DejaVuSans-30" transform="translate(63.623047 0)"/>
       <use xlink:href="#DejaVuSans-30" transform="translate(127.246094 0)"/>
      </g>
     </g>
    </g>
    <g id="xtick_12">
     <g id="line2d_36">
      <path d="M 762.369292 291.645 
L 762.369292 71.07 
" clip-path="url(#p9110e42945)" style="fill: none; stroke: #b0b0b0; stroke-opacity: 0.25; stroke-width: 0.8; stroke-linecap: square"/>
     </g>
     <g id="line2d_37">
      <g>
       <use xlink:href="#me3e9906419" x="762.369292" y="291.645" style="stroke: #000000; stroke-width: 0.8"/>
      </g>
     </g>
     <g id="text_20">
      <!-- 1000 -->
      <g transform="translate(749.644292 306.243438) scale(0.1 -0.1)">
       <use xlink:href="#DejaVuSans-31"/>
       <use xlink:href="#DejaVuSans-30" transform="translate(63.623047 0)"/>
       <use xlink:href="#DejaVuSans-30" transform="translate(127.246094 0)"/>
       <use xlink:href="#DejaVuSans-30" transform="translate(190.869141 0)"/>
      </g>
     </g>
    </g>
   </g>
   <g id="matplotlib.axis_4">
    <g id="ytick_7">
     <g id="line2d_38">
      <path d="M 432.66875 281.618949 
L 778.069318 281.618949 
" clip-path="url(#p9110e42945)" style="fill: none; stroke: #b0b0b0; stroke-opacity: 0.25; stroke-width: 0.8; stroke-linecap: square"/>
     </g>
     <g id="line2d_39">
      <g>
       <use xlink:href="#mc8ddb3472b" x="432.66875" y="281.618949" style="stroke: #000000; stroke-width: 0.8"/>
      </g>
     </g>
     <g id="text_21">
      <!-- 0.00 -->
      <g transform="translate(403.403125 285.418167) scale(0.1 -0.1)">
       <use xlink:href="#DejaVuSans-30"/>
       <use xlink:href="#DejaVuSans-2e" transform="translate(63.623047 0)"/>
       <use xlink:href="#DejaVuSans-30" transform="translate(95.410156 0)"/>
       <use xlink:href="#DejaVuSans-30" transform="translate(159.033203 0)"/>
      </g>
     </g>
    </g>
    <g id="ytick_8">
     <g id="line2d_40">
      <path d="M 432.66875 256.332658 
L 778.069318 256.332658 
" clip-path="url(#p9110e42945)" style="fill: none; stroke: #b0b0b0; stroke-opacity: 0.25; stroke-width: 0.8; stroke-linecap: square"/>
     </g>
     <g id="line2d_41">
      <g>
       <use xlink:href="#mc8ddb3472b" x="432.66875" y="256.332658" style="stroke: #000000; stroke-width: 0.8"/>
      </g>
     </g>
     <g id="text_22">
      <!-- 0.25 -->
      <g transform="translate(403.403125 260.131877) scale(0.1 -0.1)">
       <defs>
        <path id="DejaVuSans-35" d="M 691 4666 
L 3169 4666 
L 3169 4134 
L 1269 4134 
L 1269 2991 
Q 1406 3038 1543 3061 
Q 1681 3084 1819 3084 
Q 2600 3084 3056 2656 
Q 3513 2228 3513 1497 
Q 3513 744 3044 326 
Q 2575 -91 1722 -91 
Q 1428 -91 1123 -41 
Q 819 9 494 109 
L 494 744 
Q 775 591 1075 516 
Q 1375 441 1709 441 
Q 2250 441 2565 725 
Q 2881 1009 2881 1497 
Q 2881 1984 2565 2268 
Q 2250 2553 1709 2553 
Q 1456 2553 1204 2497 
Q 953 2441 691 2322 
L 691 4666 
z
" transform="scale(0.015625)"/>
       </defs>
       <use xlink:href="#DejaVuSans-30"/>
       <use xlink:href="#DejaVuSans-2e" transform="translate(63.623047 0)"/>
       <use xlink:href="#DejaVuSans-32" transform="translate(95.410156 0)"/>
       <use xlink:href="#DejaVuSans-35" transform="translate(159.033203 0)"/>
      </g>
     </g>
    </g>
    <g id="ytick_9">
     <g id="line2d_42">
      <path d="M 432.66875 231.046368 
L 778.069318 231.046368 
" clip-path="url(#p9110e42945)" style="fill: none; stroke: #b0b0b0; stroke-opacity: 0.25; stroke-width: 0.8; stroke-linecap: square"/>
     </g>
     <g id="line2d_43">
      <g>
       <use xlink:href="#mc8ddb3472b" x="432.66875" y="231.046368" style="stroke: #000000; stroke-width: 0.8"/>
      </g>
     </g>
     <g id="text_23">
      <!-- 0.50 -->
      <g transform="translate(403.403125 234.845587) scale(0.1 -0.1)">
       <use xlink:href="#DejaVuSans-30"/>
       <use xlink:href="#DejaVuSans-2e" transform="translate(63.623047 0)"/>
       <use xlink:href="#DejaVuSans-35" transform="translate(95.410156 0)"/>
       <use xlink:href="#DejaVuSans-30" transform="translate(159.033203 0)"/>
      </g>
     </g>
    </g>
    <g id="ytick_10">
     <g id="line2d_44">
      <path d="M 432.66875 205.760078 
L 778.069318 205.760078 
" clip-path="url(#p9110e42945)" style="fill: none; stroke: #b0b0b0; stroke-opacity: 0.25; stroke-width: 0.8; stroke-linecap: square"/>
     </g>
     <g id="line2d_45">
      <g>
       <use xlink:href="#mc8ddb3472b" x="432.66875" y="205.760078" style="stroke: #000000; stroke-width: 0.8"/>
      </g>
     </g>
     <g id="text_24">
      <!-- 0.75 -->
      <g transform="translate(403.403125 209.559297) scale(0.1 -0.1)">
       <defs>
        <path id="DejaVuSans-37" d="M 525 4666 
L 3525 4666 
L 3525 4397 
L 1831 0 
L 1172 0 
L 2766 4134 
L 525 4134 
L 525 4666 
z
" transform="scale(0.015625)"/>
       </defs>
       <use xlink:href="#DejaVuSans-30"/>
       <use xlink:href="#DejaVuSans-2e" transform="translate(63.623047 0)"/>
       <use xlink:href="#DejaVuSans-37" transform="translate(95.410156 0)"/>
       <use xlink:href="#DejaVuSans-35" transform="translate(159.033203 0)"/>
      </g>
     </g>
    </g>
    <g id="ytick_11">
     <g id="line2d_46">
      <path d="M 432.66875 180.473788 
L 778.069318 180.473788 
" clip-path="url(#p9110e42945)" style="fill: none; stroke: #b0b0b0; stroke-opacity: 0.25; stroke-width: 0.8; stroke-linecap: square"/>
     </g>
     <g id="line2d_47">
      <g>
       <use xlink:href="#mc8ddb3472b" x="432.66875" y="180.473788" style="stroke: #000000; stroke-width: 0.8"/>
      </g>
     </g>
     <g id="text_25">
      <!-- 1.00 -->
      <g transform="translate(403.403125 184.273007) scale(0.1 -0.1)">
       <use xlink:href="#DejaVuSans-31"/>
       <use xlink:href="#DejaVuSans-2e" transform="translate(63.623047 0)"/>
       <use xlink:href="#DejaVuSans-30" transform="translate(95.410156 0)"/>
       <use xlink:href="#DejaVuSans-30" transform="translate(159.033203 0)"/>
      </g>
     </g>
    </g>
    <g id="ytick_12">
     <g id="line2d_48">
      <path d="M 432.66875 155.187498 
L 778.069318 155.187498 
" clip-path="url(#p9110e42945)" style="fill: none; stroke: #b0b0b0; stroke-opacity: 0.25; stroke-width: 0.8; stroke-linecap: square"/>
     </g>
     <g id="line2d_49">
      <g>
       <use xlink:href="#mc8ddb3472b" x="432.66875" y="155.187498" style="stroke: #000000; stroke-width: 0.8"/>
      </g>
     </g>
     <g id="text_26">
      <!-- 1.25 -->
      <g transform="translate(403.403125 158.986717) scale(0.1 -0.1)">
       <use xlink:href="#DejaVuSans-31"/>
       <use xlink:href="#DejaVuSans-2e" transform="translate(63.623047 0)"/>
       <use xlink:href="#DejaVuSans-32" transform="translate(95.410156 0)"/>
       <use xlink:href="#DejaVuSans-35" transform="translate(159.033203 0)"/>
      </g>
     </g>
    </g>
    <g id="ytick_13">
     <g id="line2d_50">
      <path d="M 432.66875 129.901208 
L 778.069318 129.901208 
" clip-path="url(#p9110e42945)" style="fill: none; stroke: #b0b0b0; stroke-opacity: 0.25; stroke-width: 0.8; stroke-linecap: square"/>
     </g>
     <g id="line2d_51">
      <g>
       <use xlink:href="#mc8ddb3472b" x="432.66875" y="129.901208" style="stroke: #000000; stroke-width: 0.8"/>
      </g>
     </g>
     <g id="text_27">
      <!-- 1.50 -->
      <g transform="translate(403.403125 133.700427) scale(0.1 -0.1)">
       <use xlink:href="#DejaVuSans-31"/>
       <use xlink:href="#DejaVuSans-2e" transform="translate(63.623047 0)"/>
       <use xlink:href="#DejaVuSans-35" transform="translate(95.410156 0)"/>
       <use xlink:href="#DejaVuSans-30" transform="translate(159.033203 0)"/>
      </g>
     </g>
    </g>
    <g id="ytick_14">
     <g id="line2d_52">
      <path d="M 432.66875 104.614918 
L 778.069318 104.614918 
" clip-path="url(#p9110e42945)" style="fill: none; stroke: #b0b0b0; stroke-opacity: 0.25; stroke-width: 0.8; stroke-linecap: square"/>
     </g>
     <g id="line2d_53">
      <g>
       <use xlink:href="#mc8ddb3472b" x="432.66875" y="104.614918" style="stroke: #000000; stroke-width: 0.8"/>
      </g>
     </g>
     <g id="text_28">
      <!-- 1.75 -->
      <g transform="translate(403.403125 108.414137) scale(0.1 -0.1)">
       <use xlink:href="#DejaVuSans-31"/>
       <use xlink:href="#DejaVuSans-2e" transform="translate(63.623047 0)"/>
       <use xlink:href="#DejaVuSans-37" transform="translate(95.410156 0)"/>
       <use xlink:href="#DejaVuSans-35" transform="translate(159.033203 0)"/>
      </g>
     </g>
    </g>
    <g id="ytick_15">
     <g id="line2d_54">
      <path d="M 432.66875 79.328628 
L 778.069318 79.328628 
" clip-path="url(#p9110e42945)" style="fill: none; stroke: #b0b0b0; stroke-opacity: 0.25; stroke-width: 0.8; stroke-linecap: square"/>
     </g>
     <g id="line2d_55">
      <g>
       <use xlink:href="#mc8ddb3472b" x="432.66875" y="79.328628" style="stroke: #000000; stroke-width: 0.8"/>
      </g>
     </g>
     <g id="text_29">
      <!-- 2.00 -->
      <g transform="translate(403.403125 83.127847) scale(0.1 -0.1)">
       <use xlink:href="#DejaVuSans-32"/>
       <use xlink:href="#DejaVuSans-2e" transform="translate(63.623047 0)"/>
       <use xlink:href="#DejaVuSans-30" transform="translate(95.410156 0)"/>
       <use xlink:href="#DejaVuSans-30" transform="translate(159.033203 0)"/>
      </g>
     </g>
    </g>
   </g>
   <g id="line2d_56">
    <path d="M 448.368776 281.488627 
L 454.77695 278.19774 
L 461.185123 281.53401 
L 467.593297 281.388996 
L 474.001471 281.144544 
L 480.409645 280.73198 
L 486.817819 280.559867 
L 493.225992 281.030748 
L 499.634166 280.620245 
L 506.04234 278.979081 
L 512.450514 252.147462 
L 518.858688 105.323503 
L 525.266862 81.096136 
L 531.675035 226.046936 
L 538.083209 163.164175 
L 544.491383 253.668643 
L 550.899557 164.252975 
L 557.307731 94.274094 
L 563.715904 100.566938 
L 570.124078 183.416305 
L 576.532252 263.879739 
L 582.940426 266.921076 
L 589.3486 253.459575 
L 595.756773 264.775102 
L 602.164947 253.698462 
L 608.573121 260.528416 
L 614.981295 247.455897 
L 621.389469 257.54324 
L 627.797642 257.376588 
L 634.205816 256.111321 
L 640.61399 255.012273 
L 647.022164 254.621945 
L 653.430338 252.643552 
L 659.838511 255.839566 
L 666.246685 251.542938 
L 672.654859 252.712774 
L 679.063033 252.006539 
L 685.471207 251.768031 
L 691.87938 253.573202 
L 698.287554 253.704202 
L 704.695728 243.540302 
L 711.103902 246.564418 
L 717.512076 250.059461 
L 723.92025 254.163703 
L 730.328423 250.274666 
L 736.736597 160.949634 
L 743.144771 247.523727 
L 749.552945 118.572101 
L 755.961119 250.595485 
L 762.369292 252.093526 
" clip-path="url(#p9110e42945)" style="fill: none; stroke: #7c3aed; stroke-width: 2; stroke-linecap: square"/>
   </g>
   <g id="line2d_57">
    <path d="M 448.368776 281.618818 
L 454.77695 281.615527 
L 461.185123 281.618864 
L 467.593297 281.618719 
L 474.001471 281.618474 
L 480.409645 281.618062 
L 486.817819 281.617889 
L 493.225992 281.618361 
L 499.634166 281.61795 
L 506.04234 281.616309 
L 512.450514 281.589481 
L 518.858688 281.442656 
L 525.266862 281.418426 
L 531.675035 281.563376 
L 538.083209 281.500494 
L 544.491383 281.590996 
L 550.899557 281.501582 
L 557.307731 281.431603 
L 563.715904 281.437894 
L 570.124078 281.520747 
L 576.532252 281.601207 
L 582.940426 281.60425 
L 589.3486 281.59079 
L 595.756773 281.602109 
L 602.164947 281.591028 
L 608.573121 281.597857 
L 614.981295 281.584787 
L 621.389469 281.594873 
L 627.797642 281.594706 
L 634.205816 281.593443 
L 640.61399 281.592342 
L 647.022164 281.591954 
L 653.430338 281.589976 
L 659.838511 281.593181 
L 666.246685 281.588873 
L 672.654859 281.590048 
L 679.063033 281.589343 
L 685.471207 281.589103 
L 691.87938 281.590906 
L 698.287554 281.591039 
L 704.695728 281.580874 
L 711.103902 281.5839 
L 717.512076 281.587388 
L 723.92025 281.591497 
L 730.328423 281.587608 
L 736.736597 281.498282 
L 743.144771 281.584856 
L 749.552945 281.455904 
L 755.961119 281.587926 
L 762.369292 281.589425 
" clip-path="url(#p9110e42945)" style="fill: none; stroke: #dc2626; stroke-opacity: 0.8; stroke-width: 1.8; stroke-linecap: square"/>
   </g>
   <g id="patch_8">
    <path d="M 432.66875 291.645 
L 432.66875 71.07 
" style="fill: none; stroke: #000000; stroke-width: 0.8; stroke-linejoin: miter; stroke-linecap: square"/>
   </g>
   <g id="patch_9">
    <path d="M 778.069318 291.645 
L 778.069318 71.07 
" style="fill: none; stroke: #000000; stroke-width: 0.8; stroke-linejoin: miter; stroke-linecap: square"/>
   </g>
   <g id="patch_10">
    <path d="M 432.66875 291.645 
L 778.069318 291.645 
" style="fill: none; stroke: #000000; stroke-width: 0.8; stroke-linejoin: miter; stroke-linecap: square"/>
   </g>
   <g id="patch_11">
    <path d="M 432.66875 71.07 
L 778.069318 71.07 
" style="fill: none; stroke: #000000; stroke-width: 0.8; stroke-linejoin: miter; stroke-linecap: square"/>
   </g>
   <g id="text_30">
    <!-- Loss and KL -->
    <g transform="translate(566.86669 65.07) scale(0.13 -0.13)">
     <defs>
      <path id="DejaVuSans-4c" d="M 628 4666 
L 1259 4666 
L 1259 531 
L 3531 531 
L 3531 0 
L 628 0 
L 628 4666 
z
" transform="scale(0.015625)"/>
      <path id="DejaVuSans-6f" d="M 1959 3097 
Q 1497 3097 1228 2736 
Q 959 2375 959 1747 
Q 959 1119 1226 758 
Q 1494 397 1959 397 
Q 2419 397 2687 759 
Q 2956 1122 2956 1747 
Q 2956 2369 2687 2733 
Q 2419 3097 1959 3097 
z
M 1959 3584 
Q 2709 3584 3137 3096 
Q 3566 2609 3566 1747 
Q 3566 888 3137 398 
Q 2709 -91 1959 -91 
Q 1206 -91 779 398 
Q 353 888 353 1747 
Q 353 2609 779 3096 
Q 1206 3584 1959 3584 
z
" transform="scale(0.015625)"/>
      <path id="DejaVuSans-73" d="M 2834 3397 
L 2834 2853 
Q 2591 2978 2328 3040 
Q 2066 3103 1784 3103 
Q 1356 3103 1142 2972 
Q 928 2841 928 2578 
Q 928 2378 1081 2264 
Q 1234 2150 1697 2047 
L 1894 2003 
Q 2506 1872 2764 1633 
Q 3022 1394 3022 966 
Q 3022 478 2636 193 
Q 2250 -91 1575 -91 
Q 1294 -91 989 -36 
Q 684 19 347 128 
L 347 722 
Q 666 556 975 473 
Q 1284 391 1588 391 
Q 1994 391 2212 530 
Q 2431 669 2431 922 
Q 2431 1156 2273 1281 
Q 2116 1406 1581 1522 
L 1381 1569 
Q 847 1681 609 1914 
Q 372 2147 372 2553 
Q 372 3047 722 3315 
Q 1072 3584 1716 3584 
Q 2034 3584 2315 3537 
Q 2597 3491 2834 3397 
z
" transform="scale(0.015625)"/>
      <path id="DejaVuSans-4b" d="M 628 4666 
L 1259 4666 
L 1259 2694 
L 3353 4666 
L 4166 4666 
L 1850 2491 
L 4331 0 
L 3500 0 
L 1259 2247 
L 1259 0 
L 628 0 
L 628 4666 
z
" transform="scale(0.015625)"/>
     </defs>
     <use xlink:href="#DejaVuSans-4c"/>
     <use xlink:href="#DejaVuSans-6f" transform="translate(53.962891 0)"/>
     <use xlink:href="#DejaVuSans-73" transform="translate(115.144531 0)"/>
     <use xlink:href="#DejaVuSans-73" transform="translate(167.244141 0)"/>
     <use xlink:href="#DejaVuSans-20" transform="translate(219.34375 0)"/>
     <use xlink:href="#DejaVuSans-61" transform="translate(251.130859 0)"/>
     <use xlink:href="#DejaVuSans-6e" transform="translate(312.410156 0)"/>
     <use xlink:href="#DejaVuSans-64" transform="translate(375.789062 0)"/>
     <use xlink:href="#DejaVuSans-20" transform="translate(439.265625 0)"/>
     <use xlink:href="#DejaVuSans-4b" transform="translate(471.052734 0)"/>
     <use xlink:href="#DejaVuSans-4c" transform="translate(536.628906 0)"/>
    </g>
   </g>
   <g id="legend_1">
    <g id="patch_12">
     <path d="M 723.228381 104.690625 
L 771.769318 104.690625 
Q 773.569318 104.690625 773.569318 102.890625 
L 773.569318 77.37 
Q 773.569318 75.57 771.769318 75.57 
L 723.228381 75.57 
Q 721.428381 75.57 721.428381 77.37 
L 721.428381 102.890625 
Q 721.428381 104.690625 723.228381 104.690625 
z
" style="fill: #ffffff; opacity: 0.8; stroke: #cccccc; stroke-linejoin: miter"/>
    </g>
    <g id="line2d_58">
     <path d="M 725.028381 82.858594 
L 734.028381 82.858594 
L 743.028381 82.858594 
" style="fill: none; stroke: #7c3aed; stroke-width: 2; stroke-linecap: square"/>
    </g>
    <g id="text_31">
     <!-- KL -->
     <g transform="translate(750.228381 86.008594) scale(0.09 -0.09)">
      <use xlink:href="#DejaVuSans-4b"/>
      <use xlink:href="#DejaVuSans-4c" transform="translate(65.576172 0)"/>
     </g>
    </g>
    <g id="line2d_59">
     <path d="M 725.028381 96.068906 
L 734.028381 96.068906 
L 743.028381 96.068906 
" style="fill: none; stroke: #dc2626; stroke-opacity: 0.8; stroke-width: 1.8; stroke-linecap: square"/>
    </g>
    <g id="text_32">
     <!-- Loss -->
     <g transform="translate(750.228381 99.218906) scale(0.09 -0.09)">
      <use xlink:href="#DejaVuSans-4c"/>
      <use xlink:href="#DejaVuSans-6f" transform="translate(53.962891 0)"/>
      <use xlink:href="#DejaVuSans-73" transform="translate(115.144531 0)"/>
      <use xlink:href="#DejaVuSans-73" transform="translate(167.244141 0)"/>
     </g>
    </g>
   </g>
  </g>
  <g id="axes_3">
   <g id="patch_13">
    <path d="M 46.965625 554.92 
L 392.366193 554.92 
L 392.366193 334.345 
L 46.965625 334.345 
z
" style="fill: #ffffff"/>
   </g>
   <g id="FillBetweenPolyCollection_2">
    <defs>
     <path id="m64129d9f19" d="M 62.665651 -212.662706 
L 62.665651 -95.791683 
L 69.073825 -115.48191 
L 75.481998 -110.337044 
L 81.890172 -102.016335 
L 88.298346 -109.701876 
L 94.70652 -106.462516 
L 101.114694 -98.967526 
L 107.522867 -113.322337 
L 113.931041 -109.384291 
L 120.339215 -50.059544 
L 126.747389 -47.772937 
L 133.155563 -72.671546 
L 139.563737 -75.21222 
L 145.97191 -68.415916 
L 152.380084 -58.697837 
L 158.788258 -63.779186 
L 165.196432 -75.720355 
L 171.604606 -75.402771 
L 178.012779 -67.399647 
L 184.420953 -79.2773 
L 190.829127 -66.065793 
L 197.237301 -62.127747 
L 203.645475 -54.696275 
L 210.053648 -53.807039 
L 216.461822 -51.329881 
L 222.869996 -56.538264 
L 229.27817 -51.710982 
L 235.686344 -50.821746 
L 242.094517 -57.236949 
L 248.502691 -55.267926 
L 254.910865 -56.855848 
L 261.319039 -55.20441 
L 267.727213 -54.18814 
L 274.135386 -55.839578 
L 280.54356 -55.903095 
L 286.951734 -54.061106 
L 293.359908 -53.743522 
L 299.768082 -52.282634 
L 306.176255 -52.092083 
L 312.584429 -56.919365 
L 318.992603 -59.205972 
L 325.400777 -55.267926 
L 331.808951 -54.886825 
L 338.217125 -54.251657 
L 344.625298 -55.077376 
L 351.033472 -51.901533 
L 357.441646 -53.298904 
L 363.84982 -47.582386 
L 370.257994 -58.316736 
L 376.666167 -51.838016 
L 376.666167 -93.949694 
L 376.666167 -93.949694 
L 370.257994 -107.224718 
L 363.84982 -94.64838 
L 357.441646 -111.03573 
L 351.033472 -98.395874 
L 344.625298 -107.097684 
L 338.217125 -98.07829 
L 331.808951 -112.433101 
L 325.400777 -108.113954 
L 318.992603 -131.424642 
L 312.584429 -106.653066 
L 306.176255 -106.081414 
L 299.768082 -99.793245 
L 293.359908 -96.680919 
L 286.951734 -94.076728 
L 280.54356 -108.240988 
L 274.135386 -90.900885 
L 267.727213 -105.192178 
L 261.319039 -101.127099 
L 254.910865 -99.158077 
L 248.502691 -107.732853 
L 242.094517 -101.508201 
L 235.686344 -91.917155 
L 229.27817 -106.462516 
L 222.869996 -111.988482 
L 216.461822 -115.799494 
L 210.053648 -114.46564 
L 203.645475 -114.719707 
L 197.237301 -126.660877 
L 190.829127 -127.740664 
L 184.420953 -145.144283 
L 178.012779 -159.308543 
L 171.604606 -143.302295 
L 165.196432 -144.699665 
L 158.788258 -138.665564 
L 152.380084 -161.087015 
L 145.97191 -162.738454 
L 139.563737 -164.770993 
L 133.155563 -179.633938 
L 126.747389 -136.378957 
L 120.339215 -201.801323 
L 113.931041 -212.154571 
L 107.522867 -197.672727 
L 101.114694 -248.105114 
L 94.70652 -232.988101 
L 88.298346 -236.100427 
L 81.890172 -220.157695 
L 75.481998 -215.393931 
L 69.073825 -202.754076 
L 62.665651 -212.662706 
z
" style="stroke: #64748b; stroke-opacity: 0.12"/>
    </defs>
    <g clip-path="url(#p80faacfb92)">
     <use xlink:href="#m64129d9f19" x="0" y="592.47625" style="fill: #64748b; fill-opacity: 0.12; stroke: #64748b; stroke-opacity: 0.12"/>
    </g>
   </g>
   <g id="matplotlib.axis_5">
    <g id="xtick_13">
     <g id="line2d_60">
      <path d="M 56.257477 554.92 
L 56.257477 334.345 
" clip-path="url(#p80faacfb92)" style="fill: none; stroke: #b0b0b0; stroke-opacity: 0.25; stroke-width: 0.8; stroke-linecap: square"/>
     </g>
     <g id="line2d_61">
      <g>
       <use xlink:href="#me3e9906419" x="56.257477" y="554.92" style="stroke: #000000; stroke-width: 0.8"/>
      </g>
     </g>
     <g id="text_33">
      <!-- 0 -->
      <g transform="translate(53.076227 569.518438) scale(0.1 -0.1)">
       <use xlink:href="#DejaVuSans-30"/>
      </g>
     </g>
    </g>
    <g id="xtick_14">
     <g id="line2d_62">
      <path d="M 120.339215 554.92 
L 120.339215 334.345 
" clip-path="url(#p80faacfb92)" style="fill: none; stroke: #b0b0b0; stroke-opacity: 0.25; stroke-width: 0.8; stroke-linecap: square"/>
     </g>
     <g id="line2d_63">
      <g>
       <use xlink:href="#me3e9906419" x="120.339215" y="554.92" style="stroke: #000000; stroke-width: 0.8"/>
      </g>
     </g>
     <g id="text_34">
      <!-- 200 -->
      <g transform="translate(110.795465 569.518438) scale(0.1 -0.1)">
       <use xlink:href="#DejaVuSans-32"/>
       <use xlink:href="#DejaVuSans-30" transform="translate(63.623047 0)"/>
       <use xlink:href="#DejaVuSans-30" transform="translate(127.246094 0)"/>
      </g>
     </g>
    </g>
    <g id="xtick_15">
     <g id="line2d_64">
      <path d="M 184.420953 554.92 
L 184.420953 334.345 
" clip-path="url(#p80faacfb92)" style="fill: none; stroke: #b0b0b0; stroke-opacity: 0.25; stroke-width: 0.8; stroke-linecap: square"/>
     </g>
     <g id="line2d_65">
      <g>
       <use xlink:href="#me3e9906419" x="184.420953" y="554.92" style="stroke: #000000; stroke-width: 0.8"/>
      </g>
     </g>
     <g id="text_35">
      <!-- 400 -->
      <g transform="translate(174.877203 569.518438) scale(0.1 -0.1)">
       <use xlink:href="#DejaVuSans-34"/>
       <use xlink:href="#DejaVuSans-30" transform="translate(63.623047 0)"/>
       <use xlink:href="#DejaVuSans-30" transform="translate(127.246094 0)"/>
      </g>
     </g>
    </g>
    <g id="xtick_16">
     <g id="line2d_66">
      <path d="M 248.502691 554.92 
L 248.502691 334.345 
" clip-path="url(#p80faacfb92)" style="fill: none; stroke: #b0b0b0; stroke-opacity: 0.25; stroke-width: 0.8; stroke-linecap: square"/>
     </g>
     <g id="line2d_67">
      <g>
       <use xlink:href="#me3e9906419" x="248.502691" y="554.92" style="stroke: #000000; stroke-width: 0.8"/>
      </g>
     </g>
     <g id="text_36">
      <!-- 600 -->
      <g transform="translate(238.958941 569.518438) scale(0.1 -0.1)">
       <use xlink:href="#DejaVuSans-36"/>
       <use xlink:href="#DejaVuSans-30" transform="translate(63.623047 0)"/>
       <use xlink:href="#DejaVuSans-30" transform="translate(127.246094 0)"/>
      </g>
     </g>
    </g>
    <g id="xtick_17">
     <g id="line2d_68">
      <path d="M 312.584429 554.92 
L 312.584429 334.345 
" clip-path="url(#p80faacfb92)" style="fill: none; stroke: #b0b0b0; stroke-opacity: 0.25; stroke-width: 0.8; stroke-linecap: square"/>
     </g>
     <g id="line2d_69">
      <g>
       <use xlink:href="#me3e9906419" x="312.584429" y="554.92" style="stroke: #000000; stroke-width: 0.8"/>
      </g>
     </g>
     <g id="text_37">
      <!-- 800 -->
      <g transform="translate(303.040679 569.518438) scale(0.1 -0.1)">
       <use xlink:href="#DejaVuSans-38"/>
       <use xlink:href="#DejaVuSans-30" transform="translate(63.623047 0)"/>
       <use xlink:href="#DejaVuSans-30" transform="translate(127.246094 0)"/>
      </g>
     </g>
    </g>
    <g id="xtick_18">
     <g id="line2d_70">
      <path d="M 376.666167 554.92 
L 376.666167 334.345 
" clip-path="url(#p80faacfb92)" style="fill: none; stroke: #b0b0b0; stroke-opacity: 0.25; stroke-width: 0.8; stroke-linecap: square"/>
     </g>
     <g id="line2d_71">
      <g>
       <use xlink:href="#me3e9906419" x="376.666167" y="554.92" style="stroke: #000000; stroke-width: 0.8"/>
      </g>
     </g>
     <g id="text_38">
      <!-- 1000 -->
      <g transform="translate(363.941167 569.518438) scale(0.1 -0.1)">
       <use xlink:href="#DejaVuSans-31"/>
       <use xlink:href="#DejaVuSans-30" transform="translate(63.623047 0)"/>
       <use xlink:href="#DejaVuSans-30" transform="translate(127.246094 0)"/>
       <use xlink:href="#DejaVuSans-30" transform="translate(190.869141 0)"/>
      </g>
     </g>
    </g>
    <g id="text_39">
     <!-- Step -->
     <g transform="translate(208.280753 583.196563) scale(0.1 -0.1)">
      <defs>
       <path id="DejaVuSans-53" d="M 3425 4513 
L 3425 3897 
Q 3066 4069 2747 4153 
Q 2428 4238 2131 4238 
Q 1616 4238 1336 4038 
Q 1056 3838 1056 3469 
Q 1056 3159 1242 3001 
Q 1428 2844 1947 2747 
L 2328 2669 
Q 3034 2534 3370 2195 
Q 3706 1856 3706 1288 
Q 3706 609 3251 259 
Q 2797 -91 1919 -91 
Q 1588 -91 1214 -16 
Q 841 59 441 206 
L 441 856 
Q 825 641 1194 531 
Q 1563 422 1919 422 
Q 2459 422 2753 634 
Q 3047 847 3047 1241 
Q 3047 1584 2836 1778 
Q 2625 1972 2144 2069 
L 1759 2144 
Q 1053 2284 737 2584 
Q 422 2884 422 3419 
Q 422 4038 858 4394 
Q 1294 4750 2059 4750 
Q 2388 4750 2728 4690 
Q 3069 4631 3425 4513 
z
" transform="scale(0.015625)"/>
       <path id="DejaVuSans-74" d="M 1172 4494 
L 1172 3500 
L 2356 3500 
L 2356 3053 
L 1172 3053 
L 1172 1153 
Q 1172 725 1289 603 
Q 1406 481 1766 481 
L 2356 481 
L 2356 0 
L 1766 0 
Q 1100 0 847 248 
Q 594 497 594 1153 
L 594 3053 
L 172 3053 
L 172 3500 
L 594 3500 
L 594 4494 
L 1172 4494 
z
" transform="scale(0.015625)"/>
       <path id="DejaVuSans-70" d="M 1159 525 
L 1159 -1331 
L 581 -1331 
L 581 3500 
L 1159 3500 
L 1159 2969 
Q 1341 3281 1617 3432 
Q 1894 3584 2278 3584 
Q 2916 3584 3314 3078 
Q 3713 2572 3713 1747 
Q 3713 922 3314 415 
Q 2916 -91 2278 -91 
Q 1894 -91 1617 61 
Q 1341 213 1159 525 
z
M 3116 1747 
Q 3116 2381 2855 2742 
Q 2594 3103 2138 3103 
Q 1681 3103 1420 2742 
Q 1159 2381 1159 1747 
Q 1159 1113 1420 752 
Q 1681 391 2138 391 
Q 2594 391 2855 752 
Q 3116 1113 3116 1747 
z
" transform="scale(0.015625)"/>
      </defs>
      <use xlink:href="#DejaVuSans-53"/>
      <use xlink:href="#DejaVuSans-74" transform="translate(63.476562 0)"/>
      <use xlink:href="#DejaVuSans-65" transform="translate(102.685547 0)"/>
      <use xlink:href="#DejaVuSans-70" transform="translate(164.208984 0)"/>
     </g>
    </g>
   </g>
   <g id="matplotlib.axis_6">
    <g id="ytick_16">
     <g id="line2d_72">
      <path d="M 46.965625 529.522783 
L 392.366193 529.522783 
" clip-path="url(#p80faacfb92)" style="fill: none; stroke: #b0b0b0; stroke-opacity: 0.25; stroke-width: 0.8; stroke-linecap: square"/>
     </g>
     <g id="line2d_73">
      <g>
       <use xlink:href="#mc8ddb3472b" x="46.965625" y="529.522783" style="stroke: #000000; stroke-width: 0.8"/>
      </g>
     </g>
     <g id="text_40">
      <!-- 60 -->
      <g transform="translate(27.240625 533.322002) scale(0.1 -0.1)">
       <use xlink:href="#DejaVuSans-36"/>
       <use xlink:href="#DejaVuSans-30" transform="translate(63.623047 0)"/>
      </g>
     </g>
    </g>
    <g id="ytick_17">
     <g id="line2d_74">
      <path d="M 46.965625 504.116039 
L 392.366193 504.116039 
" clip-path="url(#p80faacfb92)" style="fill: none; stroke: #b0b0b0; stroke-opacity: 0.25; stroke-width: 0.8; stroke-linecap: square"/>
     </g>
     <g id="line2d_75">
      <g>
       <use xlink:href="#mc8ddb3472b" x="46.965625" y="504.116039" style="stroke: #000000; stroke-width: 0.8"/>
      </g>
     </g>
     <g id="text_41">
      <!-- 80 -->
      <g transform="translate(27.240625 507.915258) scale(0.1 -0.1)">
       <use xlink:href="#DejaVuSans-38"/>
       <use xlink:href="#DejaVuSans-30" transform="translate(63.623047 0)"/>
      </g>
     </g>
    </g>
    <g id="ytick_18">
     <g id="line2d_76">
      <path d="M 46.965625 478.709295 
L 392.366193 478.709295 
" clip-path="url(#p80faacfb92)" style="fill: none; stroke: #b0b0b0; stroke-opacity: 0.25; stroke-width: 0.8; stroke-linecap: square"/>
     </g>
     <g id="line2d_77">
      <g>
       <use xlink:href="#mc8ddb3472b" x="46.965625" y="478.709295" style="stroke: #000000; stroke-width: 0.8"/>
      </g>
     </g>
     <g id="text_42">
      <!-- 100 -->
      <g transform="translate(20.878125 482.508514) scale(0.1 -0.1)">
       <use xlink:href="#DejaVuSans-31"/>
       <use xlink:href="#DejaVuSans-30" transform="translate(63.623047 0)"/>
       <use xlink:href="#DejaVuSans-30" transform="translate(127.246094 0)"/>
      </g>
     </g>
    </g>
    <g id="ytick_19">
     <g id="line2d_78">
      <path d="M 46.965625 453.302551 
L 392.366193 453.302551 
" clip-path="url(#p80faacfb92)" style="fill: none; stroke: #b0b0b0; stroke-opacity: 0.25; stroke-width: 0.8; stroke-linecap: square"/>
     </g>
     <g id="line2d_79">
      <g>
       <use xlink:href="#mc8ddb3472b" x="46.965625" y="453.302551" style="stroke: #000000; stroke-width: 0.8"/>
      </g>
     </g>
     <g id="text_43">
      <!-- 120 -->
      <g transform="translate(20.878125 457.10177) scale(0.1 -0.1)">
       <use xlink:href="#DejaVuSans-31"/>
       <use xlink:href="#DejaVuSans-32" transform="translate(63.623047 0)"/>
       <use xlink:href="#DejaVuSans-30" transform="translate(127.246094 0)"/>
      </g>
     </g>
    </g>
    <g id="ytick_20">
     <g id="line2d_80">
      <path d="M 46.965625 427.895807 
L 392.366193 427.895807 
" clip-path="url(#p80faacfb92)" style="fill: none; stroke: #b0b0b0; stroke-opacity: 0.25; stroke-width: 0.8; stroke-linecap: square"/>
     </g>
     <g id="line2d_81">
      <g>
       <use xlink:href="#mc8ddb3472b" x="46.965625" y="427.895807" style="stroke: #000000; stroke-width: 0.8"/>
      </g>
     </g>
     <g id="text_44">
      <!-- 140 -->
      <g transform="translate(20.878125 431.695026) scale(0.1 -0.1)">
       <use xlink:href="#DejaVuSans-31"/>
       <use xlink:href="#DejaVuSans-34" transform="translate(63.623047 0)"/>
       <use xlink:href="#DejaVuSans-30" transform="translate(127.246094 0)"/>
      </g>
     </g>
    </g>
    <g id="ytick_21">
     <g id="line2d_82">
      <path d="M 46.965625 402.489063 
L 392.366193 402.489063 
" clip-path="url(#p80faacfb92)" style="fill: none; stroke: #b0b0b0; stroke-opacity: 0.25; stroke-width: 0.8; stroke-linecap: square"/>
     </g>
     <g id="line2d_83">
      <g>
       <use xlink:href="#mc8ddb3472b" x="46.965625" y="402.489063" style="stroke: #000000; stroke-width: 0.8"/>
      </g>
     </g>
     <g id="text_45">
      <!-- 160 -->
      <g transform="translate(20.878125 406.288282) scale(0.1 -0.1)">
       <use xlink:href="#DejaVuSans-31"/>
       <use xlink:href="#DejaVuSans-36" transform="translate(63.623047 0)"/>
       <use xlink:href="#DejaVuSans-30" transform="translate(127.246094 0)"/>
      </g>
     </g>
    </g>
    <g id="ytick_22">
     <g id="line2d_84">
      <path d="M 46.965625 377.082319 
L 392.366193 377.082319 
" clip-path="url(#p80faacfb92)" style="fill: none; stroke: #b0b0b0; stroke-opacity: 0.25; stroke-width: 0.8; stroke-linecap: square"/>
     </g>
     <g id="line2d_85">
      <g>
       <use xlink:href="#mc8ddb3472b" x="46.965625" y="377.082319" style="stroke: #000000; stroke-width: 0.8"/>
      </g>
     </g>
     <g id="text_46">
      <!-- 180 -->
      <g transform="translate(20.878125 380.881538) scale(0.1 -0.1)">
       <use xlink:href="#DejaVuSans-31"/>
       <use xlink:href="#DejaVuSans-38" transform="translate(63.623047 0)"/>
       <use xlink:href="#DejaVuSans-30" transform="translate(127.246094 0)"/>
      </g>
     </g>
    </g>
    <g id="ytick_23">
     <g id="line2d_86">
      <path d="M 46.965625 351.675575 
L 392.366193 351.675575 
" clip-path="url(#p80faacfb92)" style="fill: none; stroke: #b0b0b0; stroke-opacity: 0.25; stroke-width: 0.8; stroke-linecap: square"/>
     </g>
     <g id="line2d_87">
      <g>
       <use xlink:href="#mc8ddb3472b" x="46.965625" y="351.675575" style="stroke: #000000; stroke-width: 0.8"/>
      </g>
     </g>
     <g id="text_47">
      <!-- 200 -->
      <g transform="translate(20.878125 355.474794) scale(0.1 -0.1)">
       <use xlink:href="#DejaVuSans-32"/>
       <use xlink:href="#DejaVuSans-30" transform="translate(63.623047 0)"/>
       <use xlink:href="#DejaVuSans-30" transform="translate(127.246094 0)"/>
      </g>
     </g>
    </g>
    <g id="text_48">
     <!-- Length -->
     <g transform="translate(14.798437 461.879375) rotate(-90) scale(0.1 -0.1)">
      <defs>
       <path id="DejaVuSans-67" d="M 2906 1791 
Q 2906 2416 2648 2759 
Q 2391 3103 1925 3103 
Q 1463 3103 1205 2759 
Q 947 2416 947 1791 
Q 947 1169 1205 825 
Q 1463 481 1925 481 
Q 2391 481 2648 825 
Q 2906 1169 2906 1791 
z
M 3481 434 
Q 3481 -459 3084 -895 
Q 2688 -1331 1869 -1331 
Q 1566 -1331 1297 -1286 
Q 1028 -1241 775 -1147 
L 775 -588 
Q 1028 -725 1275 -790 
Q 1522 -856 1778 -856 
Q 2344 -856 2625 -561 
Q 2906 -266 2906 331 
L 2906 616 
Q 2728 306 2450 153 
Q 2172 0 1784 0 
Q 1141 0 747 490 
Q 353 981 353 1791 
Q 353 2603 747 3093 
Q 1141 3584 1784 3584 
Q 2172 3584 2450 3431 
Q 2728 3278 2906 2969 
L 2906 3500 
L 3481 3500 
L 3481 434 
z
" transform="scale(0.015625)"/>
       <path id="DejaVuSans-68" d="M 3513 2113 
L 3513 0 
L 2938 0 
L 2938 2094 
Q 2938 2591 2744 2837 
Q 2550 3084 2163 3084 
Q 1697 3084 1428 2787 
Q 1159 2491 1159 1978 
L 1159 0 
L 581 0 
L 581 4863 
L 1159 4863 
L 1159 2956 
Q 1366 3272 1645 3428 
Q 1925 3584 2291 3584 
Q 2894 3584 3203 3211 
Q 3513 2838 3513 2113 
z
" transform="scale(0.015625)"/>
      </defs>
      <use xlink:href="#DejaVuSans-4c"/>
      <use xlink:href="#DejaVuSans-65" transform="translate(53.962891 0)"/>
      <use xlink:href="#DejaVuSans-6e" transform="translate(115.486328 0)"/>
      <use xlink:href="#DejaVuSans-67" transform="translate(178.865234 0)"/>
      <use xlink:href="#DejaVuSans-74" transform="translate(242.341797 0)"/>
      <use xlink:href="#DejaVuSans-68" transform="translate(281.550781 0)"/>
     </g>
    </g>
   </g>
   <g id="line2d_88">
    <path d="M 62.665651 436.391187 
L 69.073825 429.483729 
L 75.481998 428.181633 
L 81.890172 428.197512 
L 88.298346 419.527461 
L 94.70652 424.0054 
L 101.114694 420.877194 
L 107.522867 430.595274 
L 113.931041 430.118897 
L 120.339215 468.054342 
L 126.747389 496.478137 
L 133.155563 471.785958 
L 139.563737 470.769688 
L 145.97191 479.360343 
L 152.380084 484.584605 
L 158.788258 486.124889 
L 165.196432 483.981195 
L 171.604606 483.520698 
L 178.012779 481.170574 
L 184.420953 483.171355 
L 190.829127 493.38169 
L 197.237301 498.097817 
L 203.645475 509.038596 
L 210.053648 515.739625 
L 216.461822 517.581614 
L 222.869996 513.770602 
L 229.27817 519.121898 
L 235.686344 525.092483 
L 242.094517 518.740796 
L 248.502691 515.342644 
L 254.910865 519.058381 
L 261.319039 518.963106 
L 267.727213 517.184633 
L 274.135386 520.344597 
L 280.54356 518.6614 
L 286.951734 519.979375 
L 293.359908 521.964277 
L 299.768082 520.48751 
L 306.176255 518.486729 
L 312.584429 514.580442 
L 318.992603 507.974689 
L 325.400777 518.105628 
L 331.808951 514.961543 
L 338.217125 521.027403 
L 344.625298 514.358133 
L 351.033472 520.773336 
L 357.441646 515.390282 
L 363.84982 524.854294 
L 370.257994 514.675717 
L 376.666167 523.472803 
" clip-path="url(#p80faacfb92)" style="fill: none; stroke: #64748b; stroke-width: 2; stroke-linecap: square"/>
   </g>
   <g id="patch_14">
    <path d="M 46.965625 554.92 
L 46.965625 334.345 
" style="fill: none; stroke: #000000; stroke-width: 0.8; stroke-linejoin: miter; stroke-linecap: square"/>
   </g>
   <g id="patch_15">
    <path d="M 392.366193 554.92 
L 392.366193 334.345 
" style="fill: none; stroke: #000000; stroke-width: 0.8; stroke-linejoin: miter; stroke-linecap: square"/>
   </g>
   <g id="patch_16">
    <path d="M 46.965625 554.92 
L 392.366193 554.92 
" style="fill: none; stroke: #000000; stroke-width: 0.8; stroke-linejoin: miter; stroke-linecap: square"/>
   </g>
   <g id="patch_17">
    <path d="M 46.965625 334.345 
L 392.366193 334.345 
" style="fill: none; stroke: #000000; stroke-width: 0.8; stroke-linejoin: miter; stroke-linecap: square"/>
   </g>
   <g id="text_49">
    <!-- Completion Length -->
    <g transform="translate(157.949425 328.345) scale(0.13 -0.13)">
     <defs>
      <path id="DejaVuSans-43" d="M 4122 4306 
L 4122 3641 
Q 3803 3938 3442 4084 
Q 3081 4231 2675 4231 
Q 1875 4231 1450 3742 
Q 1025 3253 1025 2328 
Q 1025 1406 1450 917 
Q 1875 428 2675 428 
Q 3081 428 3442 575 
Q 3803 722 4122 1019 
L 4122 359 
Q 3791 134 3420 21 
Q 3050 -91 2638 -91 
Q 1578 -91 968 557 
Q 359 1206 359 2328 
Q 359 3453 968 4101 
Q 1578 4750 2638 4750 
Q 3056 4750 3426 4639 
Q 3797 4528 4122 4306 
z
" transform="scale(0.015625)"/>
      <path id="DejaVuSans-6c" d="M 603 4863 
L 1178 4863 
L 1178 0 
L 603 0 
L 603 4863 
z
" transform="scale(0.015625)"/>
      <path id="DejaVuSans-69" d="M 603 3500 
L 1178 3500 
L 1178 0 
L 603 0 
L 603 3500 
z
M 603 4863 
L 1178 4863 
L 1178 4134 
L 603 4134 
L 603 4863 
z
" transform="scale(0.015625)"/>
     </defs>
     <use xlink:href="#DejaVuSans-43"/>
     <use xlink:href="#DejaVuSans-6f" transform="translate(69.824219 0)"/>
     <use xlink:href="#DejaVuSans-6d" transform="translate(131.005859 0)"/>
     <use xlink:href="#DejaVuSans-70" transform="translate(228.417969 0)"/>
     <use xlink:href="#DejaVuSans-6c" transform="translate(291.894531 0)"/>
     <use xlink:href="#DejaVuSans-65" transform="translate(319.677734 0)"/>
     <use xlink:href="#DejaVuSans-74" transform="translate(381.201172 0)"/>
     <use xlink:href="#DejaVuSans-69" transform="translate(420.410156 0)"/>
     <use xlink:href="#DejaVuSans-6f" transform="translate(448.193359 0)"/>
     <use xlink:href="#DejaVuSans-6e" transform="translate(509.375 0)"/>
     <use xlink:href="#DejaVuSans-20" transform="translate(572.753906 0)"/>
     <use xlink:href="#DejaVuSans-4c" transform="translate(604.541016 0)"/>
     <use xlink:href="#DejaVuSans-65" transform="translate(658.503906 0)"/>
     <use xlink:href="#DejaVuSans-6e" transform="translate(720.027344 0)"/>
     <use xlink:href="#DejaVuSans-67" transform="translate(783.40625 0)"/>
     <use xlink:href="#DejaVuSans-74" transform="translate(846.882812 0)"/>
     <use xlink:href="#DejaVuSans-68" transform="translate(886.091797 0)"/>
    </g>
   </g>
  </g>
  <g id="axes_4">
   <g id="patch_18">
    <path d="M 432.66875 554.92 
L 778.069318 554.92 
L 778.069318 334.345 
L 432.66875 334.345 
z
" style="fill: #ffffff"/>
   </g>
   <g id="matplotlib.axis_7">
    <g id="xtick_19">
     <g id="line2d_89">
      <path d="M 441.960602 554.92 
L 441.960602 334.345 
" clip-path="url(#pf4a989043a)" style="fill: none; stroke: #b0b0b0; stroke-opacity: 0.25; stroke-width: 0.8; stroke-linecap: square"/>
     </g>
     <g id="line2d_90">
      <g>
       <use xlink:href="#me3e9906419" x="441.960602" y="554.92" style="stroke: #000000; stroke-width: 0.8"/>
      </g>
     </g>
     <g id="text_50">
      <!-- 0 -->
      <g transform="translate(438.779352 569.518438) scale(0.1 -0.1)">
       <use xlink:href="#DejaVuSans-30"/>
      </g>
     </g>
    </g>
    <g id="xtick_20">
     <g id="line2d_91">
      <path d="M 506.04234 554.92 
L 506.04234 334.345 
" clip-path="url(#pf4a989043a)" style="fill: none; stroke: #b0b0b0; stroke-opacity: 0.25; stroke-width: 0.8; stroke-linecap: square"/>
     </g>
     <g id="line2d_92">
      <g>
       <use xlink:href="#me3e9906419" x="506.04234" y="554.92" style="stroke: #000000; stroke-width: 0.8"/>
      </g>
     </g>
     <g id="text_51">
      <!-- 200 -->
      <g transform="translate(496.49859 569.518438) scale(0.1 -0.1)">
       <use xlink:href="#DejaVuSans-32"/>
       <use xlink:href="#DejaVuSans-30" transform="translate(63.623047 0)"/>
       <use xlink:href="#DejaVuSans-30" transform="translate(127.246094 0)"/>
      </g>
     </g>
    </g>
    <g id="xtick_21">
     <g id="line2d_93">
      <path d="M 570.124078 554.92 
L 570.124078 334.345 
" clip-path="url(#pf4a989043a)" style="fill: none; stroke: #b0b0b0; stroke-opacity: 0.25; stroke-width: 0.8; stroke-linecap: square"/>
     </g>
     <g id="line2d_94">
      <g>
       <use xlink:href="#me3e9906419" x="570.124078" y="554.92" style="stroke: #000000; stroke-width: 0.8"/>
      </g>
     </g>
     <g id="text_52">
      <!-- 400 -->
      <g transform="translate(560.580328 569.518438) scale(0.1 -0.1)">
       <use xlink:href="#DejaVuSans-34"/>
       <use xlink:href="#DejaVuSans-30" transform="translate(63.623047 0)"/>
       <use xlink:href="#DejaVuSans-30" transform="translate(127.246094 0)"/>
      </g>
     </g>
    </g>
    <g id="xtick_22">
     <g id="line2d_95">
      <path d="M 634.205816 554.92 
L 634.205816 334.345 
" clip-path="url(#pf4a989043a)" style="fill: none; stroke: #b0b0b0; stroke-opacity: 0.25; stroke-width: 0.8; stroke-linecap: square"/>
     </g>
     <g id="line2d_96">
      <g>
       <use xlink:href="#me3e9906419" x="634.205816" y="554.92" style="stroke: #000000; stroke-width: 0.8"/>
      </g>
     </g>
     <g id="text_53">
      <!-- 600 -->
      <g transform="translate(624.662066 569.518438) scale(0.1 -0.1)">
       <use xlink:href="#DejaVuSans-36"/>
       <use xlink:href="#DejaVuSans-30" transform="translate(63.623047 0)"/>
       <use xlink:href="#DejaVuSans-30" transform="translate(127.246094 0)"/>
      </g>
     </g>
    </g>
    <g id="xtick_23">
     <g id="line2d_97">
      <path d="M 698.287554 554.92 
L 698.287554 334.345 
" clip-path="url(#pf4a989043a)" style="fill: none; stroke: #b0b0b0; stroke-opacity: 0.25; stroke-width: 0.8; stroke-linecap: square"/>
     </g>
     <g id="line2d_98">
      <g>
       <use xlink:href="#me3e9906419" x="698.287554" y="554.92" style="stroke: #000000; stroke-width: 0.8"/>
      </g>
     </g>
     <g id="text_54">
      <!-- 800 -->
      <g transform="translate(688.743804 569.518438) scale(0.1 -0.1)">
       <use xlink:href="#DejaVuSans-38"/>
       <use xlink:href="#DejaVuSans-30" transform="translate(63.623047 0)"/>
       <use xlink:href="#DejaVuSans-30" transform="translate(127.246094 0)"/>
      </g>
     </g>
    </g>
    <g id="xtick_24">
     <g id="line2d_99">
      <path d="M 762.369292 554.92 
L 762.369292 334.345 
" clip-path="url(#pf4a989043a)" style="fill: none; stroke: #b0b0b0; stroke-opacity: 0.25; stroke-width: 0.8; stroke-linecap: square"/>
     </g>
     <g id="line2d_100">
      <g>
       <use xlink:href="#me3e9906419" x="762.369292" y="554.92" style="stroke: #000000; stroke-width: 0.8"/>
      </g>
     </g>
     <g id="text_55">
      <!-- 1000 -->
      <g transform="translate(749.644292 569.518438) scale(0.1 -0.1)">
       <use xlink:href="#DejaVuSans-31"/>
       <use xlink:href="#DejaVuSans-30" transform="translate(63.623047 0)"/>
       <use xlink:href="#DejaVuSans-30" transform="translate(127.246094 0)"/>
       <use xlink:href="#DejaVuSans-30" transform="translate(190.869141 0)"/>
      </g>
     </g>
    </g>
    <g id="text_56">
     <!-- Step -->
     <g transform="translate(593.983878 583.196563) scale(0.1 -0.1)">
      <use xlink:href="#DejaVuSans-53"/>
      <use xlink:href="#DejaVuSans-74" transform="translate(63.476562 0)"/>
      <use xlink:href="#DejaVuSans-65" transform="translate(102.685547 0)"/>
      <use xlink:href="#DejaVuSans-70" transform="translate(164.208984 0)"/>
     </g>
    </g>
   </g>
   <g id="matplotlib.axis_8">
    <g id="ytick_24">
     <g id="line2d_101">
      <path d="M 432.66875 544.893864 
L 778.069318 544.893864 
" clip-path="url(#pf4a989043a)" style="fill: none; stroke: #b0b0b0; stroke-opacity: 0.25; stroke-width: 0.8; stroke-linecap: square"/>
     </g>
     <g id="line2d_102">
      <g>
       <use xlink:href="#mc8ddb3472b" x="432.66875" y="544.893864" style="stroke: #000000; stroke-width: 0.8"/>
      </g>
     </g>
     <g id="text_57">
      <!-- 0.0 -->
      <g transform="translate(409.765625 548.693082) scale(0.1 -0.1)">
       <use xlink:href="#DejaVuSans-30"/>
       <use xlink:href="#DejaVuSans-2e" transform="translate(63.623047 0)"/>
       <use xlink:href="#DejaVuSans-30" transform="translate(95.410156 0)"/>
      </g>
     </g>
    </g>
    <g id="ytick_25">
     <g id="line2d_103">
      <path d="M 432.66875 504.789318 
L 778.069318 504.789318 
" clip-path="url(#pf4a989043a)" style="fill: none; stroke: #b0b0b0; stroke-opacity: 0.25; stroke-width: 0.8; stroke-linecap: square"/>
     </g>
     <g id="line2d_104">
      <g>
       <use xlink:href="#mc8ddb3472b" x="432.66875" y="504.789318" style="stroke: #000000; stroke-width: 0.8"/>
      </g>
     </g>
     <g id="text_58">
      <!-- 0.2 -->
      <g transform="translate(409.765625 508.588537) scale(0.1 -0.1)">
       <use xlink:href="#DejaVuSans-30"/>
       <use xlink:href="#DejaVuSans-2e" transform="translate(63.623047 0)"/>
       <use xlink:href="#DejaVuSans-32" transform="translate(95.410156 0)"/>
      </g>
     </g>
    </g>
    <g id="ytick_26">
     <g id="line2d_105">
      <path d="M 432.66875 464.684773 
L 778.069318 464.684773 
" clip-path="url(#pf4a989043a)" style="fill: none; stroke: #b0b0b0; stroke-opacity: 0.25; stroke-width: 0.8; stroke-linecap: square"/>
     </g>
     <g id="line2d_106">
      <g>
       <use xlink:href="#mc8ddb3472b" x="432.66875" y="464.684773" style="stroke: #000000; stroke-width: 0.8"/>
      </g>
     </g>
     <g id="text_59">
      <!-- 0.4 -->
      <g transform="translate(409.765625 468.483991) scale(0.1 -0.1)">
       <use xlink:href="#DejaVuSans-30"/>
       <use xlink:href="#DejaVuSans-2e" transform="translate(63.623047 0)"/>
       <use xlink:href="#DejaVuSans-34" transform="translate(95.410156 0)"/>
      </g>
     </g>
    </g>
    <g id="ytick_27">
     <g id="line2d_107">
      <path d="M 432.66875 424.580227 
L 778.069318 424.580227 
" clip-path="url(#pf4a989043a)" style="fill: none; stroke: #b0b0b0; stroke-opacity: 0.25; stroke-width: 0.8; stroke-linecap: square"/>
     </g>
     <g id="line2d_108">
      <g>
       <use xlink:href="#mc8ddb3472b" x="432.66875" y="424.580227" style="stroke: #000000; stroke-width: 0.8"/>
      </g>
     </g>
     <g id="text_60">
      <!-- 0.6 -->
      <g transform="translate(409.765625 428.379446) scale(0.1 -0.1)">
       <use xlink:href="#DejaVuSans-30"/>
       <use xlink:href="#DejaVuSans-2e" transform="translate(63.623047 0)"/>
       <use xlink:href="#DejaVuSans-36" transform="translate(95.410156 0)"/>
      </g>
     </g>
    </g>
    <g id="ytick_28">
     <g id="line2d_109">
      <path d="M 432.66875 384.475682 
L 778.069318 384.475682 
" clip-path="url(#pf4a989043a)" style="fill: none; stroke: #b0b0b0; stroke-opacity: 0.25; stroke-width: 0.8; stroke-linecap: square"/>
     </g>
     <g id="line2d_110">
      <g>
       <use xlink:href="#mc8ddb3472b" x="432.66875" y="384.475682" style="stroke: #000000; stroke-width: 0.8"/>
      </g>
     </g>
     <g id="text_61">
      <!-- 0.8 -->
      <g transform="translate(409.765625 388.274901) scale(0.1 -0.1)">
       <use xlink:href="#DejaVuSans-30"/>
       <use xlink:href="#DejaVuSans-2e" transform="translate(63.623047 0)"/>
       <use xlink:href="#DejaVuSans-38" transform="translate(95.410156 0)"/>
      </g>
     </g>
    </g>
    <g id="ytick_29">
     <g id="line2d_111">
      <path d="M 432.66875 344.371136 
L 778.069318 344.371136 
" clip-path="url(#pf4a989043a)" style="fill: none; stroke: #b0b0b0; stroke-opacity: 0.25; stroke-width: 0.8; stroke-linecap: square"/>
     </g>
     <g id="line2d_112">
      <g>
       <use xlink:href="#mc8ddb3472b" x="432.66875" y="344.371136" style="stroke: #000000; stroke-width: 0.8"/>
      </g>
     </g>
     <g id="text_62">
      <!-- 1.0 -->
      <g transform="translate(409.765625 348.170355) scale(0.1 -0.1)">
       <use xlink:href="#DejaVuSans-31"/>
       <use xlink:href="#DejaVuSans-2e" transform="translate(63.623047 0)"/>
       <use xlink:href="#DejaVuSans-30" transform="translate(95.410156 0)"/>
      </g>
     </g>
    </g>
   </g>
   <g id="line2d_113">
    <path d="M 448.368776 544.893864 
L 454.77695 542.948793 
L 461.185123 544.893864 
L 467.593297 542.948793 
L 474.001471 541.695526 
L 480.409645 544.893864 
L 486.817819 544.893864 
L 493.225992 542.948793 
L 499.634166 538.978443 
L 506.04234 497.395915 
L 512.450514 492.168342 
L 518.858688 495.230269 
L 525.266862 483.574169 
L 531.675035 471.124439 
L 538.083209 464.376027 
L 544.491383 471.365889 
L 550.899557 480.666586 
L 557.307731 486.544662 
L 563.715904 476.929743 
L 570.124078 478.56748 
L 576.532252 480.459896 
L 582.940426 491.465416 
L 589.3486 505.362219 
L 595.756773 509.16735 
L 602.164947 517.42247 
L 608.573121 520.856212 
L 614.981295 511.139621 
L 621.389469 517.640136 
L 627.797642 529.043923 
L 634.205816 527.618833 
L 640.61399 480.601681 
L 647.022164 466.90046 
L 653.430338 501.877913 
L 659.838511 502.831503 
L 666.246685 519.736147 
L 672.654859 512.418352 
L 679.063033 524.189166 
L 685.471207 527.96299 
L 691.87938 523.358806 
L 698.287554 521.749289 
L 704.695728 520.362671 
L 711.103902 506.414207 
L 717.512076 539.419594 
L 723.92025 533.403912 
L 730.328423 523.648482 
L 736.736597 531.478894 
L 743.144771 520.874656 
L 749.552945 521.085059 
L 755.961119 538.186379 
L 762.369292 525.534776 
" clip-path="url(#pf4a989043a)" style="fill: none; stroke: #f97316; stroke-width: 2; stroke-linecap: square"/>
   </g>
   <g id="line2d_114">
    <path d="M 448.368776 344.371136 
L 454.77695 354.397273 
L 461.185123 344.371136 
L 467.593297 354.397273 
L 474.001471 354.397273 
L 480.409645 344.371136 
L 486.817819 344.371136 
L 493.225992 354.397273 
L 499.634166 364.423409 
L 506.04234 494.763182 
L 512.450514 524.841591 
L 518.858688 534.867727 
L 525.266862 524.841591 
L 531.675035 544.893864 
L 538.083209 544.893864 
L 544.491383 524.841591 
L 550.899557 534.867727 
L 557.307731 544.893864 
L 563.715904 544.893864 
L 570.124078 534.867727 
L 576.532252 544.893864 
L 582.940426 544.893864 
L 589.3486 524.841591 
L 595.756773 494.763182 
L 602.164947 464.684773 
L 608.573121 424.580227 
L 614.981295 444.6325 
L 621.389469 424.580227 
L 627.797642 384.475682 
L 634.205816 434.606364 
L 640.61399 484.737045 
L 647.022164 514.815455 
L 653.430338 464.684773 
L 659.838511 504.789318 
L 666.246685 434.606364 
L 672.654859 464.684773 
L 679.063033 424.580227 
L 685.471207 414.554091 
L 691.87938 414.554091 
L 698.287554 434.606364 
L 704.695728 424.580227 
L 711.103902 454.658636 
L 717.512076 384.475682 
L 723.92025 394.501818 
L 730.328423 434.606364 
L 736.736597 384.475682 
L 743.144771 414.554091 
L 749.552945 414.554091 
L 755.961119 364.423409 
L 762.369292 404.527955 
" clip-path="url(#pf4a989043a)" style="fill: none; stroke: #0f766e; stroke-width: 2; stroke-linecap: square"/>
   </g>
   <g id="patch_19">
    <path d="M 432.66875 554.92 
L 432.66875 334.345 
" style="fill: none; stroke: #000000; stroke-width: 0.8; stroke-linejoin: miter; stroke-linecap: square"/>
   </g>
   <g id="patch_20">
    <path d="M 778.069318 554.92 
L 778.069318 334.345 
" style="fill: none; stroke: #000000; stroke-width: 0.8; stroke-linejoin: miter; stroke-linecap: square"/>
   </g>
   <g id="patch_21">
    <path d="M 432.66875 554.92 
L 778.069318 554.92 
" style="fill: none; stroke: #000000; stroke-width: 0.8; stroke-linejoin: miter; stroke-linecap: square"/>
   </g>
   <g id="patch_22">
    <path d="M 432.66875 334.345 
L 778.069318 334.345 
" style="fill: none; stroke: #000000; stroke-width: 0.8; stroke-linejoin: miter; stroke-linecap: square"/>
   </g>
   <g id="text_63">
    <!-- Reward Stability -->
    <g transform="translate(552.498643 328.345) scale(0.13 -0.13)">
     <defs>
      <path id="DejaVuSans-79" d="M 2059 -325 
Q 1816 -950 1584 -1140 
Q 1353 -1331 966 -1331 
L 506 -1331 
L 506 -850 
L 844 -850 
Q 1081 -850 1212 -737 
Q 1344 -625 1503 -206 
L 1606 56 
L 191 3500 
L 800 3500 
L 1894 763 
L 2988 3500 
L 3597 3500 
L 2059 -325 
z
" transform="scale(0.015625)"/>
     </defs>
     <use xlink:href="#DejaVuSans-52"/>
     <use xlink:href="#DejaVuSans-65" transform="translate(64.982422 0)"/>
     <use xlink:href="#DejaVuSans-77" transform="translate(126.505859 0)"/>
     <use xlink:href="#DejaVuSans-61" transform="translate(208.292969 0)"/>
     <use xlink:href="#DejaVuSans-72" transform="translate(269.572266 0)"/>
     <use xlink:href="#DejaVuSans-64" transform="translate(308.935547 0)"/>
     <use xlink:href="#DejaVuSans-20" transform="translate(372.412109 0)"/>
     <use xlink:href="#DejaVuSans-53" transform="translate(404.199219 0)"/>
     <use xlink:href="#DejaVuSans-74" transform="translate(467.675781 0)"/>
     <use xlink:href="#DejaVuSans-61" transform="translate(506.884766 0)"/>
     <use xlink:href="#DejaVuSans-62" transform="translate(568.164062 0)"/>
     <use xlink:href="#DejaVuSans-69" transform="translate(631.640625 0)"/>
     <use xlink:href="#DejaVuSans-6c" transform="translate(659.423828 0)"/>
     <use xlink:href="#DejaVuSans-69" transform="translate(687.207031 0)"/>
     <use xlink:href="#DejaVuSans-74" transform="translate(714.990234 0)"/>
     <use xlink:href="#DejaVuSans-79" transform="translate(754.199219 0)"/>
    </g>
   </g>
   <g id="legend_2">
    <g id="patch_23">
     <path d="M 553.22669 367.965625 
L 657.511378 367.965625 
Q 659.311378 367.965625 659.311378 366.165625 
L 659.311378 340.645 
Q 659.311378 338.845 657.511378 338.845 
L 553.22669 338.845 
Q 551.42669 338.845 551.42669 340.645 
L 551.42669 366.165625 
Q 551.42669 367.965625 553.22669 367.965625 
z
" style="fill: #ffffff; opacity: 0.8; stroke: #cccccc; stroke-linejoin: miter"/>
    </g>
    <g id="line2d_115">
     <path d="M 555.02669 346.133594 
L 564.02669 346.133594 
L 573.02669 346.133594 
" style="fill: none; stroke: #f97316; stroke-width: 2; stroke-linecap: square"/>
    </g>
    <g id="text_64">
     <!-- Reward std -->
     <g transform="translate(580.22669 349.283594) scale(0.09 -0.09)">
      <use xlink:href="#DejaVuSans-52"/>
      <use xlink:href="#DejaVuSans-65" transform="translate(64.982422 0)"/>
      <use xlink:href="#DejaVuSans-77" transform="translate(126.505859 0)"/>
      <use xlink:href="#DejaVuSans-61" transform="translate(208.292969 0)"/>
      <use xlink:href="#DejaVuSans-72" transform="translate(269.572266 0)"/>
      <use xlink:href="#DejaVuSans-64" transform="translate(308.935547 0)"/>
      <use xlink:href="#DejaVuSans-20" transform="translate(372.412109 0)"/>
      <use xlink:href="#DejaVuSans-73" transform="translate(404.199219 0)"/>
      <use xlink:href="#DejaVuSans-74" transform="translate(456.298828 0)"/>
      <use xlink:href="#DejaVuSans-64" transform="translate(495.507812 0)"/>
     </g>
    </g>
    <g id="line2d_116">
     <path d="M 555.02669 359.343906 
L 564.02669 359.343906 
L 573.02669 359.343906 
" style="fill: none; stroke: #0f766e; stroke-width: 2; stroke-linecap: square"/>
    </g>
    <g id="text_65">
     <!-- Zero-std fraction -->
     <g transform="translate(580.22669 362.493906) scale(0.09 -0.09)">
      <defs>
       <path id="DejaVuSans-5a" d="M 359 4666 
L 4025 4666 
L 4025 4184 
L 1075 531 
L 4097 531 
L 4097 0 
L 288 0 
L 288 481 
L 3238 4134 
L 359 4134 
L 359 4666 
z
" transform="scale(0.015625)"/>
       <path id="DejaVuSans-2d" d="M 313 2009 
L 1997 2009 
L 1997 1497 
L 313 1497 
L 313 2009 
z
" transform="scale(0.015625)"/>
       <path id="DejaVuSans-66" d="M 2375 4863 
L 2375 4384 
L 1825 4384 
Q 1516 4384 1395 4259 
Q 1275 4134 1275 3809 
L 1275 3500 
L 2222 3500 
L 2222 3053 
L 1275 3053 
L 1275 0 
L 697 0 
L 697 3053 
L 147 3053 
L 147 3500 
L 697 3500 
L 697 3744 
Q 697 4328 969 4595 
Q 1241 4863 1831 4863 
L 2375 4863 
z
" transform="scale(0.015625)"/>
       <path id="DejaVuSans-63" d="M 3122 3366 
L 3122 2828 
Q 2878 2963 2633 3030 
Q 2388 3097 2138 3097 
Q 1578 3097 1268 2742 
Q 959 2388 959 1747 
Q 959 1106 1268 751 
Q 1578 397 2138 397 
Q 2388 397 2633 464 
Q 2878 531 3122 666 
L 3122 134 
Q 2881 22 2623 -34 
Q 2366 -91 2075 -91 
Q 1284 -91 818 406 
Q 353 903 353 1747 
Q 353 2603 823 3093 
Q 1294 3584 2113 3584 
Q 2378 3584 2631 3529 
Q 2884 3475 3122 3366 
z
" transform="scale(0.015625)"/>
      </defs>
      <use xlink:href="#DejaVuSans-5a"/>
      <use xlink:href="#DejaVuSans-65" transform="translate(68.505859 0)"/>
      <use xlink:href="#DejaVuSans-72" transform="translate(130.029297 0)"/>
      <use xlink:href="#DejaVuSans-6f" transform="translate(168.892578 0)"/>
      <use xlink:href="#DejaVuSans-2d" transform="translate(231.949219 0)"/>
      <use xlink:href="#DejaVuSans-73" transform="translate(268.033203 0)"/>
      <use xlink:href="#DejaVuSans-74" transform="translate(320.132812 0)"/>
      <use xlink:href="#DejaVuSans-64" transform="translate(359.341797 0)"/>
      <use xlink:href="#DejaVuSans-20" transform="translate(422.818359 0)"/>
      <use xlink:href="#DejaVuSans-66" transform="translate(454.605469 0)"/>
      <use xlink:href="#DejaVuSans-72" transform="translate(489.810547 0)"/>
      <use xlink:href="#DejaVuSans-61" transform="translate(530.923828 0)"/>
      <use xlink:href="#DejaVuSans-63" transform="translate(592.203125 0)"/>
      <use xlink:href="#DejaVuSans-74" transform="translate(647.183594 0)"/>
      <use xlink:href="#DejaVuSans-69" transform="translate(686.392578 0)"/>
      <use xlink:href="#DejaVuSans-6f" transform="translate(714.175781 0)"/>
      <use xlink:href="#DejaVuSans-6e" transform="translate(775.357422 0)"/>
     </g>
    </g>
   </g>
  </g>
  <g id="text_66">
   <!-- Membrane GRPO Training Summary (Qwen2.5 1.5B LoRA) -->
   <g transform="translate(176.264844 18.597656) scale(0.15 -0.15)">
    <defs>
     <path id="DejaVuSans-47" d="M 3809 666 
L 3809 1919 
L 2778 1919 
L 2778 2438 
L 4434 2438 
L 4434 434 
Q 4069 175 3628 42 
Q 3188 -91 2688 -91 
Q 1594 -91 976 548 
Q 359 1188 359 2328 
Q 359 3472 976 4111 
Q 1594 4750 2688 4750 
Q 3144 4750 3555 4637 
Q 3966 4525 4313 4306 
L 4313 3634 
Q 3963 3931 3569 4081 
Q 3175 4231 2741 4231 
Q 1884 4231 1454 3753 
Q 1025 3275 1025 2328 
Q 1025 1384 1454 906 
Q 1884 428 2741 428 
Q 3075 428 3337 486 
Q 3600 544 3809 666 
z
" transform="scale(0.015625)"/>
     <path id="DejaVuSans-50" d="M 1259 4147 
L 1259 2394 
L 2053 2394 
Q 2494 2394 2734 2622 
Q 2975 2850 2975 3272 
Q 2975 3691 2734 3919 
Q 2494 4147 2053 4147 
L 1259 4147 
z
M 628 4666 
L 2053 4666 
Q 2838 4666 3239 4311 
Q 3641 3956 3641 3272 
Q 3641 2581 3239 2228 
Q 2838 1875 2053 1875 
L 1259 1875 
L 1259 0 
L 628 0 
L 628 4666 
z
" transform="scale(0.015625)"/>
     <path id="DejaVuSans-4f" d="M 2522 4238 
Q 1834 4238 1429 3725 
Q 1025 3213 1025 2328 
Q 1025 1447 1429 934 
Q 1834 422 2522 422 
Q 3209 422 3611 934 
Q 4013 1447 4013 2328 
Q 4013 3213 3611 3725 
Q 3209 4238 2522 4238 
z
M 2522 4750 
Q 3503 4750 4090 4092 
Q 4678 3434 4678 2328 
Q 4678 1225 4090 567 
Q 3503 -91 2522 -91 
Q 1538 -91 948 565 
Q 359 1222 359 2328 
Q 359 3434 948 4092 
Q 1538 4750 2522 4750 
z
" transform="scale(0.015625)"/>
     <path id="DejaVuSans-54" d="M -19 4666 
L 3928 4666 
L 3928 4134 
L 2272 4134 
L 2272 0 
L 1638 0 
L 1638 4134 
L -19 4134 
L -19 4666 
z
" transform="scale(0.015625)"/>
     <path id="DejaVuSans-75" d="M 544 1381 
L 544 3500 
L 1119 3500 
L 1119 1403 
Q 1119 906 1312 657 
Q 1506 409 1894 409 
Q 2359 409 2629 706 
Q 2900 1003 2900 1516 
L 2900 3500 
L 3475 3500 
L 3475 0 
L 2900 0 
L 2900 538 
Q 2691 219 2414 64 
Q 2138 -91 1772 -91 
Q 1169 -91 856 284 
Q 544 659 544 1381 
z
M 1991 3584 
L 1991 3584 
z
" transform="scale(0.015625)"/>
     <path id="DejaVuSans-28" d="M 1984 4856 
Q 1566 4138 1362 3434 
Q 1159 2731 1159 2009 
Q 1159 1288 1364 580 
Q 1569 -128 1984 -844 
L 1484 -844 
Q 1016 -109 783 600 
Q 550 1309 550 2009 
Q 550 2706 781 3412 
Q 1013 4119 1484 4856 
L 1984 4856 
z
" transform="scale(0.015625)"/>
     <path id="DejaVuSans-51" d="M 2522 4238 
Q 1834 4238 1429 3725 
Q 1025 3213 1025 2328 
Q 1025 1447 1429 934 
Q 1834 422 2522 422 
Q 3209 422 3611 934 
Q 4013 1447 4013 2328 
Q 4013 3213 3611 3725 
Q 3209 4238 2522 4238 
z
M 3406 84 
L 4238 -825 
L 3475 -825 
L 2784 -78 
Q 2681 -84 2626 -87 
Q 2572 -91 2522 -91 
Q 1538 -91 948 567 
Q 359 1225 359 2328 
Q 359 3434 948 4092 
Q 1538 4750 2522 4750 
Q 3503 4750 4090 4092 
Q 4678 3434 4678 2328 
Q 4678 1516 4351 937 
Q 4025 359 3406 84 
z
" transform="scale(0.015625)"/>
     <path id="DejaVuSans-42" d="M 1259 2228 
L 1259 519 
L 2272 519 
Q 2781 519 3026 730 
Q 3272 941 3272 1375 
Q 3272 1813 3026 2020 
Q 2781 2228 2272 2228 
L 1259 2228 
z
M 1259 4147 
L 1259 2741 
L 2194 2741 
Q 2656 2741 2882 2914 
Q 3109 3088 3109 3444 
Q 3109 3797 2882 3972 
Q 2656 4147 2194 4147 
L 1259 4147 
z
M 628 4666 
L 2241 4666 
Q 2963 4666 3353 4366 
Q 3744 4066 3744 3513 
Q 3744 3084 3544 2831 
Q 3344 2578 2956 2516 
Q 3422 2416 3680 2098 
Q 3938 1781 3938 1306 
Q 3938 681 3513 340 
Q 3088 0 2303 0 
L 628 0 
L 628 4666 
z
" transform="scale(0.015625)"/>
     <path id="DejaVuSans-41" d="M 2188 4044 
L 1331 1722 
L 3047 1722 
L 2188 4044 
z
M 1831 4666 
L 2547 4666 
L 4325 0 
L 3669 0 
L 3244 1197 
L 1141 1197 
L 716 0 
L 50 0 
L 1831 4666 
z
" transform="scale(0.015625)"/>
     <path id="DejaVuSans-29" d="M 513 4856 
L 1013 4856 
Q 1481 4119 1714 3412 
Q 1947 2706 1947 2009 
Q 1947 1309 1714 600 
Q 1481 -109 1013 -844 
L 513 -844 
Q 928 -128 1133 580 
Q 1338 1288 1338 2009 
Q 1338 2731 1133 3434 
Q 928 4138 513 4856 
z
" transform="scale(0.015625)"/>
    </defs>
    <use xlink:href="#DejaVuSans-4d"/>
    <use xlink:href="#DejaVuSans-65" transform="translate(86.279297 0)"/>
    <use xlink:href="#DejaVuSans-6d" transform="translate(147.802734 0)"/>
    <use xlink:href="#DejaVuSans-62" transform="translate(245.214844 0)"/>
    <use xlink:href="#DejaVuSans-72" transform="translate(308.691406 0)"/>
    <use xlink:href="#DejaVuSans-61" transform="translate(349.804688 0)"/>
    <use xlink:href="#DejaVuSans-6e" transform="translate(411.083984 0)"/>
    <use xlink:href="#DejaVuSans-65" transform="translate(474.462891 0)"/>
    <use xlink:href="#DejaVuSans-20" transform="translate(535.986328 0)"/>
    <use xlink:href="#DejaVuSans-47" transform="translate(567.773438 0)"/>
    <use xlink:href="#DejaVuSans-52" transform="translate(645.263672 0)"/>
    <use xlink:href="#DejaVuSans-50" transform="translate(714.746094 0)"/>
    <use xlink:href="#DejaVuSans-4f" transform="translate(775.048828 0)"/>
    <use xlink:href="#DejaVuSans-20" transform="translate(853.759766 0)"/>
    <use xlink:href="#DejaVuSans-54" transform="translate(885.546875 0)"/>
    <use xlink:href="#DejaVuSans-72" transform="translate(931.880859 0)"/>
    <use xlink:href="#DejaVuSans-61" transform="translate(972.994141 0)"/>
    <use xlink:href="#DejaVuSans-69" transform="translate(1034.273438 0)"/>
    <use xlink:href="#DejaVuSans-6e" transform="translate(1062.056641 0)"/>
    <use xlink:href="#DejaVuSans-69" transform="translate(1125.435547 0)"/>
    <use xlink:href="#DejaVuSans-6e" transform="translate(1153.21875 0)"/>
    <use xlink:href="#DejaVuSans-67" transform="translate(1216.597656 0)"/>
    <use xlink:href="#DejaVuSans-20" transform="translate(1280.074219 0)"/>
    <use xlink:href="#DejaVuSans-53" transform="translate(1311.861328 0)"/>
    <use xlink:href="#DejaVuSans-75" transform="translate(1375.337891 0)"/>
    <use xlink:href="#DejaVuSans-6d" transform="translate(1438.716797 0)"/>
    <use xlink:href="#DejaVuSans-6d" transform="translate(1536.128906 0)"/>
    <use xlink:href="#DejaVuSans-61" transform="translate(1633.541016 0)"/>
    <use xlink:href="#DejaVuSans-72" transform="translate(1694.820312 0)"/>
    <use xlink:href="#DejaVuSans-79" transform="translate(1735.933594 0)"/>
    <use xlink:href="#DejaVuSans-20" transform="translate(1795.113281 0)"/>
    <use xlink:href="#DejaVuSans-28" transform="translate(1826.900391 0)"/>
    <use xlink:href="#DejaVuSans-51" transform="translate(1865.914062 0)"/>
    <use xlink:href="#DejaVuSans-77" transform="translate(1944.625 0)"/>
    <use xlink:href="#DejaVuSans-65" transform="translate(2026.412109 0)"/>
    <use xlink:href="#DejaVuSans-6e" transform="translate(2087.935547 0)"/>
    <use xlink:href="#DejaVuSans-32" transform="translate(2151.314453 0)"/>
    <use xlink:href="#DejaVuSans-2e" transform="translate(2214.9375 0)"/>
    <use xlink:href="#DejaVuSans-35" transform="translate(2246.724609 0)"/>
    <use xlink:href="#DejaVuSans-20" transform="translate(2310.347656 0)"/>
    <use xlink:href="#DejaVuSans-31" transform="translate(2342.134766 0)"/>
    <use xlink:href="#DejaVuSans-2e" transform="translate(2405.757812 0)"/>
    <use xlink:href="#DejaVuSans-35" transform="translate(2437.544922 0)"/>
    <use xlink:href="#DejaVuSans-42" transform="translate(2501.167969 0)"/>
    <use xlink:href="#DejaVuSans-20" transform="translate(2569.771484 0)"/>
    <use xlink:href="#DejaVuSans-4c" transform="translate(2601.558594 0)"/>
    <use xlink:href="#DejaVuSans-6f" transform="translate(2655.521484 0)"/>
    <use xlink:href="#DejaVuSans-52" transform="translate(2716.703125 0)"/>
    <use xlink:href="#DejaVuSans-41" transform="translate(2782.185547 0)"/>
    <use xlink:href="#DejaVuSans-29" transform="translate(2850.59375 0)"/>
   </g>
  </g>
 </g>
 <defs>
  <clipPath id="p7042091a8c">
   <rect x="46.965625" y="71.07" width="345.400568" height="220.575"/>
  </clipPath>
  <clipPath id="p9110e42945">
   <rect x="432.66875" y="71.07" width="345.400568" height="220.575"/>
  </clipPath>
  <clipPath id="p80faacfb92">
   <rect x="46.965625" y="334.345" width="345.400568" height="220.575"/>
  </clipPath>
  <clipPath id="pf4a989043a">
   <rect x="432.66875" y="334.345" width="345.400568" height="220.575"/>
  </clipPath>
 </defs>
</svg>
