<?xml version="1.0" encoding="utf-8" standalone="no"?>
<!DOCTYPE svg PUBLIC "-//W3C//DTD SVG 1.1//EN"
  "http://www.w3.org/Graphics/SVG/1.1/DTD/svg11.dtd">
<svg xmlns:xlink="http://www.w3.org/1999/xlink" width="612pt" height="345.6pt" viewBox="0 0 612 345.6" xmlns="http://www.w3.org/2000/svg" version="1.1">
 <metadata>
  <rdf:RDF xmlns:dc="http://purl.org/dc/elements/1.1/" xmlns:cc="http://creativecommons.org/ns#" xmlns:rdf="http://www.w3.org/1999/02/22-rdf-syntax-ns#">
   <cc:Work>
    <dc:type rdf:resource="http://purl.org/dc/dcmitype/StillImage"/>
    <dc:date>2026-04-25T02:12:57.559502</dc:date>
    <dc:format>image/svg+xml</dc:format>
    <dc:creator>
     <cc:Agent>
      <dc:title>Matplotlib v3.10.9, https://matplotlib.org/</dc:title>
     </cc:Agent>
    </dc:creator>
   </cc:Work>
  </rdf:RDF>
 </metadata>
 <defs>
  <style type="text/css">*{stroke-linejoin: round; stroke-linecap: butt}</style>
 </defs>
 <g id="figure_1">
  <g id="patch_1">
   <path d="M 0 345.6 
L 612 345.6 
L 612 0 
L 0 0 
z
" style="fill: #ffffff"/>
  </g>
  <g id="axes_1">
   <g id="patch_2">
    <path d="M 49.98125 305.8 
L 601.2 305.8 
L 601.2 26.7 
L 49.98125 26.7 
z
" style="fill: #ffffff"/>
   </g>
   <g id="FillBetweenPolyCollection_1">
    <defs>
     <path id="md106a9a957" d="M 75.036648 -261.367321 
L 75.036648 -113.486997 
L 85.263341 -138.401617 
L 95.490034 -131.891668 
L 105.716727 -121.363232 
L 115.94342 -131.08797 
L 126.170112 -126.989114 
L 136.396805 -117.505484 
L 146.623498 -135.669046 
L 156.850191 -130.686122 
L 167.076884 -55.620784 
L 177.303577 -52.727473 
L 187.53027 -84.232411 
L 197.756963 -87.447201 
L 207.983656 -78.847639 
L 218.210349 -66.551068 
L 228.437042 -72.980648 
L 238.663735 -88.090159 
L 248.890428 -87.68831 
L 259.117121 -77.561723 
L 269.343814 -92.590864 
L 279.570507 -75.873958 
L 289.7972 -70.891034 
L 300.023893 -61.487775 
L 310.250586 -60.362598 
L 320.477279 -57.228178 
L 330.703971 -63.818497 
L 340.930664 -57.710397 
L 351.157357 -56.58522 
L 361.38405 -64.702564 
L 371.610743 -62.211102 
L 381.837436 -64.220346 
L 392.064129 -62.130733 
L 402.290822 -60.844817 
L 412.517515 -62.93443 
L 422.744208 -63.0148 
L 432.970901 -60.684077 
L 443.197594 -60.282229 
L 453.424287 -58.433724 
L 463.65098 -58.192615 
L 473.877673 -64.300716 
L 484.104366 -67.194026 
L 494.331059 -62.211102 
L 504.557752 -61.728884 
L 514.784445 -60.925186 
L 525.011138 -61.969993 
L 535.23783 -57.951506 
L 545.464523 -59.71964 
L 555.691216 -52.486364 
L 565.917909 -66.06885 
L 576.144602 -57.871136 
L 576.144602 -111.156275 
L 576.144602 -111.156275 
L 565.917909 -127.953551 
L 555.691216 -112.040342 
L 545.464523 -132.775735 
L 535.23783 -116.782157 
L 525.011138 -127.792811 
L 514.784445 -116.380308 
L 504.557752 -134.543869 
L 494.331059 -129.078727 
L 484.104366 -158.574422 
L 473.877673 -127.230223 
L 463.65098 -126.506895 
L 453.424287 -118.550291 
L 443.197594 -114.612174 
L 432.970901 -111.317014 
L 422.744208 -129.239466 
L 412.517515 -107.298527 
L 402.290822 -125.381719 
L 392.064129 -120.238055 
L 381.837436 -117.746593 
L 371.610743 -128.596508 
L 361.38405 -120.720274 
L 351.157357 -108.584443 
L 340.930664 -126.989114 
L 330.703971 -133.981281 
L 320.477279 -138.803466 
L 310.250586 -137.115701 
L 300.023893 -137.43718 
L 289.7972 -152.546691 
L 279.570507 -153.912977 
L 269.343814 -175.934286 
L 259.117121 -193.856738 
L 248.890428 -173.603564 
L 238.663735 -175.371698 
L 228.437042 -167.736572 
L 218.210349 -196.107091 
L 207.983656 -198.196704 
L 197.756963 -200.768536 
L 187.53027 -219.575055 
L 177.303577 -164.843262 
L 167.076884 -247.624095 
L 156.850191 -260.724363 
L 146.623498 -242.400062 
L 136.396805 -306.213636 
L 126.170112 -287.085638 
L 115.94342 -291.023755 
L 105.716727 -270.85095 
L 95.490034 -264.82322 
L 85.263341 -248.829641 
L 75.036648 -261.367321 
z
" style="stroke: #64748b; stroke-opacity: 0.12"/>
    </defs>
    <g clip-path="url(#p20ce3f740c)">
     <use xlink:href="#md106a9a957" x="0" y="345.6" style="fill: #64748b; fill-opacity: 0.12; stroke: #64748b; stroke-opacity: 0.12"/>
    </g>
   </g>
   <g id="matplotlib.axis_1">
    <g id="xtick_1">
     <g id="line2d_1">
      <path d="M 64.809955 305.8 
L 64.809955 26.7 
" clip-path="url(#p20ce3f740c)" style="fill: none; stroke: #b0b0b0; stroke-opacity: 0.25; stroke-width: 0.8; stroke-linecap: square"/>
     </g>
     <g id="line2d_2">
      <defs>
       <path id="m9651795ea3" d="M 0 0 
L 0 3.5 
" style="stroke: #000000; stroke-width: 0.8"/>
      </defs>
      <g>
       <use xlink:href="#m9651795ea3" x="64.809955" y="305.8" style="stroke: #000000; stroke-width: 0.8"/>
      </g>
     </g>
     <g id="text_1">
      <!-- 0 -->
      <g transform="translate(61.628705 320.398437) scale(0.1 -0.1)">
       <defs>
        <path id="DejaVuSans-30" d="M 2034 4250 
Q 1547 4250 1301 3770 
Q 1056 3291 1056 2328 
Q 1056 1369 1301 889 
Q 1547 409 2034 409 
Q 2525 409 2770 889 
Q 3016 1369 3016 2328 
Q 3016 3291 2770 3770 
Q 2525 4250 2034 4250 
z
M 2034 4750 
Q 2819 4750 3233 4129 
Q 3647 3509 3647 2328 
Q 3647 1150 3233 529 
Q 2819 -91 2034 -91 
Q 1250 -91 836 529 
Q 422 1150 422 2328 
Q 422 3509 836 4129 
Q 1250 4750 2034 4750 
z
" transform="scale(0.015625)"/>
       </defs>
       <use xlink:href="#DejaVuSans-30"/>
      </g>
     </g>
    </g>
    <g id="xtick_2">
     <g id="line2d_3">
      <path d="M 167.076884 305.8 
L 167.076884 26.7 
" clip-path="url(#p20ce3f740c)" style="fill: none; stroke: #b0b0b0; stroke-opacity: 0.25; stroke-width: 0.8; stroke-linecap: square"/>
     </g>
     <g id="line2d_4">
      <g>
       <use xlink:href="#m9651795ea3" x="167.076884" y="305.8" style="stroke: #000000; stroke-width: 0.8"/>
      </g>
     </g>
     <g id="text_2">
      <!-- 200 -->
      <g transform="translate(157.533134 320.398437) scale(0.1 -0.1)">
       <defs>
        <path id="DejaVuSans-32" d="M 1228 531 
L 3431 531 
L 3431 0 
L 469 0 
L 469 531 
Q 828 903 1448 1529 
Q 2069 2156 2228 2338 
Q 2531 2678 2651 2914 
Q 2772 3150 2772 3378 
Q 2772 3750 2511 3984 
Q 2250 4219 1831 4219 
Q 1534 4219 1204 4116 
Q 875 4013 500 3803 
L 500 4441 
Q 881 4594 1212 4672 
Q 1544 4750 1819 4750 
Q 2544 4750 2975 4387 
Q 3406 4025 3406 3419 
Q 3406 3131 3298 2873 
Q 3191 2616 2906 2266 
Q 2828 2175 2409 1742 
Q 1991 1309 1228 531 
z
" transform="scale(0.015625)"/>
       </defs>
       <use xlink:href="#DejaVuSans-32"/>
       <use xlink:href="#DejaVuSans-30" transform="translate(63.623047 0)"/>
       <use xlink:href="#DejaVuSans-30" transform="translate(127.246094 0)"/>
      </g>
     </g>
    </g>
    <g id="xtick_3">
     <g id="line2d_5">
      <path d="M 269.343814 305.8 
L 269.343814 26.7 
" clip-path="url(#p20ce3f740c)" style="fill: none; stroke: #b0b0b0; stroke-opacity: 0.25; stroke-width: 0.8; stroke-linecap: square"/>
     </g>
     <g id="line2d_6">
      <g>
       <use xlink:href="#m9651795ea3" x="269.343814" y="305.8" style="stroke: #000000; stroke-width: 0.8"/>
      </g>
     </g>
     <g id="text_3">
      <!-- 400 -->
      <g transform="translate(259.800064 320.398437) scale(0.1 -0.1)">
       <defs>
        <path id="DejaVuSans-34" d="M 2419 4116 
L 825 1625 
L 2419 1625 
L 2419 4116 
z
M 2253 4666 
L 3047 4666 
L 3047 1625 
L 3713 1625 
L 3713 1100 
L 3047 1100 
L 3047 0 
L 2419 0 
L 2419 1100 
L 313 1100 
L 313 1709 
L 2253 4666 
z
" transform="scale(0.015625)"/>
       </defs>
       <use xlink:href="#DejaVuSans-34"/>
       <use xlink:href="#DejaVuSans-30" transform="translate(63.623047 0)"/>
       <use xlink:href="#DejaVuSans-30" transform="translate(127.246094 0)"/>
      </g>
     </g>
    </g>
    <g id="xtick_4">
     <g id="line2d_7">
      <path d="M 371.610743 305.8 
L 371.610743 26.7 
" clip-path="url(#p20ce3f740c)" style="fill: none; stroke: #b0b0b0; stroke-opacity: 0.25; stroke-width: 0.8; stroke-linecap: square"/>
     </g>
     <g id="line2d_8">
      <g>
       <use xlink:href="#m9651795ea3" x="371.610743" y="305.8" style="stroke: #000000; stroke-width: 0.8"/>
      </g>
     </g>
     <g id="text_4">
      <!-- 600 -->
      <g transform="translate(362.066993 320.398437) scale(0.1 -0.1)">
       <defs>
        <path id="DejaVuSans-36" d="M 2113 2584 
Q 1688 2584 1439 2293 
Q 1191 2003 1191 1497 
Q 1191 994 1439 701 
Q 1688 409 2113 409 
Q 2538 409 2786 701 
Q 3034 994 3034 1497 
Q 3034 2003 2786 2293 
Q 2538 2584 2113 2584 
z
M 3366 4563 
L 3366 3988 
Q 3128 4100 2886 4159 
Q 2644 4219 2406 4219 
Q 1781 4219 1451 3797 
Q 1122 3375 1075 2522 
Q 1259 2794 1537 2939 
Q 1816 3084 2150 3084 
Q 2853 3084 3261 2657 
Q 3669 2231 3669 1497 
Q 3669 778 3244 343 
Q 2819 -91 2113 -91 
Q 1303 -91 875 529 
Q 447 1150 447 2328 
Q 447 3434 972 4092 
Q 1497 4750 2381 4750 
Q 2619 4750 2861 4703 
Q 3103 4656 3366 4563 
z
" transform="scale(0.015625)"/>
       </defs>
       <use xlink:href="#DejaVuSans-36"/>
       <use xlink:href="#DejaVuSans-30" transform="translate(63.623047 0)"/>
       <use xlink:href="#DejaVuSans-30" transform="translate(127.246094 0)"/>
      </g>
     </g>
    </g>
    <g id="xtick_5">
     <g id="line2d_9">
      <path d="M 473.877673 305.8 
L 473.877673 26.7 
" clip-path="url(#p20ce3f740c)" style="fill: none; stroke: #b0b0b0; stroke-opacity: 0.25; stroke-width: 0.8; stroke-linecap: square"/>
     </g>
     <g id="line2d_10">
      <g>
       <use xlink:href="#m9651795ea3" x="473.877673" y="305.8" style="stroke: #000000; stroke-width: 0.8"/>
      </g>
     </g>
     <g id="text_5">
      <!-- 800 -->
      <g transform="translate(464.333923 320.398437) scale(0.1 -0.1)">
       <defs>
        <path id="DejaVuSans-38" d="M 2034 2216 
Q 1584 2216 1326 1975 
Q 1069 1734 1069 1313 
Q 1069 891 1326 650 
Q 1584 409 2034 409 
Q 2484 409 2743 651 
Q 3003 894 3003 1313 
Q 3003 1734 2745 1975 
Q 2488 2216 2034 2216 
z
M 1403 2484 
Q 997 2584 770 2862 
Q 544 3141 544 3541 
Q 544 4100 942 4425 
Q 1341 4750 2034 4750 
Q 2731 4750 3128 4425 
Q 3525 4100 3525 3541 
Q 3525 3141 3298 2862 
Q 3072 2584 2669 2484 
Q 3125 2378 3379 2068 
Q 3634 1759 3634 1313 
Q 3634 634 3220 271 
Q 2806 -91 2034 -91 
Q 1263 -91 848 271 
Q 434 634 434 1313 
Q 434 1759 690 2068 
Q 947 2378 1403 2484 
z
M 1172 3481 
Q 1172 3119 1398 2916 
Q 1625 2713 2034 2713 
Q 2441 2713 2670 2916 
Q 2900 3119 2900 3481 
Q 2900 3844 2670 4047 
Q 2441 4250 2034 4250 
Q 1625 4250 1398 4047 
Q 1172 3844 1172 3481 
z
" transform="scale(0.015625)"/>
       </defs>
       <use xlink:href="#DejaVuSans-38"/>
       <use xlink:href="#DejaVuSans-30" transform="translate(63.623047 0)"/>
       <use xlink:href="#DejaVuSans-30" transform="translate(127.246094 0)"/>
      </g>
     </g>
    </g>
    <g id="xtick_6">
     <g id="line2d_11">
      <path d="M 576.144602 305.8 
L 576.144602 26.7 
" clip-path="url(#p20ce3f740c)" style="fill: none; stroke: #b0b0b0; stroke-opacity: 0.25; stroke-width: 0.8; stroke-linecap: square"/>
     </g>
     <g id="line2d_12">
      <g>
       <use xlink:href="#m9651795ea3" x="576.144602" y="305.8" style="stroke: #000000; stroke-width: 0.8"/>
      </g>
     </g>
     <g id="text_6">
      <!-- 1000 -->
      <g transform="translate(563.419602 320.398437) scale(0.1 -0.1)">
       <defs>
        <path id="DejaVuSans-31" d="M 794 531 
L 1825 531 
L 1825 4091 
L 703 3866 
L 703 4441 
L 1819 4666 
L 2450 4666 
L 2450 531 
L 3481 531 
L 3481 0 
L 794 0 
L 794 531 
z
" transform="scale(0.015625)"/>
       </defs>
       <use xlink:href="#DejaVuSans-31"/>
       <use xlink:href="#DejaVuSans-30" transform="translate(63.623047 0)"/>
       <use xlink:href="#DejaVuSans-30" transform="translate(127.246094 0)"/>
       <use xlink:href="#DejaVuSans-30" transform="translate(190.869141 0)"/>
      </g>
     </g>
    </g>
    <g id="text_7">
     <!-- Training step -->
     <g transform="translate(293.460156 334.076562) scale(0.1 -0.1)">
      <defs>
       <path id="DejaVuSans-54" d="M -19 4666 
L 3928 4666 
L 3928 4134 
L 2272 4134 
L 2272 0 
L 1638 0 
L 1638 4134 
L -19 4134 
L -19 4666 
z
" transform="scale(0.015625)"/>
       <path id="DejaVuSans-72" d="M 2631 2963 
Q 2534 3019 2420 3045 
Q 2306 3072 2169 3072 
Q 1681 3072 1420 2755 
Q 1159 2438 1159 1844 
L 1159 0 
L 581 0 
L 581 3500 
L 1159 3500 
L 1159 2956 
Q 1341 3275 1631 3429 
Q 1922 3584 2338 3584 
Q 2397 3584 2469 3576 
Q 2541 3569 2628 3553 
L 2631 2963 
z
" transform="scale(0.015625)"/>
       <path id="DejaVuSans-61" d="M 2194 1759 
Q 1497 1759 1228 1600 
Q 959 1441 959 1056 
Q 959 750 1161 570 
Q 1363 391 1709 391 
Q 2188 391 2477 730 
Q 2766 1069 2766 1631 
L 2766 1759 
L 2194 1759 
z
M 3341 1997 
L 3341 0 
L 2766 0 
L 2766 531 
Q 2569 213 2275 61 
Q 1981 -91 1556 -91 
Q 1019 -91 701 211 
Q 384 513 384 1019 
Q 384 1609 779 1909 
Q 1175 2209 1959 2209 
L 2766 2209 
L 2766 2266 
Q 2766 2663 2505 2880 
Q 2244 3097 1772 3097 
Q 1472 3097 1187 3025 
Q 903 2953 641 2809 
L 641 3341 
Q 956 3463 1253 3523 
Q 1550 3584 1831 3584 
Q 2591 3584 2966 3190 
Q 3341 2797 3341 1997 
z
" transform="scale(0.015625)"/>
       <path id="DejaVuSans-69" d="M 603 3500 
L 1178 3500 
L 1178 0 
L 603 0 
L 603 3500 
z
M 603 4863 
L 1178 4863 
L 1178 4134 
L 603 4134 
L 603 4863 
z
" transform="scale(0.015625)"/>
       <path id="DejaVuSans-6e" d="M 3513 2113 
L 3513 0 
L 2938 0 
L 2938 2094 
Q 2938 2591 2744 2837 
Q 2550 3084 2163 3084 
Q 1697 3084 1428 2787 
Q 1159 2491 1159 1978 
L 1159 0 
L 581 0 
L 581 3500 
L 1159 3500 
L 1159 2956 
Q 1366 3272 1645 3428 
Q 1925 3584 2291 3584 
Q 2894 3584 3203 3211 
Q 3513 2838 3513 2113 
z
" transform="scale(0.015625)"/>
       <path id="DejaVuSans-67" d="M 2906 1791 
Q 2906 2416 2648 2759 
Q 2391 3103 1925 3103 
Q 1463 3103 1205 2759 
Q 947 2416 947 1791 
Q 947 1169 1205 825 
Q 1463 481 1925 481 
Q 2391 481 2648 825 
Q 2906 1169 2906 1791 
z
M 3481 434 
Q 3481 -459 3084 -895 
Q 2688 -1331 1869 -1331 
Q 1566 -1331 1297 -1286 
Q 1028 -1241 775 -1147 
L 775 -588 
Q 1028 -725 1275 -790 
Q 1522 -856 1778 -856 
Q 2344 -856 2625 -561 
Q 2906 -266 2906 331 
L 2906 616 
Q 2728 306 2450 153 
Q 2172 0 1784 0 
Q 1141 0 747 490 
Q 353 981 353 1791 
Q 353 2603 747 3093 
Q 1141 3584 1784 3584 
Q 2172 3584 2450 3431 
Q 2728 3278 2906 2969 
L 2906 3500 
L 3481 3500 
L 3481 434 
z
" transform="scale(0.015625)"/>
       <path id="DejaVuSans-20" transform="scale(0.015625)"/>
       <path id="DejaVuSans-73" d="M 2834 3397 
L 2834 2853 
Q 2591 2978 2328 3040 
Q 2066 3103 1784 3103 
Q 1356 3103 1142 2972 
Q 928 2841 928 2578 
Q 928 2378 1081 2264 
Q 1234 2150 1697 2047 
L 1894 2003 
Q 2506 1872 2764 1633 
Q 3022 1394 3022 966 
Q 3022 478 2636 193 
Q 2250 -91 1575 -91 
Q 1294 -91 989 -36 
Q 684 19 347 128 
L 347 722 
Q 666 556 975 473 
Q 1284 391 1588 391 
Q 1994 391 2212 530 
Q 2431 669 2431 922 
Q 2431 1156 2273 1281 
Q 2116 1406 1581 1522 
L 1381 1569 
Q 847 1681 609 1914 
Q 372 2147 372 2553 
Q 372 3047 722 3315 
Q 1072 3584 1716 3584 
Q 2034 3584 2315 3537 
Q 2597 3491 2834 3397 
z
" transform="scale(0.015625)"/>
       <path id="DejaVuSans-74" d="M 1172 4494 
L 1172 3500 
L 2356 3500 
L 2356 3053 
L 1172 3053 
L 1172 1153 
Q 1172 725 1289 603 
Q 1406 481 1766 481 
L 2356 481 
L 2356 0 
L 1766 0 
Q 1100 0 847 248 
Q 594 497 594 1153 
L 594 3053 
L 172 3053 
L 172 3500 
L 594 3500 
L 594 4494 
L 1172 4494 
z
" transform="scale(0.015625)"/>
       <path id="DejaVuSans-65" d="M 3597 1894 
L 3597 1613 
L 953 1613 
Q 991 1019 1311 708 
Q 1631 397 2203 397 
Q 2534 397 2845 478 
Q 3156 559 3463 722 
L 3463 178 
Q 3153 47 2828 -22 
Q 2503 -91 2169 -91 
Q 1331 -91 842 396 
Q 353 884 353 1716 
Q 353 2575 817 3079 
Q 1281 3584 2069 3584 
Q 2775 3584 3186 3129 
Q 3597 2675 3597 1894 
z
M 3022 2063 
Q 3016 2534 2758 2815 
Q 2500 3097 2075 3097 
Q 1594 3097 1305 2825 
Q 1016 2553 972 2059 
L 3022 2063 
z
" transform="scale(0.015625)"/>
       <path id="DejaVuSans-70" d="M 1159 525 
L 1159 -1331 
L 581 -1331 
L 581 3500 
L 1159 3500 
L 1159 2969 
Q 1341 3281 1617 3432 
Q 1894 3584 2278 3584 
Q 2916 3584 3314 3078 
Q 3713 2572 3713 1747 
Q 3713 922 3314 415 
Q 2916 -91 2278 -91 
Q 1894 -91 1617 61 
Q 1341 213 1159 525 
z
M 3116 1747 
Q 3116 2381 2855 2742 
Q 2594 3103 2138 3103 
Q 1681 3103 1420 2742 
Q 1159 2381 1159 1747 
Q 1159 1113 1420 752 
Q 1681 391 2138 391 
Q 2594 391 2855 752 
Q 3116 1113 3116 1747 
z
" transform="scale(0.015625)"/>
      </defs>
      <use xlink:href="#DejaVuSans-54"/>
      <use xlink:href="#DejaVuSans-72" transform="translate(46.333984 0)"/>
      <use xlink:href="#DejaVuSans-61" transform="translate(87.447266 0)"/>
      <use xlink:href="#DejaVuSans-69" transform="translate(148.726562 0)"/>
      <use xlink:href="#DejaVuSans-6e" transform="translate(176.509766 0)"/>
      <use xlink:href="#DejaVuSans-69" transform="translate(239.888672 0)"/>
      <use xlink:href="#DejaVuSans-6e" transform="translate(267.671875 0)"/>
      <use xlink:href="#DejaVuSans-67" transform="translate(331.050781 0)"/>
      <use xlink:href="#DejaVuSans-20" transform="translate(394.527344 0)"/>
      <use xlink:href="#DejaVuSans-73" transform="translate(426.314453 0)"/>
      <use xlink:href="#DejaVuSans-74" transform="translate(478.414062 0)"/>
      <use xlink:href="#DejaVuSans-65" transform="translate(517.623047 0)"/>
      <use xlink:href="#DejaVuSans-70" transform="translate(579.146484 0)"/>
     </g>
    </g>
   </g>
   <g id="matplotlib.axis_2">
    <g id="ytick_1">
     <g id="line2d_13">
      <path d="M 49.98125 273.664159 
L 601.2 273.664159 
" clip-path="url(#p20ce3f740c)" style="fill: none; stroke: #b0b0b0; stroke-opacity: 0.25; stroke-width: 0.8; stroke-linecap: square"/>
     </g>
     <g id="line2d_14">
      <defs>
       <path id="m5f2bf78ca9" d="M 0 0 
L -3.5 0 
" style="stroke: #000000; stroke-width: 0.8"/>
      </defs>
      <g>
       <use xlink:href="#m5f2bf78ca9" x="49.98125" y="273.664159" style="stroke: #000000; stroke-width: 0.8"/>
      </g>
     </g>
     <g id="text_8">
      <!-- 60 -->
      <g transform="translate(30.25625 277.463378) scale(0.1 -0.1)">
       <use xlink:href="#DejaVuSans-36"/>
       <use xlink:href="#DejaVuSans-30" transform="translate(63.623047 0)"/>
      </g>
     </g>
    </g>
    <g id="ytick_2">
     <g id="line2d_15">
      <path d="M 49.98125 241.516263 
L 601.2 241.516263 
" clip-path="url(#p20ce3f740c)" style="fill: none; stroke: #b0b0b0; stroke-opacity: 0.25; stroke-width: 0.8; stroke-linecap: square"/>
     </g>
     <g id="line2d_16">
      <g>
       <use xlink:href="#m5f2bf78ca9" x="49.98125" y="241.516263" style="stroke: #000000; stroke-width: 0.8"/>
      </g>
     </g>
     <g id="text_9">
      <!-- 80 -->
      <g transform="translate(30.25625 245.315481) scale(0.1 -0.1)">
       <use xlink:href="#DejaVuSans-38"/>
       <use xlink:href="#DejaVuSans-30" transform="translate(63.623047 0)"/>
      </g>
     </g>
    </g>
    <g id="ytick_3">
     <g id="line2d_17">
      <path d="M 49.98125 209.368366 
L 601.2 209.368366 
" clip-path="url(#p20ce3f740c)" style="fill: none; stroke: #b0b0b0; stroke-opacity: 0.25; stroke-width: 0.8; stroke-linecap: square"/>
     </g>
     <g id="line2d_18">
      <g>
       <use xlink:href="#m5f2bf78ca9" x="49.98125" y="209.368366" style="stroke: #000000; stroke-width: 0.8"/>
      </g>
     </g>
     <g id="text_10">
      <!-- 100 -->
      <g transform="translate(23.89375 213.167585) scale(0.1 -0.1)">
       <use xlink:href="#DejaVuSans-31"/>
       <use xlink:href="#DejaVuSans-30" transform="translate(63.623047 0)"/>
       <use xlink:href="#DejaVuSans-30" transform="translate(127.246094 0)"/>
      </g>
     </g>
    </g>
    <g id="ytick_4">
     <g id="line2d_19">
      <path d="M 49.98125 177.22047 
L 601.2 177.22047 
" clip-path="url(#p20ce3f740c)" style="fill: none; stroke: #b0b0b0; stroke-opacity: 0.25; stroke-width: 0.8; stroke-linecap: square"/>
     </g>
     <g id="line2d_20">
      <g>
       <use xlink:href="#m5f2bf78ca9" x="49.98125" y="177.22047" style="stroke: #000000; stroke-width: 0.8"/>
      </g>
     </g>
     <g id="text_11">
      <!-- 120 -->
      <g transform="translate(23.89375 181.019688) scale(0.1 -0.1)">
       <use xlink:href="#DejaVuSans-31"/>
       <use xlink:href="#DejaVuSans-32" transform="translate(63.623047 0)"/>
       <use xlink:href="#DejaVuSans-30" transform="translate(127.246094 0)"/>
      </g>
     </g>
    </g>
    <g id="ytick_5">
     <g id="line2d_21">
      <path d="M 49.98125 145.072573 
L 601.2 145.072573 
" clip-path="url(#p20ce3f740c)" style="fill: none; stroke: #b0b0b0; stroke-opacity: 0.25; stroke-width: 0.8; stroke-linecap: square"/>
     </g>
     <g id="line2d_22">
      <g>
       <use xlink:href="#m5f2bf78ca9" x="49.98125" y="145.072573" style="stroke: #000000; stroke-width: 0.8"/>
      </g>
     </g>
     <g id="text_12">
      <!-- 140 -->
      <g transform="translate(23.89375 148.871792) scale(0.1 -0.1)">
       <use xlink:href="#DejaVuSans-31"/>
       <use xlink:href="#DejaVuSans-34" transform="translate(63.623047 0)"/>
       <use xlink:href="#DejaVuSans-30" transform="translate(127.246094 0)"/>
      </g>
     </g>
    </g>
    <g id="ytick_6">
     <g id="line2d_23">
      <path d="M 49.98125 112.924677 
L 601.2 112.924677 
" clip-path="url(#p20ce3f740c)" style="fill: none; stroke: #b0b0b0; stroke-opacity: 0.25; stroke-width: 0.8; stroke-linecap: square"/>
     </g>
     <g id="line2d_24">
      <g>
       <use xlink:href="#m5f2bf78ca9" x="49.98125" y="112.924677" style="stroke: #000000; stroke-width: 0.8"/>
      </g>
     </g>
     <g id="text_13">
      <!-- 160 -->
      <g transform="translate(23.89375 116.723896) scale(0.1 -0.1)">
       <use xlink:href="#DejaVuSans-31"/>
       <use xlink:href="#DejaVuSans-36" transform="translate(63.623047 0)"/>
       <use xlink:href="#DejaVuSans-30" transform="translate(127.246094 0)"/>
      </g>
     </g>
    </g>
    <g id="ytick_7">
     <g id="line2d_25">
      <path d="M 49.98125 80.77678 
L 601.2 80.77678 
" clip-path="url(#p20ce3f740c)" style="fill: none; stroke: #b0b0b0; stroke-opacity: 0.25; stroke-width: 0.8; stroke-linecap: square"/>
     </g>
     <g id="line2d_26">
      <g>
       <use xlink:href="#m5f2bf78ca9" x="49.98125" y="80.77678" style="stroke: #000000; stroke-width: 0.8"/>
      </g>
     </g>
     <g id="text_14">
      <!-- 180 -->
      <g transform="translate(23.89375 84.575999) scale(0.1 -0.1)">
       <use xlink:href="#DejaVuSans-31"/>
       <use xlink:href="#DejaVuSans-38" transform="translate(63.623047 0)"/>
       <use xlink:href="#DejaVuSans-30" transform="translate(127.246094 0)"/>
      </g>
     </g>
    </g>
    <g id="ytick_8">
     <g id="line2d_27">
      <path d="M 49.98125 48.628884 
L 601.2 48.628884 
" clip-path="url(#p20ce3f740c)" style="fill: none; stroke: #b0b0b0; stroke-opacity: 0.25; stroke-width: 0.8; stroke-linecap: square"/>
     </g>
     <g id="line2d_28">
      <g>
       <use xlink:href="#m5f2bf78ca9" x="49.98125" y="48.628884" style="stroke: #000000; stroke-width: 0.8"/>
      </g>
     </g>
     <g id="text_15">
      <!-- 200 -->
      <g transform="translate(23.89375 52.428103) scale(0.1 -0.1)">
       <use xlink:href="#DejaVuSans-32"/>
       <use xlink:href="#DejaVuSans-30" transform="translate(63.623047 0)"/>
       <use xlink:href="#DejaVuSans-30" transform="translate(127.246094 0)"/>
      </g>
     </g>
    </g>
    <g id="text_16">
     <!-- Completion length (tokens/chars as logged by TRL) -->
     <g transform="translate(17.814062 294.335937) rotate(-90) scale(0.1 -0.1)">
      <defs>
       <path id="DejaVuSans-43" d="M 4122 4306 
L 4122 3641 
Q 3803 3938 3442 4084 
Q 3081 4231 2675 4231 
Q 1875 4231 1450 3742 
Q 1025 3253 1025 2328 
Q 1025 1406 1450 917 
Q 1875 428 2675 428 
Q 3081 428 3442 575 
Q 3803 722 4122 1019 
L 4122 359 
Q 3791 134 3420 21 
Q 3050 -91 2638 -91 
Q 1578 -91 968 557 
Q 359 1206 359 2328 
Q 359 3453 968 4101 
Q 1578 4750 2638 4750 
Q 3056 4750 3426 4639 
Q 3797 4528 4122 4306 
z
" transform="scale(0.015625)"/>
       <path id="DejaVuSans-6f" d="M 1959 3097 
Q 1497 3097 1228 2736 
Q 959 2375 959 1747 
Q 959 1119 1226 758 
Q 1494 397 1959 397 
Q 2419 397 2687 759 
Q 2956 1122 2956 1747 
Q 2956 2369 2687 2733 
Q 2419 3097 1959 3097 
z
M 1959 3584 
Q 2709 3584 3137 3096 
Q 3566 2609 3566 1747 
Q 3566 888 3137 398 
Q 2709 -91 1959 -91 
Q 1206 -91 779 398 
Q 353 888 353 1747 
Q 353 2609 779 3096 
Q 1206 3584 1959 3584 
z
" transform="scale(0.015625)"/>
       <path id="DejaVuSans-6d" d="M 3328 2828 
Q 3544 3216 3844 3400 
Q 4144 3584 4550 3584 
Q 5097 3584 5394 3201 
Q 5691 2819 5691 2113 
L 5691 0 
L 5113 0 
L 5113 2094 
Q 5113 2597 4934 2840 
Q 4756 3084 4391 3084 
Q 3944 3084 3684 2787 
Q 3425 2491 3425 1978 
L 3425 0 
L 2847 0 
L 2847 2094 
Q 2847 2600 2669 2842 
Q 2491 3084 2119 3084 
Q 1678 3084 1418 2786 
Q 1159 2488 1159 1978 
L 1159 0 
L 581 0 
L 581 3500 
L 1159 3500 
L 1159 2956 
Q 1356 3278 1631 3431 
Q 1906 3584 2284 3584 
Q 2666 3584 2933 3390 
Q 3200 3197 3328 2828 
z
" transform="scale(0.015625)"/>
       <path id="DejaVuSans-6c" d="M 603 4863 
L 1178 4863 
L 1178 0 
L 603 0 
L 603 4863 
z
" transform="scale(0.015625)"/>
       <path id="DejaVuSans-68" d="M 3513 2113 
L 3513 0 
L 2938 0 
L 2938 2094 
Q 2938 2591 2744 2837 
Q 2550 3084 2163 3084 
Q 1697 3084 1428 2787 
Q 1159 2491 1159 1978 
L 1159 0 
L 581 0 
L 581 4863 
L 1159 4863 
L 1159 2956 
Q 1366 3272 1645 3428 
Q 1925 3584 2291 3584 
Q 2894 3584 3203 3211 
Q 3513 2838 3513 2113 
z
" transform="scale(0.015625)"/>
       <path id="DejaVuSans-28" d="M 1984 4856 
Q 1566 4138 1362 3434 
Q 1159 2731 1159 2009 
Q 1159 1288 1364 580 
Q 1569 -128 1984 -844 
L 1484 -844 
Q 1016 -109 783 600 
Q 550 1309 550 2009 
Q 550 2706 781 3412 
Q 1013 4119 1484 4856 
L 1984 4856 
z
" transform="scale(0.015625)"/>
       <path id="DejaVuSans-6b" d="M 581 4863 
L 1159 4863 
L 1159 1991 
L 2875 3500 
L 3609 3500 
L 1753 1863 
L 3688 0 
L 2938 0 
L 1159 1709 
L 1159 0 
L 581 0 
L 581 4863 
z
" transform="scale(0.015625)"/>
       <path id="DejaVuSans-2f" d="M 1625 4666 
L 2156 4666 
L 531 -594 
L 0 -594 
L 1625 4666 
z
" transform="scale(0.015625)"/>
       <path id="DejaVuSans-63" d="M 3122 3366 
L 3122 2828 
Q 2878 2963 2633 3030 
Q 2388 3097 2138 3097 
Q 1578 3097 1268 2742 
Q 959 2388 959 1747 
Q 959 1106 1268 751 
Q 1578 397 2138 397 
Q 2388 397 2633 464 
Q 2878 531 3122 666 
L 3122 134 
Q 2881 22 2623 -34 
Q 2366 -91 2075 -91 
Q 1284 -91 818 406 
Q 353 903 353 1747 
Q 353 2603 823 3093 
Q 1294 3584 2113 3584 
Q 2378 3584 2631 3529 
Q 2884 3475 3122 3366 
z
" transform="scale(0.015625)"/>
       <path id="DejaVuSans-64" d="M 2906 2969 
L 2906 4863 
L 3481 4863 
L 3481 0 
L 2906 0 
L 2906 525 
Q 2725 213 2448 61 
Q 2172 -91 1784 -91 
Q 1150 -91 751 415 
Q 353 922 353 1747 
Q 353 2572 751 3078 
Q 1150 3584 1784 3584 
Q 2172 3584 2448 3432 
Q 2725 3281 2906 2969 
z
M 947 1747 
Q 947 1113 1208 752 
Q 1469 391 1925 391 
Q 2381 391 2643 752 
Q 2906 1113 2906 1747 
Q 2906 2381 2643 2742 
Q 2381 3103 1925 3103 
Q 1469 3103 1208 2742 
Q 947 2381 947 1747 
z
" transform="scale(0.015625)"/>
       <path id="DejaVuSans-62" d="M 3116 1747 
Q 3116 2381 2855 2742 
Q 2594 3103 2138 3103 
Q 1681 3103 1420 2742 
Q 1159 2381 1159 1747 
Q 1159 1113 1420 752 
Q 1681 391 2138 391 
Q 2594 391 2855 752 
Q 3116 1113 3116 1747 
z
M 1159 2969 
Q 1341 3281 1617 3432 
Q 1894 3584 2278 3584 
Q 2916 3584 3314 3078 
Q 3713 2572 3713 1747 
Q 3713 922 3314 415 
Q 2916 -91 2278 -91 
Q 1894 -91 1617 61 
Q 1341 213 1159 525 
L 1159 0 
L 581 0 
L 581 4863 
L 1159 4863 
L 1159 2969 
z
" transform="scale(0.015625)"/>
       <path id="DejaVuSans-79" d="M 2059 -325 
Q 1816 -950 1584 -1140 
Q 1353 -1331 966 -1331 
L 506 -1331 
L 506 -850 
L 844 -850 
Q 1081 -850 1212 -737 
Q 1344 -625 1503 -206 
L 1606 56 
L 191 3500 
L 800 3500 
L 1894 763 
L 2988 3500 
L 3597 3500 
L 2059 -325 
z
" transform="scale(0.015625)"/>
       <path id="DejaVuSans-52" d="M 2841 2188 
Q 3044 2119 3236 1894 
Q 3428 1669 3622 1275 
L 4263 0 
L 3584 0 
L 2988 1197 
Q 2756 1666 2539 1819 
Q 2322 1972 1947 1972 
L 1259 1972 
L 1259 0 
L 628 0 
L 628 4666 
L 2053 4666 
Q 2853 4666 3247 4331 
Q 3641 3997 3641 3322 
Q 3641 2881 3436 2590 
Q 3231 2300 2841 2188 
z
M 1259 4147 
L 1259 2491 
L 2053 2491 
Q 2509 2491 2742 2702 
Q 2975 2913 2975 3322 
Q 2975 3731 2742 3939 
Q 2509 4147 2053 4147 
L 1259 4147 
z
" transform="scale(0.015625)"/>
       <path id="DejaVuSans-4c" d="M 628 4666 
L 1259 4666 
L 1259 531 
L 3531 531 
L 3531 0 
L 628 0 
L 628 4666 
z
" transform="scale(0.015625)"/>
       <path id="DejaVuSans-29" d="M 513 4856 
L 1013 4856 
Q 1481 4119 1714 3412 
Q 1947 2706 1947 2009 
Q 1947 1309 1714 600 
Q 1481 -109 1013 -844 
L 513 -844 
Q 928 -128 1133 580 
Q 1338 1288 1338 2009 
Q 1338 2731 1133 3434 
Q 928 4138 513 4856 
z
" transform="scale(0.015625)"/>
      </defs>
      <use xlink:href="#DejaVuSans-43"/>
      <use xlink:href="#DejaVuSans-6f" transform="translate(69.824219 0)"/>
      <use xlink:href="#DejaVuSans-6d" transform="translate(131.005859 0)"/>
      <use xlink:href="#DejaVuSans-70" transform="translate(228.417969 0)"/>
      <use xlink:href="#DejaVuSans-6c" transform="translate(291.894531 0)"/>
      <use xlink:href="#DejaVuSans-65" transform="translate(319.677734 0)"/>
      <use xlink:href="#DejaVuSans-74" transform="translate(381.201172 0)"/>
      <use xlink:href="#DejaVuSans-69" transform="translate(420.410156 0)"/>
      <use xlink:href="#DejaVuSans-6f" transform="translate(448.193359 0)"/>
      <use xlink:href="#DejaVuSans-6e" transform="translate(509.375 0)"/>
      <use xlink:href="#DejaVuSans-20" transform="translate(572.753906 0)"/>
      <use xlink:href="#DejaVuSans-6c" transform="translate(604.541016 0)"/>
      <use xlink:href="#DejaVuSans-65" transform="translate(632.324219 0)"/>
      <use xlink:href="#DejaVuSans-6e" transform="translate(693.847656 0)"/>
      <use xlink:href="#DejaVuSans-67" transform="translate(757.226562 0)"/>
      <use xlink:href="#DejaVuSans-74" transform="translate(820.703125 0)"/>
      <use xlink:href="#DejaVuSans-68" transform="translate(859.912109 0)"/>
      <use xlink:href="#DejaVuSans-20" transform="translate(923.291016 0)"/>
      <use xlink:href="#DejaVuSans-28" transform="translate(955.078125 0)"/>
      <use xlink:href="#DejaVuSans-74" transform="translate(994.091797 0)"/>
      <use xlink:href="#DejaVuSans-6f" transform="translate(1033.300781 0)"/>
      <use xlink:href="#DejaVuSans-6b" transform="translate(1094.482422 0)"/>
      <use xlink:href="#DejaVuSans-65" transform="translate(1148.767578 0)"/>
      <use xlink:href="#DejaVuSans-6e" transform="translate(1210.291016 0)"/>
      <use xlink:href="#DejaVuSans-73" transform="translate(1273.669922 0)"/>
      <use xlink:href="#DejaVuSans-2f" transform="translate(1325.769531 0)"/>
      <use xlink:href="#DejaVuSans-63" transform="translate(1359.460938 0)"/>
      <use xlink:href="#DejaVuSans-68" transform="translate(1414.441406 0)"/>
      <use xlink:href="#DejaVuSans-61" transform="translate(1477.820312 0)"/>
      <use xlink:href="#DejaVuSans-72" transform="translate(1539.099609 0)"/>
      <use xlink:href="#DejaVuSans-73" transform="translate(1580.212891 0)"/>
      <use xlink:href="#DejaVuSans-20" transform="translate(1632.3125 0)"/>
      <use xlink:href="#DejaVuSans-61" transform="translate(1664.099609 0)"/>
      <use xlink:href="#DejaVuSans-73" transform="translate(1725.378906 0)"/>
      <use xlink:href="#DejaVuSans-20" transform="translate(1777.478516 0)"/>
      <use xlink:href="#DejaVuSans-6c" transform="translate(1809.265625 0)"/>
      <use xlink:href="#DejaVuSans-6f" transform="translate(1837.048828 0)"/>
      <use xlink:href="#DejaVuSans-67" transform="translate(1898.230469 0)"/>
      <use xlink:href="#DejaVuSans-67" transform="translate(1961.707031 0)"/>
      <use xlink:href="#DejaVuSans-65" transform="translate(2025.183594 0)"/>
      <use xlink:href="#DejaVuSans-64" transform="translate(2086.707031 0)"/>
      <use xlink:href="#DejaVuSans-20" transform="translate(2150.183594 0)"/>
      <use xlink:href="#DejaVuSans-62" transform="translate(2181.970703 0)"/>
      <use xlink:href="#DejaVuSans-79" transform="translate(2245.447266 0)"/>
      <use xlink:href="#DejaVuSans-20" transform="translate(2304.626953 0)"/>
      <use xlink:href="#DejaVuSans-54" transform="translate(2336.414062 0)"/>
      <use xlink:href="#DejaVuSans-52" transform="translate(2397.498047 0)"/>
      <use xlink:href="#DejaVuSans-4c" transform="translate(2466.980469 0)"/>
      <use xlink:href="#DejaVuSans-29" transform="translate(2522.693359 0)"/>
     </g>
    </g>
   </g>
   <g id="line2d_29">
    <path d="M 75.036648 155.822026 
L 85.263341 147.081817 
L 95.490034 145.434237 
L 105.716727 145.454329 
L 115.94342 134.48386 
L 126.170112 140.149927 
L 136.396805 136.191717 
L 146.623498 148.488287 
L 156.850191 147.885514 
L 167.076884 195.886342 
L 177.303577 231.851801 
L 187.53027 200.608064 
L 197.756963 199.322148 
L 207.983656 210.192156 
L 218.210349 216.802567 
L 228.437042 218.751533 
L 238.663735 216.039055 
L 248.890428 215.456374 
L 259.117121 212.482694 
L 269.343814 215.01434 
L 279.570507 227.933776 
L 289.7972 233.90123 
L 300.023893 247.744917 
L 310.250586 256.223925 
L 320.477279 258.554648 
L 330.703971 253.732463 
L 340.930664 260.503614 
L 351.157357 268.05837 
L 361.38405 260.021395 
L 371.610743 255.721614 
L 381.837436 260.423244 
L 392.064129 260.30269 
L 402.290822 258.052337 
L 412.517515 262.050731 
L 422.744208 259.920933 
L 432.970901 261.588605 
L 443.197594 264.10016 
L 453.424287 262.231563 
L 463.65098 259.699916 
L 473.877673 254.757177 
L 484.104366 246.398724 
L 494.331059 259.217698 
L 504.557752 255.239396 
L 514.784445 262.914706 
L 525.011138 254.475883 
L 535.23783 262.593227 
L 545.464523 255.781892 
L 555.691216 267.756983 
L 565.917909 254.877732 
L 576.144602 266.008941 
" clip-path="url(#p20ce3f740c)" style="fill: none; stroke: #64748b; stroke-width: 2.2; stroke-linecap: square"/>
    <defs>
     <path id="mbb798138c2" d="M 0 1.5 
C 0.397805 1.5 0.77937 1.341951 1.06066 1.06066 
C 1.341951 0.77937 1.5 0.397805 1.5 0 
C 1.5 -0.397805 1.341951 -0.77937 1.06066 -1.06066 
C 0.77937 -1.341951 0.397805 -1.5 0 -1.5 
C -0.397805 -1.5 -0.77937 -1.341951 -1.06066 -1.06066 
C -1.341951 -0.77937 -1.5 -0.397805 -1.5 0 
C -1.5 0.397805 -1.341951 0.77937 -1.06066 1.06066 
C -0.77937 1.341951 -0.397805 1.5 0 1.5 
z
" style="stroke: #64748b"/>
    </defs>
    <g clip-path="url(#p20ce3f740c)">
     <use xlink:href="#mbb798138c2" x="75.036648" y="155.822026" style="fill: #64748b; stroke: #64748b"/>
     <use xlink:href="#mbb798138c2" x="85.263341" y="147.081817" style="fill: #64748b; stroke: #64748b"/>
     <use xlink:href="#mbb798138c2" x="95.490034" y="145.434237" style="fill: #64748b; stroke: #64748b"/>
     <use xlink:href="#mbb798138c2" x="105.716727" y="145.454329" style="fill: #64748b; stroke: #64748b"/>
     <use xlink:href="#mbb798138c2" x="115.94342" y="134.48386" style="fill: #64748b; stroke: #64748b"/>
     <use xlink:href="#mbb798138c2" x="126.170112" y="140.149927" style="fill: #64748b; stroke: #64748b"/>
     <use xlink:href="#mbb798138c2" x="136.396805" y="136.191717" style="fill: #64748b; stroke: #64748b"/>
     <use xlink:href="#mbb798138c2" x="146.623498" y="148.488287" style="fill: #64748b; stroke: #64748b"/>
     <use xlink:href="#mbb798138c2" x="156.850191" y="147.885514" style="fill: #64748b; stroke: #64748b"/>
     <use xlink:href="#mbb798138c2" x="167.076884" y="195.886342" style="fill: #64748b; stroke: #64748b"/>
     <use xlink:href="#mbb798138c2" x="177.303577" y="231.851801" style="fill: #64748b; stroke: #64748b"/>
     <use xlink:href="#mbb798138c2" x="187.53027" y="200.608064" style="fill: #64748b; stroke: #64748b"/>
     <use xlink:href="#mbb798138c2" x="197.756963" y="199.322148" style="fill: #64748b; stroke: #64748b"/>
     <use xlink:href="#mbb798138c2" x="207.983656" y="210.192156" style="fill: #64748b; stroke: #64748b"/>
     <use xlink:href="#mbb798138c2" x="218.210349" y="216.802567" style="fill: #64748b; stroke: #64748b"/>
     <use xlink:href="#mbb798138c2" x="228.437042" y="218.751533" style="fill: #64748b; stroke: #64748b"/>
     <use xlink:href="#mbb798138c2" x="238.663735" y="216.039055" style="fill: #64748b; stroke: #64748b"/>
     <use xlink:href="#mbb798138c2" x="248.890428" y="215.456374" style="fill: #64748b; stroke: #64748b"/>
     <use xlink:href="#mbb798138c2" x="259.117121" y="212.482694" style="fill: #64748b; stroke: #64748b"/>
     <use xlink:href="#mbb798138c2" x="269.343814" y="215.01434" style="fill: #64748b; stroke: #64748b"/>
     <use xlink:href="#mbb798138c2" x="279.570507" y="227.933776" style="fill: #64748b; stroke: #64748b"/>
     <use xlink:href="#mbb798138c2" x="289.7972" y="233.90123" style="fill: #64748b; stroke: #64748b"/>
     <use xlink:href="#mbb798138c2" x="300.023893" y="247.744917" style="fill: #64748b; stroke: #64748b"/>
     <use xlink:href="#mbb798138c2" x="310.250586" y="256.223925" style="fill: #64748b; stroke: #64748b"/>
     <use xlink:href="#mbb798138c2" x="320.477279" y="258.554648" style="fill: #64748b; stroke: #64748b"/>
     <use xlink:href="#mbb798138c2" x="330.703971" y="253.732463" style="fill: #64748b; stroke: #64748b"/>
     <use xlink:href="#mbb798138c2" x="340.930664" y="260.503614" style="fill: #64748b; stroke: #64748b"/>
     <use xlink:href="#mbb798138c2" x="351.157357" y="268.05837" style="fill: #64748b; stroke: #64748b"/>
     <use xlink:href="#mbb798138c2" x="361.38405" y="260.021395" style="fill: #64748b; stroke: #64748b"/>
     <use xlink:href="#mbb798138c2" x="371.610743" y="255.721614" style="fill: #64748b; stroke: #64748b"/>
     <use xlink:href="#mbb798138c2" x="381.837436" y="260.423244" style="fill: #64748b; stroke: #64748b"/>
     <use xlink:href="#mbb798138c2" x="392.064129" y="260.30269" style="fill: #64748b; stroke: #64748b"/>
     <use xlink:href="#mbb798138c2" x="402.290822" y="258.052337" style="fill: #64748b; stroke: #64748b"/>
     <use xlink:href="#mbb798138c2" x="412.517515" y="262.050731" style="fill: #64748b; stroke: #64748b"/>
     <use xlink:href="#mbb798138c2" x="422.744208" y="259.920933" style="fill: #64748b; stroke: #64748b"/>
     <use xlink:href="#mbb798138c2" x="432.970901" y="261.588605" style="fill: #64748b; stroke: #64748b"/>
     <use xlink:href="#mbb798138c2" x="443.197594" y="264.10016" style="fill: #64748b; stroke: #64748b"/>
     <use xlink:href="#mbb798138c2" x="453.424287" y="262.231563" style="fill: #64748b; stroke: #64748b"/>
     <use xlink:href="#mbb798138c2" x="463.65098" y="259.699916" style="fill: #64748b; stroke: #64748b"/>
     <use xlink:href="#mbb798138c2" x="473.877673" y="254.757177" style="fill: #64748b; stroke: #64748b"/>
     <use xlink:href="#mbb798138c2" x="484.104366" y="246.398724" style="fill: #64748b; stroke: #64748b"/>
     <use xlink:href="#mbb798138c2" x="494.331059" y="259.217698" style="fill: #64748b; stroke: #64748b"/>
     <use xlink:href="#mbb798138c2" x="504.557752" y="255.239396" style="fill: #64748b; stroke: #64748b"/>
     <use xlink:href="#mbb798138c2" x="514.784445" y="262.914706" style="fill: #64748b; stroke: #64748b"/>
     <use xlink:href="#mbb798138c2" x="525.011138" y="254.475883" style="fill: #64748b; stroke: #64748b"/>
     <use xlink:href="#mbb798138c2" x="535.23783" y="262.593227" style="fill: #64748b; stroke: #64748b"/>
     <use xlink:href="#mbb798138c2" x="545.464523" y="255.781892" style="fill: #64748b; stroke: #64748b"/>
     <use xlink:href="#mbb798138c2" x="555.691216" y="267.756983" style="fill: #64748b; stroke: #64748b"/>
     <use xlink:href="#mbb798138c2" x="565.917909" y="254.877732" style="fill: #64748b; stroke: #64748b"/>
     <use xlink:href="#mbb798138c2" x="576.144602" y="266.008941" style="fill: #64748b; stroke: #64748b"/>
    </g>
   </g>
   <g id="patch_3">
    <path d="M 49.98125 305.8 
L 49.98125 26.7 
" style="fill: none; stroke: #000000; stroke-width: 0.8; stroke-linejoin: miter; stroke-linecap: square"/>
   </g>
   <g id="patch_4">
    <path d="M 601.2 305.8 
L 601.2 26.7 
" style="fill: none; stroke: #000000; stroke-width: 0.8; stroke-linejoin: miter; stroke-linecap: square"/>
   </g>
   <g id="patch_5">
    <path d="M 49.98125 305.8 
L 601.2 305.8 
" style="fill: none; stroke: #000000; stroke-width: 0.8; stroke-linejoin: miter; stroke-linecap: square"/>
   </g>
   <g id="patch_6">
    <path d="M 49.98125 26.7 
L 601.2 26.7 
" style="fill: none; stroke: #000000; stroke-width: 0.8; stroke-linejoin: miter; stroke-linecap: square"/>
   </g>
   <g id="text_17">
    <!-- Completions Become Shorter and More Structured -->
    <g transform="translate(161.49 20.7) scale(0.13 -0.13)">
     <defs>
      <path id="DejaVuSans-42" d="M 1259 2228 
L 1259 519 
L 2272 519 
Q 2781 519 3026 730 
Q 3272 941 3272 1375 
Q 3272 1813 3026 2020 
Q 2781 2228 2272 2228 
L 1259 2228 
z
M 1259 4147 
L 1259 2741 
L 2194 2741 
Q 2656 2741 2882 2914 
Q 3109 3088 3109 3444 
Q 3109 3797 2882 3972 
Q 2656 4147 2194 4147 
L 1259 4147 
z
M 628 4666 
L 2241 4666 
Q 2963 4666 3353 4366 
Q 3744 4066 3744 3513 
Q 3744 3084 3544 2831 
Q 3344 2578 2956 2516 
Q 3422 2416 3680 2098 
Q 3938 1781 3938 1306 
Q 3938 681 3513 340 
Q 3088 0 2303 0 
L 628 0 
L 628 4666 
z
" transform="scale(0.015625)"/>
      <path id="DejaVuSans-53" d="M 3425 4513 
L 3425 3897 
Q 3066 4069 2747 4153 
Q 2428 4238 2131 4238 
Q 1616 4238 1336 4038 
Q 1056 3838 1056 3469 
Q 1056 3159 1242 3001 
Q 1428 2844 1947 2747 
L 2328 2669 
Q 3034 2534 3370 2195 
Q 3706 1856 3706 1288 
Q 3706 609 3251 259 
Q 2797 -91 1919 -91 
Q 1588 -91 1214 -16 
Q 841 59 441 206 
L 441 856 
Q 825 641 1194 531 
Q 1563 422 1919 422 
Q 2459 422 2753 634 
Q 3047 847 3047 1241 
Q 3047 1584 2836 1778 
Q 2625 1972 2144 2069 
L 1759 2144 
Q 1053 2284 737 2584 
Q 422 2884 422 3419 
Q 422 4038 858 4394 
Q 1294 4750 2059 4750 
Q 2388 4750 2728 4690 
Q 3069 4631 3425 4513 
z
" transform="scale(0.015625)"/>
      <path id="DejaVuSans-4d" d="M 628 4666 
L 1569 4666 
L 2759 1491 
L 3956 4666 
L 4897 4666 
L 4897 0 
L 4281 0 
L 4281 4097 
L 3078 897 
L 2444 897 
L 1241 4097 
L 1241 0 
L 628 0 
L 628 4666 
z
" transform="scale(0.015625)"/>
      <path id="DejaVuSans-75" d="M 544 1381 
L 544 3500 
L 1119 3500 
L 1119 1403 
Q 1119 906 1312 657 
Q 1506 409 1894 409 
Q 2359 409 2629 706 
Q 2900 1003 2900 1516 
L 2900 3500 
L 3475 3500 
L 3475 0 
L 2900 0 
L 2900 538 
Q 2691 219 2414 64 
Q 2138 -91 1772 -91 
Q 1169 -91 856 284 
Q 544 659 544 1381 
z
M 1991 3584 
L 1991 3584 
z
" transform="scale(0.015625)"/>
     </defs>
     <use xlink:href="#DejaVuSans-43"/>
     <use xlink:href="#DejaVuSans-6f" transform="translate(69.824219 0)"/>
     <use xlink:href="#DejaVuSans-6d" transform="translate(131.005859 0)"/>
     <use xlink:href="#DejaVuSans-70" transform="translate(228.417969 0)"/>
     <use xlink:href="#DejaVuSans-6c" transform="translate(291.894531 0)"/>
     <use xlink:href="#DejaVuSans-65" transform="translate(319.677734 0)"/>
     <use xlink:href="#DejaVuSans-74" transform="translate(381.201172 0)"/>
     <use xlink:href="#DejaVuSans-69" transform="translate(420.410156 0)"/>
     <use xlink:href="#DejaVuSans-6f" transform="translate(448.193359 0)"/>
     <use xlink:href="#DejaVuSans-6e" transform="translate(509.375 0)"/>
     <use xlink:href="#DejaVuSans-73" transform="translate(572.753906 0)"/>
     <use xlink:href="#DejaVuSans-20" transform="translate(624.853516 0)"/>
     <use xlink:href="#DejaVuSans-42" transform="translate(656.640625 0)"/>
     <use xlink:href="#DejaVuSans-65" transform="translate(725.244141 0)"/>
     <use xlink:href="#DejaVuSans-63" transform="translate(786.767578 0)"/>
     <use xlink:href="#DejaVuSans-6f" transform="translate(841.748047 0)"/>
     <use xlink:href="#DejaVuSans-6d" transform="translate(902.929688 0)"/>
     <use xlink:href="#DejaVuSans-65" transform="translate(1000.341797 0)"/>
     <use xlink:href="#DejaVuSans-20" transform="translate(1061.865234 0)"/>
     <use xlink:href="#DejaVuSans-53" transform="translate(1093.652344 0)"/>
     <use xlink:href="#DejaVuSans-68" transform="translate(1157.128906 0)"/>
     <use xlink:href="#DejaVuSans-6f" transform="translate(1220.507812 0)"/>
     <use xlink:href="#DejaVuSans-72" transform="translate(1281.689453 0)"/>
     <use xlink:href="#DejaVuSans-74" transform="translate(1322.802734 0)"/>
     <use xlink:href="#DejaVuSans-65" transform="translate(1362.011719 0)"/>
     <use xlink:href="#DejaVuSans-72" transform="translate(1423.535156 0)"/>
     <use xlink:href="#DejaVuSans-20" transform="translate(1464.648438 0)"/>
     <use xlink:href="#DejaVuSans-61" transform="translate(1496.435547 0)"/>
     <use xlink:href="#DejaVuSans-6e" transform="translate(1557.714844 0)"/>
     <use xlink:href="#DejaVuSans-64" transform="translate(1621.09375 0)"/>
     <use xlink:href="#DejaVuSans-20" transform="translate(1684.570312 0)"/>
     <use xlink:href="#DejaVuSans-4d" transform="translate(1716.357422 0)"/>
     <use xlink:href="#DejaVuSans-6f" transform="translate(1802.636719 0)"/>
     <use xlink:href="#DejaVuSans-72" transform="translate(1863.818359 0)"/>
     <use xlink:href="#DejaVuSans-65" transform="translate(1902.681641 0)"/>
     <use xlink:href="#DejaVuSans-20" transform="translate(1964.205078 0)"/>
     <use xlink:href="#DejaVuSans-53" transform="translate(1995.992188 0)"/>
     <use xlink:href="#DejaVuSans-74" transform="translate(2059.46875 0)"/>
     <use xlink:href="#DejaVuSans-72" transform="translate(2098.677734 0)"/>
     <use xlink:href="#DejaVuSans-75" transform="translate(2139.791016 0)"/>
     <use xlink:href="#DejaVuSans-63" transform="translate(2203.169922 0)"/>
     <use xlink:href="#DejaVuSans-74" transform="translate(2258.150391 0)"/>
     <use xlink:href="#DejaVuSans-75" transform="translate(2297.359375 0)"/>
     <use xlink:href="#DejaVuSans-72" transform="translate(2360.738281 0)"/>
     <use xlink:href="#DejaVuSans-65" transform="translate(2399.601562 0)"/>
     <use xlink:href="#DejaVuSans-64" transform="translate(2461.125 0)"/>
    </g>
   </g>
   <g id="legend_1">
    <g id="patch_7">
     <path d="M 456.956719 60.320625 
L 594.9 60.320625 
Q 596.7 60.320625 596.7 58.520625 
L 596.7 33 
Q 596.7 31.2 594.9 31.2 
L 456.956719 31.2 
Q 455.156719 31.2 455.156719 33 
L 455.156719 58.520625 
Q 455.156719 60.320625 456.956719 60.320625 
z
" style="fill: #ffffff; opacity: 0.8; stroke: #cccccc; stroke-linejoin: miter"/>
    </g>
    <g id="line2d_30">
     <path d="M 458.756719 38.488594 
L 467.756719 38.488594 
L 476.756719 38.488594 
" style="fill: none; stroke: #64748b; stroke-width: 2.2; stroke-linecap: square"/>
     <g>
      <use xlink:href="#mbb798138c2" x="467.756719" y="38.488594" style="fill: #64748b; stroke: #64748b"/>
     </g>
    </g>
    <g id="text_18">
     <!-- Mean completion length -->
     <g transform="translate(483.956719 41.638594) scale(0.09 -0.09)">
      <use xlink:href="#DejaVuSans-4d"/>
      <use xlink:href="#DejaVuSans-65" transform="translate(86.279297 0)"/>
      <use xlink:href="#DejaVuSans-61" transform="translate(147.802734 0)"/>
      <use xlink:href="#DejaVuSans-6e" transform="translate(209.082031 0)"/>
      <use xlink:href="#DejaVuSans-20" transform="translate(272.460938 0)"/>
      <use xlink:href="#DejaVuSans-63" transform="translate(304.248047 0)"/>
      <use xlink:href="#DejaVuSans-6f" transform="translate(359.228516 0)"/>
      <use xlink:href="#DejaVuSans-6d" transform="translate(420.410156 0)"/>
      <use xlink:href="#DejaVuSans-70" transform="translate(517.822266 0)"/>
      <use xlink:href="#DejaVuSans-6c" transform="translate(581.298828 0)"/>
      <use xlink:href="#DejaVuSans-65" transform="translate(609.082031 0)"/>
      <use xlink:href="#DejaVuSans-74" transform="translate(670.605469 0)"/>
      <use xlink:href="#DejaVuSans-69" transform="translate(709.814453 0)"/>
      <use xlink:href="#DejaVuSans-6f" transform="translate(737.597656 0)"/>
      <use xlink:href="#DejaVuSans-6e" transform="translate(798.779297 0)"/>
      <use xlink:href="#DejaVuSans-20" transform="translate(862.158203 0)"/>
      <use xlink:href="#DejaVuSans-6c" transform="translate(893.945312 0)"/>
      <use xlink:href="#DejaVuSans-65" transform="translate(921.728516 0)"/>
      <use xlink:href="#DejaVuSans-6e" transform="translate(983.251953 0)"/>
      <use xlink:href="#DejaVuSans-67" transform="translate(1046.630859 0)"/>
      <use xlink:href="#DejaVuSans-74" transform="translate(1110.107422 0)"/>
      <use xlink:href="#DejaVuSans-68" transform="translate(1149.316406 0)"/>
     </g>
    </g>
    <g id="patch_8">
     <path d="M 458.756719 54.848906 
L 476.756719 54.848906 
L 476.756719 48.548906 
L 458.756719 48.548906 
z
" style="fill: #64748b; fill-opacity: 0.12; stroke: #64748b; stroke-opacity: 0.12; stroke-linejoin: miter"/>
    </g>
    <g id="text_19">
     <!-- Min-max range -->
     <g transform="translate(483.956719 54.848906) scale(0.09 -0.09)">
      <defs>
       <path id="DejaVuSans-2d" d="M 313 2009 
L 1997 2009 
L 1997 1497 
L 313 1497 
L 313 2009 
z
" transform="scale(0.015625)"/>
       <path id="DejaVuSans-78" d="M 3513 3500 
L 2247 1797 
L 3578 0 
L 2900 0 
L 1881 1375 
L 863 0 
L 184 0 
L 1544 1831 
L 300 3500 
L 978 3500 
L 1906 2253 
L 2834 3500 
L 3513 3500 
z
" transform="scale(0.015625)"/>
      </defs>
      <use xlink:href="#DejaVuSans-4d"/>
      <use xlink:href="#DejaVuSans-69" transform="translate(86.279297 0)"/>
      <use xlink:href="#DejaVuSans-6e" transform="translate(114.0625 0)"/>
      <use xlink:href="#DejaVuSans-2d" transform="translate(177.441406 0)"/>
      <use xlink:href="#DejaVuSans-6d" transform="translate(213.525391 0)"/>
      <use xlink:href="#DejaVuSans-61" transform="translate(310.9375 0)"/>
      <use xlink:href="#DejaVuSans-78" transform="translate(372.216797 0)"/>
      <use xlink:href="#DejaVuSans-20" transform="translate(431.396484 0)"/>
      <use xlink:href="#DejaVuSans-72" transform="translate(463.183594 0)"/>
      <use xlink:href="#DejaVuSans-61" transform="translate(504.296875 0)"/>
      <use xlink:href="#DejaVuSans-6e" transform="translate(565.576172 0)"/>
      <use xlink:href="#DejaVuSans-67" transform="translate(628.955078 0)"/>
      <use xlink:href="#DejaVuSans-65" transform="translate(692.431641 0)"/>
     </g>
    </g>
   </g>
  </g>
 </g>
 <defs>
  <clipPath id="p20ce3f740c">
   <rect x="49.98125" y="26.7" width="551.21875" height="279.1"/>
  </clipPath>
 </defs>
</svg>
