<?xml version="1.0" encoding="utf-8" standalone="no"?>
<!DOCTYPE svg PUBLIC "-//W3C//DTD SVG 1.1//EN"
  "http://www.w3.org/Graphics/SVG/1.1/DTD/svg11.dtd">
<svg xmlns:xlink="http://www.w3.org/1999/xlink" width="612pt" height="345.6pt" viewBox="0 0 612 345.6" xmlns="http://www.w3.org/2000/svg" version="1.1">
 <metadata>
  <rdf:RDF xmlns:dc="http://purl.org/dc/elements/1.1/" xmlns:cc="http://creativecommons.org/ns#" xmlns:rdf="http://www.w3.org/1999/02/22-rdf-syntax-ns#">
   <cc:Work>
    <dc:type rdf:resource="http://purl.org/dc/dcmitype/StillImage"/>
    <dc:date>2026-04-25T02:12:57.826061</dc:date>
    <dc:format>image/svg+xml</dc:format>
    <dc:creator>
     <cc:Agent>
      <dc:title>Matplotlib v3.10.9, https://matplotlib.org/</dc:title>
     </cc:Agent>
    </dc:creator>
   </cc:Work>
  </rdf:RDF>
 </metadata>
 <defs>
  <style type="text/css">*{stroke-linejoin: round; stroke-linecap: butt}</style>
 </defs>
 <g id="figure_1">
  <g id="patch_1">
   <path d="M 0 345.6 
L 612 345.6 
L 612 0 
L 0 0 
z
" style="fill: #ffffff"/>
  </g>
  <g id="axes_1">
   <g id="patch_2">
    <path d="M 46.775 305.8 
L 601.2 305.8 
L 601.2 26.7 
L 46.775 26.7 
z
" style="fill: #ffffff"/>
   </g>
   <g id="matplotlib.axis_1">
    <g id="xtick_1">
     <g id="line2d_1">
      <path d="M 61.689958 305.8 
L 61.689958 26.7 
" clip-path="url(#peb4569cf4a)" style="fill: none; stroke: #b0b0b0; stroke-opacity: 0.25; stroke-width: 0.8; stroke-linecap: square"/>
     </g>
     <g id="line2d_2">
      <defs>
       <path id="m172f8b969a" d="M 0 0 
L 0 3.5 
" style="stroke: #000000; stroke-width: 0.8"/>
      </defs>
      <g>
       <use xlink:href="#m172f8b969a" x="61.689958" y="305.8" style="stroke: #000000; stroke-width: 0.8"/>
      </g>
     </g>
     <g id="text_1">
      <!-- 0 -->
      <g transform="translate(58.508708 320.398437) scale(0.1 -0.1)">
       <defs>
        <path id="DejaVuSans-30" d="M 2034 4250 
Q 1547 4250 1301 3770 
Q 1056 3291 1056 2328 
Q 1056 1369 1301 889 
Q 1547 409 2034 409 
Q 2525 409 2770 889 
Q 3016 1369 3016 2328 
Q 3016 3291 2770 3770 
Q 2525 4250 2034 4250 
z
M 2034 4750 
Q 2819 4750 3233 4129 
Q 3647 3509 3647 2328 
Q 3647 1150 3233 529 
Q 2819 -91 2034 -91 
Q 1250 -91 836 529 
Q 422 1150 422 2328 
Q 422 3509 836 4129 
Q 1250 4750 2034 4750 
z
" transform="scale(0.015625)"/>
       </defs>
       <use xlink:href="#DejaVuSans-30"/>
      </g>
     </g>
    </g>
    <g id="xtick_2">
     <g id="line2d_3">
      <path d="M 164.551739 305.8 
L 164.551739 26.7 
" clip-path="url(#peb4569cf4a)" style="fill: none; stroke: #b0b0b0; stroke-opacity: 0.25; stroke-width: 0.8; stroke-linecap: square"/>
     </g>
     <g id="line2d_4">
      <g>
       <use xlink:href="#m172f8b969a" x="164.551739" y="305.8" style="stroke: #000000; stroke-width: 0.8"/>
      </g>
     </g>
     <g id="text_2">
      <!-- 200 -->
      <g transform="translate(155.007989 320.398437) scale(0.1 -0.1)">
       <defs>
        <path id="DejaVuSans-32" d="M 1228 531 
L 3431 531 
L 3431 0 
L 469 0 
L 469 531 
Q 828 903 1448 1529 
Q 2069 2156 2228 2338 
Q 2531 2678 2651 2914 
Q 2772 3150 2772 3378 
Q 2772 3750 2511 3984 
Q 2250 4219 1831 4219 
Q 1534 4219 1204 4116 
Q 875 4013 500 3803 
L 500 4441 
Q 881 4594 1212 4672 
Q 1544 4750 1819 4750 
Q 2544 4750 2975 4387 
Q 3406 4025 3406 3419 
Q 3406 3131 3298 2873 
Q 3191 2616 2906 2266 
Q 2828 2175 2409 1742 
Q 1991 1309 1228 531 
z
" transform="scale(0.015625)"/>
       </defs>
       <use xlink:href="#DejaVuSans-32"/>
       <use xlink:href="#DejaVuSans-30" transform="translate(63.623047 0)"/>
       <use xlink:href="#DejaVuSans-30" transform="translate(127.246094 0)"/>
      </g>
     </g>
    </g>
    <g id="xtick_3">
     <g id="line2d_5">
      <path d="M 267.41352 305.8 
L 267.41352 26.7 
" clip-path="url(#peb4569cf4a)" style="fill: none; stroke: #b0b0b0; stroke-opacity: 0.25; stroke-width: 0.8; stroke-linecap: square"/>
     </g>
     <g id="line2d_6">
      <g>
       <use xlink:href="#m172f8b969a" x="267.41352" y="305.8" style="stroke: #000000; stroke-width: 0.8"/>
      </g>
     </g>
     <g id="text_3">
      <!-- 400 -->
      <g transform="translate(257.86977 320.398437) scale(0.1 -0.1)">
       <defs>
        <path id="DejaVuSans-34" d="M 2419 4116 
L 825 1625 
L 2419 1625 
L 2419 4116 
z
M 2253 4666 
L 3047 4666 
L 3047 1625 
L 3713 1625 
L 3713 1100 
L 3047 1100 
L 3047 0 
L 2419 0 
L 2419 1100 
L 313 1100 
L 313 1709 
L 2253 4666 
z
" transform="scale(0.015625)"/>
       </defs>
       <use xlink:href="#DejaVuSans-34"/>
       <use xlink:href="#DejaVuSans-30" transform="translate(63.623047 0)"/>
       <use xlink:href="#DejaVuSans-30" transform="translate(127.246094 0)"/>
      </g>
     </g>
    </g>
    <g id="xtick_4">
     <g id="line2d_7">
      <path d="M 370.275301 305.8 
L 370.275301 26.7 
" clip-path="url(#peb4569cf4a)" style="fill: none; stroke: #b0b0b0; stroke-opacity: 0.25; stroke-width: 0.8; stroke-linecap: square"/>
     </g>
     <g id="line2d_8">
      <g>
       <use xlink:href="#m172f8b969a" x="370.275301" y="305.8" style="stroke: #000000; stroke-width: 0.8"/>
      </g>
     </g>
     <g id="text_4">
      <!-- 600 -->
      <g transform="translate(360.731551 320.398437) scale(0.1 -0.1)">
       <defs>
        <path id="DejaVuSans-36" d="M 2113 2584 
Q 1688 2584 1439 2293 
Q 1191 2003 1191 1497 
Q 1191 994 1439 701 
Q 1688 409 2113 409 
Q 2538 409 2786 701 
Q 3034 994 3034 1497 
Q 3034 2003 2786 2293 
Q 2538 2584 2113 2584 
z
M 3366 4563 
L 3366 3988 
Q 3128 4100 2886 4159 
Q 2644 4219 2406 4219 
Q 1781 4219 1451 3797 
Q 1122 3375 1075 2522 
Q 1259 2794 1537 2939 
Q 1816 3084 2150 3084 
Q 2853 3084 3261 2657 
Q 3669 2231 3669 1497 
Q 3669 778 3244 343 
Q 2819 -91 2113 -91 
Q 1303 -91 875 529 
Q 447 1150 447 2328 
Q 447 3434 972 4092 
Q 1497 4750 2381 4750 
Q 2619 4750 2861 4703 
Q 3103 4656 3366 4563 
z
" transform="scale(0.015625)"/>
       </defs>
       <use xlink:href="#DejaVuSans-36"/>
       <use xlink:href="#DejaVuSans-30" transform="translate(63.623047 0)"/>
       <use xlink:href="#DejaVuSans-30" transform="translate(127.246094 0)"/>
      </g>
     </g>
    </g>
    <g id="xtick_5">
     <g id="line2d_9">
      <path d="M 473.137083 305.8 
L 473.137083 26.7 
" clip-path="url(#peb4569cf4a)" style="fill: none; stroke: #b0b0b0; stroke-opacity: 0.25; stroke-width: 0.8; stroke-linecap: square"/>
     </g>
     <g id="line2d_10">
      <g>
       <use xlink:href="#m172f8b969a" x="473.137083" y="305.8" style="stroke: #000000; stroke-width: 0.8"/>
      </g>
     </g>
     <g id="text_5">
      <!-- 800 -->
      <g transform="translate(463.593333 320.398437) scale(0.1 -0.1)">
       <defs>
        <path id="DejaVuSans-38" d="M 2034 2216 
Q 1584 2216 1326 1975 
Q 1069 1734 1069 1313 
Q 1069 891 1326 650 
Q 1584 409 2034 409 
Q 2484 409 2743 651 
Q 3003 894 3003 1313 
Q 3003 1734 2745 1975 
Q 2488 2216 2034 2216 
z
M 1403 2484 
Q 997 2584 770 2862 
Q 544 3141 544 3541 
Q 544 4100 942 4425 
Q 1341 4750 2034 4750 
Q 2731 4750 3128 4425 
Q 3525 4100 3525 3541 
Q 3525 3141 3298 2862 
Q 3072 2584 2669 2484 
Q 3125 2378 3379 2068 
Q 3634 1759 3634 1313 
Q 3634 634 3220 271 
Q 2806 -91 2034 -91 
Q 1263 -91 848 271 
Q 434 634 434 1313 
Q 434 1759 690 2068 
Q 947 2378 1403 2484 
z
M 1172 3481 
Q 1172 3119 1398 2916 
Q 1625 2713 2034 2713 
Q 2441 2713 2670 2916 
Q 2900 3119 2900 3481 
Q 2900 3844 2670 4047 
Q 2441 4250 2034 4250 
Q 1625 4250 1398 4047 
Q 1172 3844 1172 3481 
z
" transform="scale(0.015625)"/>
       </defs>
       <use xlink:href="#DejaVuSans-38"/>
       <use xlink:href="#DejaVuSans-30" transform="translate(63.623047 0)"/>
       <use xlink:href="#DejaVuSans-30" transform="translate(127.246094 0)"/>
      </g>
     </g>
    </g>
    <g id="xtick_6">
     <g id="line2d_11">
      <path d="M 575.998864 305.8 
L 575.998864 26.7 
" clip-path="url(#peb4569cf4a)" style="fill: none; stroke: #b0b0b0; stroke-opacity: 0.25; stroke-width: 0.8; stroke-linecap: square"/>
     </g>
     <g id="line2d_12">
      <g>
       <use xlink:href="#m172f8b969a" x="575.998864" y="305.8" style="stroke: #000000; stroke-width: 0.8"/>
      </g>
     </g>
     <g id="text_6">
      <!-- 1000 -->
      <g transform="translate(563.273864 320.398437) scale(0.1 -0.1)">
       <defs>
        <path id="DejaVuSans-31" d="M 794 531 
L 1825 531 
L 1825 4091 
L 703 3866 
L 703 4441 
L 1819 4666 
L 2450 4666 
L 2450 531 
L 3481 531 
L 3481 0 
L 794 0 
L 794 531 
z
" transform="scale(0.015625)"/>
       </defs>
       <use xlink:href="#DejaVuSans-31"/>
       <use xlink:href="#DejaVuSans-30" transform="translate(63.623047 0)"/>
       <use xlink:href="#DejaVuSans-30" transform="translate(127.246094 0)"/>
       <use xlink:href="#DejaVuSans-30" transform="translate(190.869141 0)"/>
      </g>
     </g>
    </g>
    <g id="text_7">
     <!-- Training step -->
     <g transform="translate(291.857031 334.076562) scale(0.1 -0.1)">
      <defs>
       <path id="DejaVuSans-54" d="M -19 4666 
L 3928 4666 
L 3928 4134 
L 2272 4134 
L 2272 0 
L 1638 0 
L 1638 4134 
L -19 4134 
L -19 4666 
z
" transform="scale(0.015625)"/>
       <path id="DejaVuSans-72" d="M 2631 2963 
Q 2534 3019 2420 3045 
Q 2306 3072 2169 3072 
Q 1681 3072 1420 2755 
Q 1159 2438 1159 1844 
L 1159 0 
L 581 0 
L 581 3500 
L 1159 3500 
L 1159 2956 
Q 1341 3275 1631 3429 
Q 1922 3584 2338 3584 
Q 2397 3584 2469 3576 
Q 2541 3569 2628 3553 
L 2631 2963 
z
" transform="scale(0.015625)"/>
       <path id="DejaVuSans-61" d="M 2194 1759 
Q 1497 1759 1228 1600 
Q 959 1441 959 1056 
Q 959 750 1161 570 
Q 1363 391 1709 391 
Q 2188 391 2477 730 
Q 2766 1069 2766 1631 
L 2766 1759 
L 2194 1759 
z
M 3341 1997 
L 3341 0 
L 2766 0 
L 2766 531 
Q 2569 213 2275 61 
Q 1981 -91 1556 -91 
Q 1019 -91 701 211 
Q 384 513 384 1019 
Q 384 1609 779 1909 
Q 1175 2209 1959 2209 
L 2766 2209 
L 2766 2266 
Q 2766 2663 2505 2880 
Q 2244 3097 1772 3097 
Q 1472 3097 1187 3025 
Q 903 2953 641 2809 
L 641 3341 
Q 956 3463 1253 3523 
Q 1550 3584 1831 3584 
Q 2591 3584 2966 3190 
Q 3341 2797 3341 1997 
z
" transform="scale(0.015625)"/>
       <path id="DejaVuSans-69" d="M 603 3500 
L 1178 3500 
L 1178 0 
L 603 0 
L 603 3500 
z
M 603 4863 
L 1178 4863 
L 1178 4134 
L 603 4134 
L 603 4863 
z
" transform="scale(0.015625)"/>
       <path id="DejaVuSans-6e" d="M 3513 2113 
L 3513 0 
L 2938 0 
L 2938 2094 
Q 2938 2591 2744 2837 
Q 2550 3084 2163 3084 
Q 1697 3084 1428 2787 
Q 1159 2491 1159 1978 
L 1159 0 
L 581 0 
L 581 3500 
L 1159 3500 
L 1159 2956 
Q 1366 3272 1645 3428 
Q 1925 3584 2291 3584 
Q 2894 3584 3203 3211 
Q 3513 2838 3513 2113 
z
" transform="scale(0.015625)"/>
       <path id="DejaVuSans-67" d="M 2906 1791 
Q 2906 2416 2648 2759 
Q 2391 3103 1925 3103 
Q 1463 3103 1205 2759 
Q 947 2416 947 1791 
Q 947 1169 1205 825 
Q 1463 481 1925 481 
Q 2391 481 2648 825 
Q 2906 1169 2906 1791 
z
M 3481 434 
Q 3481 -459 3084 -895 
Q 2688 -1331 1869 -1331 
Q 1566 -1331 1297 -1286 
Q 1028 -1241 775 -1147 
L 775 -588 
Q 1028 -725 1275 -790 
Q 1522 -856 1778 -856 
Q 2344 -856 2625 -561 
Q 2906 -266 2906 331 
L 2906 616 
Q 2728 306 2450 153 
Q 2172 0 1784 0 
Q 1141 0 747 490 
Q 353 981 353 1791 
Q 353 2603 747 3093 
Q 1141 3584 1784 3584 
Q 2172 3584 2450 3431 
Q 2728 3278 2906 2969 
L 2906 3500 
L 3481 3500 
L 3481 434 
z
" transform="scale(0.015625)"/>
       <path id="DejaVuSans-20" transform="scale(0.015625)"/>
       <path id="DejaVuSans-73" d="M 2834 3397 
L 2834 2853 
Q 2591 2978 2328 3040 
Q 2066 3103 1784 3103 
Q 1356 3103 1142 2972 
Q 928 2841 928 2578 
Q 928 2378 1081 2264 
Q 1234 2150 1697 2047 
L 1894 2003 
Q 2506 1872 2764 1633 
Q 3022 1394 3022 966 
Q 3022 478 2636 193 
Q 2250 -91 1575 -91 
Q 1294 -91 989 -36 
Q 684 19 347 128 
L 347 722 
Q 666 556 975 473 
Q 1284 391 1588 391 
Q 1994 391 2212 530 
Q 2431 669 2431 922 
Q 2431 1156 2273 1281 
Q 2116 1406 1581 1522 
L 1381 1569 
Q 847 1681 609 1914 
Q 372 2147 372 2553 
Q 372 3047 722 3315 
Q 1072 3584 1716 3584 
Q 2034 3584 2315 3537 
Q 2597 3491 2834 3397 
z
" transform="scale(0.015625)"/>
       <path id="DejaVuSans-74" d="M 1172 4494 
L 1172 3500 
L 2356 3500 
L 2356 3053 
L 1172 3053 
L 1172 1153 
Q 1172 725 1289 603 
Q 1406 481 1766 481 
L 2356 481 
L 2356 0 
L 1766 0 
Q 1100 0 847 248 
Q 594 497 594 1153 
L 594 3053 
L 172 3053 
L 172 3500 
L 594 3500 
L 594 4494 
L 1172 4494 
z
" transform="scale(0.015625)"/>
       <path id="DejaVuSans-65" d="M 3597 1894 
L 3597 1613 
L 953 1613 
Q 991 1019 1311 708 
Q 1631 397 2203 397 
Q 2534 397 2845 478 
Q 3156 559 3463 722 
L 3463 178 
Q 3153 47 2828 -22 
Q 2503 -91 2169 -91 
Q 1331 -91 842 396 
Q 353 884 353 1716 
Q 353 2575 817 3079 
Q 1281 3584 2069 3584 
Q 2775 3584 3186 3129 
Q 3597 2675 3597 1894 
z
M 3022 2063 
Q 3016 2534 2758 2815 
Q 2500 3097 2075 3097 
Q 1594 3097 1305 2825 
Q 1016 2553 972 2059 
L 3022 2063 
z
" transform="scale(0.015625)"/>
       <path id="DejaVuSans-70" d="M 1159 525 
L 1159 -1331 
L 581 -1331 
L 581 3500 
L 1159 3500 
L 1159 2969 
Q 1341 3281 1617 3432 
Q 1894 3584 2278 3584 
Q 2916 3584 3314 3078 
Q 3713 2572 3713 1747 
Q 3713 922 3314 415 
Q 2916 -91 2278 -91 
Q 1894 -91 1617 61 
Q 1341 213 1159 525 
z
M 3116 1747 
Q 3116 2381 2855 2742 
Q 2594 3103 2138 3103 
Q 1681 3103 1420 2742 
Q 1159 2381 1159 1747 
Q 1159 1113 1420 752 
Q 1681 391 2138 391 
Q 2594 391 2855 752 
Q 3116 1113 3116 1747 
z
" transform="scale(0.015625)"/>
      </defs>
      <use xlink:href="#DejaVuSans-54"/>
      <use xlink:href="#DejaVuSans-72" transform="translate(46.333984 0)"/>
      <use xlink:href="#DejaVuSans-61" transform="translate(87.447266 0)"/>
      <use xlink:href="#DejaVuSans-69" transform="translate(148.726562 0)"/>
      <use xlink:href="#DejaVuSans-6e" transform="translate(176.509766 0)"/>
      <use xlink:href="#DejaVuSans-69" transform="translate(239.888672 0)"/>
      <use xlink:href="#DejaVuSans-6e" transform="translate(267.671875 0)"/>
      <use xlink:href="#DejaVuSans-67" transform="translate(331.050781 0)"/>
      <use xlink:href="#DejaVuSans-20" transform="translate(394.527344 0)"/>
      <use xlink:href="#DejaVuSans-73" transform="translate(426.314453 0)"/>
      <use xlink:href="#DejaVuSans-74" transform="translate(478.414062 0)"/>
      <use xlink:href="#DejaVuSans-65" transform="translate(517.623047 0)"/>
      <use xlink:href="#DejaVuSans-70" transform="translate(579.146484 0)"/>
     </g>
    </g>
   </g>
   <g id="matplotlib.axis_2">
    <g id="ytick_1">
     <g id="line2d_13">
      <path d="M 46.775 298.047222 
L 601.2 298.047222 
" clip-path="url(#peb4569cf4a)" style="fill: none; stroke: #b0b0b0; stroke-opacity: 0.25; stroke-width: 0.8; stroke-linecap: square"/>
     </g>
     <g id="line2d_14">
      <defs>
       <path id="m7341392a31" d="M 0 0 
L -3.5 0 
" style="stroke: #000000; stroke-width: 0.8"/>
      </defs>
      <g>
       <use xlink:href="#m7341392a31" x="46.775" y="298.047222" style="stroke: #000000; stroke-width: 0.8"/>
      </g>
     </g>
     <g id="text_8">
      <!-- 0.0 -->
      <g transform="translate(23.871875 301.846441) scale(0.1 -0.1)">
       <defs>
        <path id="DejaVuSans-2e" d="M 684 794 
L 1344 794 
L 1344 0 
L 684 0 
L 684 794 
z
" transform="scale(0.015625)"/>
       </defs>
       <use xlink:href="#DejaVuSans-30"/>
       <use xlink:href="#DejaVuSans-2e" transform="translate(63.623047 0)"/>
       <use xlink:href="#DejaVuSans-30" transform="translate(95.410156 0)"/>
      </g>
     </g>
    </g>
    <g id="ytick_2">
     <g id="line2d_15">
      <path d="M 46.775 246.362037 
L 601.2 246.362037 
" clip-path="url(#peb4569cf4a)" style="fill: none; stroke: #b0b0b0; stroke-opacity: 0.25; stroke-width: 0.8; stroke-linecap: square"/>
     </g>
     <g id="line2d_16">
      <g>
       <use xlink:href="#m7341392a31" x="46.775" y="246.362037" style="stroke: #000000; stroke-width: 0.8"/>
      </g>
     </g>
     <g id="text_9">
      <!-- 0.2 -->
      <g transform="translate(23.871875 250.161256) scale(0.1 -0.1)">
       <use xlink:href="#DejaVuSans-30"/>
       <use xlink:href="#DejaVuSans-2e" transform="translate(63.623047 0)"/>
       <use xlink:href="#DejaVuSans-32" transform="translate(95.410156 0)"/>
      </g>
     </g>
    </g>
    <g id="ytick_3">
     <g id="line2d_17">
      <path d="M 46.775 194.676852 
L 601.2 194.676852 
" clip-path="url(#peb4569cf4a)" style="fill: none; stroke: #b0b0b0; stroke-opacity: 0.25; stroke-width: 0.8; stroke-linecap: square"/>
     </g>
     <g id="line2d_18">
      <g>
       <use xlink:href="#m7341392a31" x="46.775" y="194.676852" style="stroke: #000000; stroke-width: 0.8"/>
      </g>
     </g>
     <g id="text_10">
      <!-- 0.4 -->
      <g transform="translate(23.871875 198.476071) scale(0.1 -0.1)">
       <use xlink:href="#DejaVuSans-30"/>
       <use xlink:href="#DejaVuSans-2e" transform="translate(63.623047 0)"/>
       <use xlink:href="#DejaVuSans-34" transform="translate(95.410156 0)"/>
      </g>
     </g>
    </g>
    <g id="ytick_4">
     <g id="line2d_19">
      <path d="M 46.775 142.991667 
L 601.2 142.991667 
" clip-path="url(#peb4569cf4a)" style="fill: none; stroke: #b0b0b0; stroke-opacity: 0.25; stroke-width: 0.8; stroke-linecap: square"/>
     </g>
     <g id="line2d_20">
      <g>
       <use xlink:href="#m7341392a31" x="46.775" y="142.991667" style="stroke: #000000; stroke-width: 0.8"/>
      </g>
     </g>
     <g id="text_11">
      <!-- 0.6 -->
      <g transform="translate(23.871875 146.790885) scale(0.1 -0.1)">
       <use xlink:href="#DejaVuSans-30"/>
       <use xlink:href="#DejaVuSans-2e" transform="translate(63.623047 0)"/>
       <use xlink:href="#DejaVuSans-36" transform="translate(95.410156 0)"/>
      </g>
     </g>
    </g>
    <g id="ytick_5">
     <g id="line2d_21">
      <path d="M 46.775 91.306481 
L 601.2 91.306481 
" clip-path="url(#peb4569cf4a)" style="fill: none; stroke: #b0b0b0; stroke-opacity: 0.25; stroke-width: 0.8; stroke-linecap: square"/>
     </g>
     <g id="line2d_22">
      <g>
       <use xlink:href="#m7341392a31" x="46.775" y="91.306481" style="stroke: #000000; stroke-width: 0.8"/>
      </g>
     </g>
     <g id="text_12">
      <!-- 0.8 -->
      <g transform="translate(23.871875 95.1057) scale(0.1 -0.1)">
       <use xlink:href="#DejaVuSans-30"/>
       <use xlink:href="#DejaVuSans-2e" transform="translate(63.623047 0)"/>
       <use xlink:href="#DejaVuSans-38" transform="translate(95.410156 0)"/>
      </g>
     </g>
    </g>
    <g id="ytick_6">
     <g id="line2d_23">
      <path d="M 46.775 39.621296 
L 601.2 39.621296 
" clip-path="url(#peb4569cf4a)" style="fill: none; stroke: #b0b0b0; stroke-opacity: 0.25; stroke-width: 0.8; stroke-linecap: square"/>
     </g>
     <g id="line2d_24">
      <g>
       <use xlink:href="#m7341392a31" x="46.775" y="39.621296" style="stroke: #000000; stroke-width: 0.8"/>
      </g>
     </g>
     <g id="text_13">
      <!-- 1.0 -->
      <g transform="translate(23.871875 43.420515) scale(0.1 -0.1)">
       <use xlink:href="#DejaVuSans-31"/>
       <use xlink:href="#DejaVuSans-2e" transform="translate(63.623047 0)"/>
       <use xlink:href="#DejaVuSans-30" transform="translate(95.410156 0)"/>
      </g>
     </g>
    </g>
    <g id="text_14">
     <!-- Value -->
     <g transform="translate(17.792187 179.98125) rotate(-90) scale(0.1 -0.1)">
      <defs>
       <path id="DejaVuSans-56" d="M 1831 0 
L 50 4666 
L 709 4666 
L 2188 738 
L 3669 4666 
L 4325 4666 
L 2547 0 
L 1831 0 
z
" transform="scale(0.015625)"/>
       <path id="DejaVuSans-6c" d="M 603 4863 
L 1178 4863 
L 1178 0 
L 603 0 
L 603 4863 
z
" transform="scale(0.015625)"/>
       <path id="DejaVuSans-75" d="M 544 1381 
L 544 3500 
L 1119 3500 
L 1119 1403 
Q 1119 906 1312 657 
Q 1506 409 1894 409 
Q 2359 409 2629 706 
Q 2900 1003 2900 1516 
L 2900 3500 
L 3475 3500 
L 3475 0 
L 2900 0 
L 2900 538 
Q 2691 219 2414 64 
Q 2138 -91 1772 -91 
Q 1169 -91 856 284 
Q 544 659 544 1381 
z
M 1991 3584 
L 1991 3584 
z
" transform="scale(0.015625)"/>
      </defs>
      <use xlink:href="#DejaVuSans-56"/>
      <use xlink:href="#DejaVuSans-61" transform="translate(60.658203 0)"/>
      <use xlink:href="#DejaVuSans-6c" transform="translate(121.9375 0)"/>
      <use xlink:href="#DejaVuSans-75" transform="translate(149.720703 0)"/>
      <use xlink:href="#DejaVuSans-65" transform="translate(213.099609 0)"/>
     </g>
    </g>
   </g>
   <g id="line2d_25">
    <path d="M 71.976136 298.047222 
L 82.262314 295.540491 
L 92.548493 298.047222 
L 102.834671 295.540491 
L 113.120849 293.925329 
L 123.407027 298.047222 
L 133.693205 298.047222 
L 143.979383 295.540491 
L 154.265561 290.423657 
L 164.551739 236.833705 
L 174.837917 230.096612 
L 185.124096 234.042705 
L 195.410274 219.020774 
L 205.696452 202.976044 
L 215.98263 194.278953 
L 226.268808 203.287216 
L 236.554986 215.273594 
L 246.841164 222.849031 
L 257.127342 210.457695 
L 267.41352 212.568348 
L 277.699699 215.00722 
L 287.985877 229.190707 
L 298.272055 247.100369 
L 308.558233 252.004274 
L 318.844411 262.643154 
L 329.130589 267.068427 
L 339.416767 254.546062 
L 349.702945 262.923674 
L 359.989123 277.620433 
L 370.275301 275.783831 
L 380.56148 215.189947 
L 390.847658 197.532344 
L 401.133836 242.60993 
L 411.420014 243.83888 
L 421.706192 265.624931 
L 431.99237 256.19404 
L 442.278548 271.363809 
L 452.564726 276.227368 
L 462.850904 270.293673 
L 473.137083 268.219391 
L 483.423261 266.432371 
L 493.709439 248.456131 
L 503.995617 290.992195 
L 514.281795 283.239418 
L 524.567973 270.666997 
L 534.854151 280.758529 
L 545.140329 267.092198 
L 555.426507 267.363357 
L 565.712686 289.402875 
L 575.998864 273.09798 
" clip-path="url(#peb4569cf4a)" style="fill: none; stroke: #f97316; stroke-width: 2; stroke-linecap: square"/>
    <defs>
     <path id="m2820f88e3b" d="M 0 1.5 
C 0.397805 1.5 0.77937 1.341951 1.06066 1.06066 
C 1.341951 0.77937 1.5 0.397805 1.5 0 
C 1.5 -0.397805 1.341951 -0.77937 1.06066 -1.06066 
C 0.77937 -1.341951 0.397805 -1.5 0 -1.5 
C -0.397805 -1.5 -0.77937 -1.341951 -1.06066 -1.06066 
C -1.341951 -0.77937 -1.5 -0.397805 -1.5 0 
C -1.5 0.397805 -1.341951 0.77937 -1.06066 1.06066 
C -0.77937 1.341951 -0.397805 1.5 0 1.5 
z
" style="stroke: #f97316"/>
    </defs>
    <g clip-path="url(#peb4569cf4a)">
     <use xlink:href="#m2820f88e3b" x="71.976136" y="298.047222" style="fill: #f97316; stroke: #f97316"/>
     <use xlink:href="#m2820f88e3b" x="82.262314" y="295.540491" style="fill: #f97316; stroke: #f97316"/>
     <use xlink:href="#m2820f88e3b" x="92.548493" y="298.047222" style="fill: #f97316; stroke: #f97316"/>
     <use xlink:href="#m2820f88e3b" x="102.834671" y="295.540491" style="fill: #f97316; stroke: #f97316"/>
     <use xlink:href="#m2820f88e3b" x="113.120849" y="293.925329" style="fill: #f97316; stroke: #f97316"/>
     <use xlink:href="#m2820f88e3b" x="123.407027" y="298.047222" style="fill: #f97316; stroke: #f97316"/>
     <use xlink:href="#m2820f88e3b" x="133.693205" y="298.047222" style="fill: #f97316; stroke: #f97316"/>
     <use xlink:href="#m2820f88e3b" x="143.979383" y="295.540491" style="fill: #f97316; stroke: #f97316"/>
     <use xlink:href="#m2820f88e3b" x="154.265561" y="290.423657" style="fill: #f97316; stroke: #f97316"/>
     <use xlink:href="#m2820f88e3b" x="164.551739" y="236.833705" style="fill: #f97316; stroke: #f97316"/>
     <use xlink:href="#m2820f88e3b" x="174.837917" y="230.096612" style="fill: #f97316; stroke: #f97316"/>
     <use xlink:href="#m2820f88e3b" x="185.124096" y="234.042705" style="fill: #f97316; stroke: #f97316"/>
     <use xlink:href="#m2820f88e3b" x="195.410274" y="219.020774" style="fill: #f97316; stroke: #f97316"/>
     <use xlink:href="#m2820f88e3b" x="205.696452" y="202.976044" style="fill: #f97316; stroke: #f97316"/>
     <use xlink:href="#m2820f88e3b" x="215.98263" y="194.278953" style="fill: #f97316; stroke: #f97316"/>
     <use xlink:href="#m2820f88e3b" x="226.268808" y="203.287216" style="fill: #f97316; stroke: #f97316"/>
     <use xlink:href="#m2820f88e3b" x="236.554986" y="215.273594" style="fill: #f97316; stroke: #f97316"/>
     <use xlink:href="#m2820f88e3b" x="246.841164" y="222.849031" style="fill: #f97316; stroke: #f97316"/>
     <use xlink:href="#m2820f88e3b" x="257.127342" y="210.457695" style="fill: #f97316; stroke: #f97316"/>
     <use xlink:href="#m2820f88e3b" x="267.41352" y="212.568348" style="fill: #f97316; stroke: #f97316"/>
     <use xlink:href="#m2820f88e3b" x="277.699699" y="215.00722" style="fill: #f97316; stroke: #f97316"/>
     <use xlink:href="#m2820f88e3b" x="287.985877" y="229.190707" style="fill: #f97316; stroke: #f97316"/>
     <use xlink:href="#m2820f88e3b" x="298.272055" y="247.100369" style="fill: #f97316; stroke: #f97316"/>
     <use xlink:href="#m2820f88e3b" x="308.558233" y="252.004274" style="fill: #f97316; stroke: #f97316"/>
     <use xlink:href="#m2820f88e3b" x="318.844411" y="262.643154" style="fill: #f97316; stroke: #f97316"/>
     <use xlink:href="#m2820f88e3b" x="329.130589" y="267.068427" style="fill: #f97316; stroke: #f97316"/>
     <use xlink:href="#m2820f88e3b" x="339.416767" y="254.546062" style="fill: #f97316; stroke: #f97316"/>
     <use xlink:href="#m2820f88e3b" x="349.702945" y="262.923674" style="fill: #f97316; stroke: #f97316"/>
     <use xlink:href="#m2820f88e3b" x="359.989123" y="277.620433" style="fill: #f97316; stroke: #f97316"/>
     <use xlink:href="#m2820f88e3b" x="370.275301" y="275.783831" style="fill: #f97316; stroke: #f97316"/>
     <use xlink:href="#m2820f88e3b" x="380.56148" y="215.189947" style="fill: #f97316; stroke: #f97316"/>
     <use xlink:href="#m2820f88e3b" x="390.847658" y="197.532344" style="fill: #f97316; stroke: #f97316"/>
     <use xlink:href="#m2820f88e3b" x="401.133836" y="242.60993" style="fill: #f97316; stroke: #f97316"/>
     <use xlink:href="#m2820f88e3b" x="411.420014" y="243.83888" style="fill: #f97316; stroke: #f97316"/>
     <use xlink:href="#m2820f88e3b" x="421.706192" y="265.624931" style="fill: #f97316; stroke: #f97316"/>
     <use xlink:href="#m2820f88e3b" x="431.99237" y="256.19404" style="fill: #f97316; stroke: #f97316"/>
     <use xlink:href="#m2820f88e3b" x="442.278548" y="271.363809" style="fill: #f97316; stroke: #f97316"/>
     <use xlink:href="#m2820f88e3b" x="452.564726" y="276.227368" style="fill: #f97316; stroke: #f97316"/>
     <use xlink:href="#m2820f88e3b" x="462.850904" y="270.293673" style="fill: #f97316; stroke: #f97316"/>
     <use xlink:href="#m2820f88e3b" x="473.137083" y="268.219391" style="fill: #f97316; stroke: #f97316"/>
     <use xlink:href="#m2820f88e3b" x="483.423261" y="266.432371" style="fill: #f97316; stroke: #f97316"/>
     <use xlink:href="#m2820f88e3b" x="493.709439" y="248.456131" style="fill: #f97316; stroke: #f97316"/>
     <use xlink:href="#m2820f88e3b" x="503.995617" y="290.992195" style="fill: #f97316; stroke: #f97316"/>
     <use xlink:href="#m2820f88e3b" x="514.281795" y="283.239418" style="fill: #f97316; stroke: #f97316"/>
     <use xlink:href="#m2820f88e3b" x="524.567973" y="270.666997" style="fill: #f97316; stroke: #f97316"/>
     <use xlink:href="#m2820f88e3b" x="534.854151" y="280.758529" style="fill: #f97316; stroke: #f97316"/>
     <use xlink:href="#m2820f88e3b" x="545.140329" y="267.092198" style="fill: #f97316; stroke: #f97316"/>
     <use xlink:href="#m2820f88e3b" x="555.426507" y="267.363357" style="fill: #f97316; stroke: #f97316"/>
     <use xlink:href="#m2820f88e3b" x="565.712686" y="289.402875" style="fill: #f97316; stroke: #f97316"/>
     <use xlink:href="#m2820f88e3b" x="575.998864" y="273.09798" style="fill: #f97316; stroke: #f97316"/>
    </g>
   </g>
   <g id="line2d_26">
    <path d="M 71.976136 39.621296 
L 82.262314 52.542593 
L 92.548493 39.621296 
L 102.834671 52.542593 
L 113.120849 52.542593 
L 123.407027 39.621296 
L 133.693205 39.621296 
L 143.979383 52.542593 
L 154.265561 65.463889 
L 164.551739 233.440741 
L 174.837917 272.20463 
L 185.124096 285.125926 
L 195.410274 272.20463 
L 205.696452 298.047222 
L 215.98263 298.047222 
L 226.268808 272.20463 
L 236.554986 285.125926 
L 246.841164 298.047222 
L 257.127342 298.047222 
L 267.41352 285.125926 
L 277.699699 298.047222 
L 287.985877 298.047222 
L 298.272055 272.20463 
L 308.558233 233.440741 
L 318.844411 194.676852 
L 329.130589 142.991667 
L 339.416767 168.834259 
L 349.702945 142.991667 
L 359.989123 91.306481 
L 370.275301 155.912963 
L 380.56148 220.519444 
L 390.847658 259.283333 
L 401.133836 194.676852 
L 411.420014 246.362037 
L 421.706192 155.912963 
L 431.99237 194.676852 
L 442.278548 142.991667 
L 452.564726 130.07037 
L 462.850904 130.07037 
L 473.137083 155.912963 
L 483.423261 142.991667 
L 493.709439 181.755556 
L 503.995617 91.306481 
L 514.281795 104.227778 
L 524.567973 155.912963 
L 534.854151 91.306481 
L 545.140329 130.07037 
L 555.426507 130.07037 
L 565.712686 65.463889 
L 575.998864 117.149074 
" clip-path="url(#peb4569cf4a)" style="fill: none; stroke: #0f766e; stroke-width: 2; stroke-linecap: square"/>
    <defs>
     <path id="mff85c80306" d="M -1.5 1.5 
L 1.5 1.5 
L 1.5 -1.5 
L -1.5 -1.5 
z
" style="stroke: #0f766e; stroke-linejoin: miter"/>
    </defs>
    <g clip-path="url(#peb4569cf4a)">
     <use xlink:href="#mff85c80306" x="71.976136" y="39.621296" style="fill: #0f766e; stroke: #0f766e; stroke-linejoin: miter"/>
     <use xlink:href="#mff85c80306" x="82.262314" y="52.542593" style="fill: #0f766e; stroke: #0f766e; stroke-linejoin: miter"/>
     <use xlink:href="#mff85c80306" x="92.548493" y="39.621296" style="fill: #0f766e; stroke: #0f766e; stroke-linejoin: miter"/>
     <use xlink:href="#mff85c80306" x="102.834671" y="52.542593" style="fill: #0f766e; stroke: #0f766e; stroke-linejoin: miter"/>
     <use xlink:href="#mff85c80306" x="113.120849" y="52.542593" style="fill: #0f766e; stroke: #0f766e; stroke-linejoin: miter"/>
     <use xlink:href="#mff85c80306" x="123.407027" y="39.621296" style="fill: #0f766e; stroke: #0f766e; stroke-linejoin: miter"/>
     <use xlink:href="#mff85c80306" x="133.693205" y="39.621296" style="fill: #0f766e; stroke: #0f766e; stroke-linejoin: miter"/>
     <use xlink:href="#mff85c80306" x="143.979383" y="52.542593" style="fill: #0f766e; stroke: #0f766e; stroke-linejoin: miter"/>
     <use xlink:href="#mff85c80306" x="154.265561" y="65.463889" style="fill: #0f766e; stroke: #0f766e; stroke-linejoin: miter"/>
     <use xlink:href="#mff85c80306" x="164.551739" y="233.440741" style="fill: #0f766e; stroke: #0f766e; stroke-linejoin: miter"/>
     <use xlink:href="#mff85c80306" x="174.837917" y="272.20463" style="fill: #0f766e; stroke: #0f766e; stroke-linejoin: miter"/>
     <use xlink:href="#mff85c80306" x="185.124096" y="285.125926" style="fill: #0f766e; stroke: #0f766e; stroke-linejoin: miter"/>
     <use xlink:href="#mff85c80306" x="195.410274" y="272.20463" style="fill: #0f766e; stroke: #0f766e; stroke-linejoin: miter"/>
     <use xlink:href="#mff85c80306" x="205.696452" y="298.047222" style="fill: #0f766e; stroke: #0f766e; stroke-linejoin: miter"/>
     <use xlink:href="#mff85c80306" x="215.98263" y="298.047222" style="fill: #0f766e; stroke: #0f766e; stroke-linejoin: miter"/>
     <use xlink:href="#mff85c80306" x="226.268808" y="272.20463" style="fill: #0f766e; stroke: #0f766e; stroke-linejoin: miter"/>
     <use xlink:href="#mff85c80306" x="236.554986" y="285.125926" style="fill: #0f766e; stroke: #0f766e; stroke-linejoin: miter"/>
     <use xlink:href="#mff85c80306" x="246.841164" y="298.047222" style="fill: #0f766e; stroke: #0f766e; stroke-linejoin: miter"/>
     <use xlink:href="#mff85c80306" x="257.127342" y="298.047222" style="fill: #0f766e; stroke: #0f766e; stroke-linejoin: miter"/>
     <use xlink:href="#mff85c80306" x="267.41352" y="285.125926" style="fill: #0f766e; stroke: #0f766e; stroke-linejoin: miter"/>
     <use xlink:href="#mff85c80306" x="277.699699" y="298.047222" style="fill: #0f766e; stroke: #0f766e; stroke-linejoin: miter"/>
     <use xlink:href="#mff85c80306" x="287.985877" y="298.047222" style="fill: #0f766e; stroke: #0f766e; stroke-linejoin: miter"/>
     <use xlink:href="#mff85c80306" x="298.272055" y="272.20463" style="fill: #0f766e; stroke: #0f766e; stroke-linejoin: miter"/>
     <use xlink:href="#mff85c80306" x="308.558233" y="233.440741" style="fill: #0f766e; stroke: #0f766e; stroke-linejoin: miter"/>
     <use xlink:href="#mff85c80306" x="318.844411" y="194.676852" style="fill: #0f766e; stroke: #0f766e; stroke-linejoin: miter"/>
     <use xlink:href="#mff85c80306" x="329.130589" y="142.991667" style="fill: #0f766e; stroke: #0f766e; stroke-linejoin: miter"/>
     <use xlink:href="#mff85c80306" x="339.416767" y="168.834259" style="fill: #0f766e; stroke: #0f766e; stroke-linejoin: miter"/>
     <use xlink:href="#mff85c80306" x="349.702945" y="142.991667" style="fill: #0f766e; stroke: #0f766e; stroke-linejoin: miter"/>
     <use xlink:href="#mff85c80306" x="359.989123" y="91.306481" style="fill: #0f766e; stroke: #0f766e; stroke-linejoin: miter"/>
     <use xlink:href="#mff85c80306" x="370.275301" y="155.912963" style="fill: #0f766e; stroke: #0f766e; stroke-linejoin: miter"/>
     <use xlink:href="#mff85c80306" x="380.56148" y="220.519444" style="fill: #0f766e; stroke: #0f766e; stroke-linejoin: miter"/>
     <use xlink:href="#mff85c80306" x="390.847658" y="259.283333" style="fill: #0f766e; stroke: #0f766e; stroke-linejoin: miter"/>
     <use xlink:href="#mff85c80306" x="401.133836" y="194.676852" style="fill: #0f766e; stroke: #0f766e; stroke-linejoin: miter"/>
     <use xlink:href="#mff85c80306" x="411.420014" y="246.362037" style="fill: #0f766e; stroke: #0f766e; stroke-linejoin: miter"/>
     <use xlink:href="#mff85c80306" x="421.706192" y="155.912963" style="fill: #0f766e; stroke: #0f766e; stroke-linejoin: miter"/>
     <use xlink:href="#mff85c80306" x="431.99237" y="194.676852" style="fill: #0f766e; stroke: #0f766e; stroke-linejoin: miter"/>
     <use xlink:href="#mff85c80306" x="442.278548" y="142.991667" style="fill: #0f766e; stroke: #0f766e; stroke-linejoin: miter"/>
     <use xlink:href="#mff85c80306" x="452.564726" y="130.07037" style="fill: #0f766e; stroke: #0f766e; stroke-linejoin: miter"/>
     <use xlink:href="#mff85c80306" x="462.850904" y="130.07037" style="fill: #0f766e; stroke: #0f766e; stroke-linejoin: miter"/>
     <use xlink:href="#mff85c80306" x="473.137083" y="155.912963" style="fill: #0f766e; stroke: #0f766e; stroke-linejoin: miter"/>
     <use xlink:href="#mff85c80306" x="483.423261" y="142.991667" style="fill: #0f766e; stroke: #0f766e; stroke-linejoin: miter"/>
     <use xlink:href="#mff85c80306" x="493.709439" y="181.755556" style="fill: #0f766e; stroke: #0f766e; stroke-linejoin: miter"/>
     <use xlink:href="#mff85c80306" x="503.995617" y="91.306481" style="fill: #0f766e; stroke: #0f766e; stroke-linejoin: miter"/>
     <use xlink:href="#mff85c80306" x="514.281795" y="104.227778" style="fill: #0f766e; stroke: #0f766e; stroke-linejoin: miter"/>
     <use xlink:href="#mff85c80306" x="524.567973" y="155.912963" style="fill: #0f766e; stroke: #0f766e; stroke-linejoin: miter"/>
     <use xlink:href="#mff85c80306" x="534.854151" y="91.306481" style="fill: #0f766e; stroke: #0f766e; stroke-linejoin: miter"/>
     <use xlink:href="#mff85c80306" x="545.140329" y="130.07037" style="fill: #0f766e; stroke: #0f766e; stroke-linejoin: miter"/>
     <use xlink:href="#mff85c80306" x="555.426507" y="130.07037" style="fill: #0f766e; stroke: #0f766e; stroke-linejoin: miter"/>
     <use xlink:href="#mff85c80306" x="565.712686" y="65.463889" style="fill: #0f766e; stroke: #0f766e; stroke-linejoin: miter"/>
     <use xlink:href="#mff85c80306" x="575.998864" y="117.149074" style="fill: #0f766e; stroke: #0f766e; stroke-linejoin: miter"/>
    </g>
   </g>
   <g id="patch_3">
    <path d="M 46.775 305.8 
L 46.775 26.7 
" style="fill: none; stroke: #000000; stroke-width: 0.8; stroke-linejoin: miter; stroke-linecap: square"/>
   </g>
   <g id="patch_4">
    <path d="M 601.2 305.8 
L 601.2 26.7 
" style="fill: none; stroke: #000000; stroke-width: 0.8; stroke-linejoin: miter; stroke-linecap: square"/>
   </g>
   <g id="patch_5">
    <path d="M 46.775 305.8 
L 601.2 305.8 
" style="fill: none; stroke: #000000; stroke-width: 0.8; stroke-linejoin: miter; stroke-linecap: square"/>
   </g>
   <g id="patch_6">
    <path d="M 46.775 26.7 
L 601.2 26.7 
" style="fill: none; stroke: #000000; stroke-width: 0.8; stroke-linejoin: miter; stroke-linecap: square"/>
   </g>
   <g id="text_15">
    <!-- Reward Variability Drops as Policy Stabilizes -->
    <g transform="translate(181.042344 20.7) scale(0.13 -0.13)">
     <defs>
      <path id="DejaVuSans-52" d="M 2841 2188 
Q 3044 2119 3236 1894 
Q 3428 1669 3622 1275 
L 4263 0 
L 3584 0 
L 2988 1197 
Q 2756 1666 2539 1819 
Q 2322 1972 1947 1972 
L 1259 1972 
L 1259 0 
L 628 0 
L 628 4666 
L 2053 4666 
Q 2853 4666 3247 4331 
Q 3641 3997 3641 3322 
Q 3641 2881 3436 2590 
Q 3231 2300 2841 2188 
z
M 1259 4147 
L 1259 2491 
L 2053 2491 
Q 2509 2491 2742 2702 
Q 2975 2913 2975 3322 
Q 2975 3731 2742 3939 
Q 2509 4147 2053 4147 
L 1259 4147 
z
" transform="scale(0.015625)"/>
      <path id="DejaVuSans-77" d="M 269 3500 
L 844 3500 
L 1563 769 
L 2278 3500 
L 2956 3500 
L 3675 769 
L 4391 3500 
L 4966 3500 
L 4050 0 
L 3372 0 
L 2619 2869 
L 1863 0 
L 1184 0 
L 269 3500 
z
" transform="scale(0.015625)"/>
      <path id="DejaVuSans-64" d="M 2906 2969 
L 2906 4863 
L 3481 4863 
L 3481 0 
L 2906 0 
L 2906 525 
Q 2725 213 2448 61 
Q 2172 -91 1784 -91 
Q 1150 -91 751 415 
Q 353 922 353 1747 
Q 353 2572 751 3078 
Q 1150 3584 1784 3584 
Q 2172 3584 2448 3432 
Q 2725 3281 2906 2969 
z
M 947 1747 
Q 947 1113 1208 752 
Q 1469 391 1925 391 
Q 2381 391 2643 752 
Q 2906 1113 2906 1747 
Q 2906 2381 2643 2742 
Q 2381 3103 1925 3103 
Q 1469 3103 1208 2742 
Q 947 2381 947 1747 
z
" transform="scale(0.015625)"/>
      <path id="DejaVuSans-62" d="M 3116 1747 
Q 3116 2381 2855 2742 
Q 2594 3103 2138 3103 
Q 1681 3103 1420 2742 
Q 1159 2381 1159 1747 
Q 1159 1113 1420 752 
Q 1681 391 2138 391 
Q 2594 391 2855 752 
Q 3116 1113 3116 1747 
z
M 1159 2969 
Q 1341 3281 1617 3432 
Q 1894 3584 2278 3584 
Q 2916 3584 3314 3078 
Q 3713 2572 3713 1747 
Q 3713 922 3314 415 
Q 2916 -91 2278 -91 
Q 1894 -91 1617 61 
Q 1341 213 1159 525 
L 1159 0 
L 581 0 
L 581 4863 
L 1159 4863 
L 1159 2969 
z
" transform="scale(0.015625)"/>
      <path id="DejaVuSans-79" d="M 2059 -325 
Q 1816 -950 1584 -1140 
Q 1353 -1331 966 -1331 
L 506 -1331 
L 506 -850 
L 844 -850 
Q 1081 -850 1212 -737 
Q 1344 -625 1503 -206 
L 1606 56 
L 191 3500 
L 800 3500 
L 1894 763 
L 2988 3500 
L 3597 3500 
L 2059 -325 
z
" transform="scale(0.015625)"/>
      <path id="DejaVuSans-44" d="M 1259 4147 
L 1259 519 
L 2022 519 
Q 2988 519 3436 956 
Q 3884 1394 3884 2338 
Q 3884 3275 3436 3711 
Q 2988 4147 2022 4147 
L 1259 4147 
z
M 628 4666 
L 1925 4666 
Q 3281 4666 3915 4102 
Q 4550 3538 4550 2338 
Q 4550 1131 3912 565 
Q 3275 0 1925 0 
L 628 0 
L 628 4666 
z
" transform="scale(0.015625)"/>
      <path id="DejaVuSans-6f" d="M 1959 3097 
Q 1497 3097 1228 2736 
Q 959 2375 959 1747 
Q 959 1119 1226 758 
Q 1494 397 1959 397 
Q 2419 397 2687 759 
Q 2956 1122 2956 1747 
Q 2956 2369 2687 2733 
Q 2419 3097 1959 3097 
z
M 1959 3584 
Q 2709 3584 3137 3096 
Q 3566 2609 3566 1747 
Q 3566 888 3137 398 
Q 2709 -91 1959 -91 
Q 1206 -91 779 398 
Q 353 888 353 1747 
Q 353 2609 779 3096 
Q 1206 3584 1959 3584 
z
" transform="scale(0.015625)"/>
      <path id="DejaVuSans-50" d="M 1259 4147 
L 1259 2394 
L 2053 2394 
Q 2494 2394 2734 2622 
Q 2975 2850 2975 3272 
Q 2975 3691 2734 3919 
Q 2494 4147 2053 4147 
L 1259 4147 
z
M 628 4666 
L 2053 4666 
Q 2838 4666 3239 4311 
Q 3641 3956 3641 3272 
Q 3641 2581 3239 2228 
Q 2838 1875 2053 1875 
L 1259 1875 
L 1259 0 
L 628 0 
L 628 4666 
z
" transform="scale(0.015625)"/>
      <path id="DejaVuSans-63" d="M 3122 3366 
L 3122 2828 
Q 2878 2963 2633 3030 
Q 2388 3097 2138 3097 
Q 1578 3097 1268 2742 
Q 959 2388 959 1747 
Q 959 1106 1268 751 
Q 1578 397 2138 397 
Q 2388 397 2633 464 
Q 2878 531 3122 666 
L 3122 134 
Q 2881 22 2623 -34 
Q 2366 -91 2075 -91 
Q 1284 -91 818 406 
Q 353 903 353 1747 
Q 353 2603 823 3093 
Q 1294 3584 2113 3584 
Q 2378 3584 2631 3529 
Q 2884 3475 3122 3366 
z
" transform="scale(0.015625)"/>
      <path id="DejaVuSans-53" d="M 3425 4513 
L 3425 3897 
Q 3066 4069 2747 4153 
Q 2428 4238 2131 4238 
Q 1616 4238 1336 4038 
Q 1056 3838 1056 3469 
Q 1056 3159 1242 3001 
Q 1428 2844 1947 2747 
L 2328 2669 
Q 3034 2534 3370 2195 
Q 3706 1856 3706 1288 
Q 3706 609 3251 259 
Q 2797 -91 1919 -91 
Q 1588 -91 1214 -16 
Q 841 59 441 206 
L 441 856 
Q 825 641 1194 531 
Q 1563 422 1919 422 
Q 2459 422 2753 634 
Q 3047 847 3047 1241 
Q 3047 1584 2836 1778 
Q 2625 1972 2144 2069 
L 1759 2144 
Q 1053 2284 737 2584 
Q 422 2884 422 3419 
Q 422 4038 858 4394 
Q 1294 4750 2059 4750 
Q 2388 4750 2728 4690 
Q 3069 4631 3425 4513 
z
" transform="scale(0.015625)"/>
      <path id="DejaVuSans-7a" d="M 353 3500 
L 3084 3500 
L 3084 2975 
L 922 459 
L 3084 459 
L 3084 0 
L 275 0 
L 275 525 
L 2438 3041 
L 353 3041 
L 353 3500 
z
" transform="scale(0.015625)"/>
     </defs>
     <use xlink:href="#DejaVuSans-52"/>
     <use xlink:href="#DejaVuSans-65" transform="translate(64.982422 0)"/>
     <use xlink:href="#DejaVuSans-77" transform="translate(126.505859 0)"/>
     <use xlink:href="#DejaVuSans-61" transform="translate(208.292969 0)"/>
     <use xlink:href="#DejaVuSans-72" transform="translate(269.572266 0)"/>
     <use xlink:href="#DejaVuSans-64" transform="translate(308.935547 0)"/>
     <use xlink:href="#DejaVuSans-20" transform="translate(372.412109 0)"/>
     <use xlink:href="#DejaVuSans-56" transform="translate(404.199219 0)"/>
     <use xlink:href="#DejaVuSans-61" transform="translate(464.857422 0)"/>
     <use xlink:href="#DejaVuSans-72" transform="translate(526.136719 0)"/>
     <use xlink:href="#DejaVuSans-69" transform="translate(567.25 0)"/>
     <use xlink:href="#DejaVuSans-61" transform="translate(595.033203 0)"/>
     <use xlink:href="#DejaVuSans-62" transform="translate(656.3125 0)"/>
     <use xlink:href="#DejaVuSans-69" transform="translate(719.789062 0)"/>
     <use xlink:href="#DejaVuSans-6c" transform="translate(747.572266 0)"/>
     <use xlink:href="#DejaVuSans-69" transform="translate(775.355469 0)"/>
     <use xlink:href="#DejaVuSans-74" transform="translate(803.138672 0)"/>
     <use xlink:href="#DejaVuSans-79" transform="translate(842.347656 0)"/>
     <use xlink:href="#DejaVuSans-20" transform="translate(901.527344 0)"/>
     <use xlink:href="#DejaVuSans-44" transform="translate(933.314453 0)"/>
     <use xlink:href="#DejaVuSans-72" transform="translate(1010.316406 0)"/>
     <use xlink:href="#DejaVuSans-6f" transform="translate(1049.179688 0)"/>
     <use xlink:href="#DejaVuSans-70" transform="translate(1110.361328 0)"/>
     <use xlink:href="#DejaVuSans-73" transform="translate(1173.837891 0)"/>
     <use xlink:href="#DejaVuSans-20" transform="translate(1225.9375 0)"/>
     <use xlink:href="#DejaVuSans-61" transform="translate(1257.724609 0)"/>
     <use xlink:href="#DejaVuSans-73" transform="translate(1319.003906 0)"/>
     <use xlink:href="#DejaVuSans-20" transform="translate(1371.103516 0)"/>
     <use xlink:href="#DejaVuSans-50" transform="translate(1402.890625 0)"/>
     <use xlink:href="#DejaVuSans-6f" transform="translate(1459.568359 0)"/>
     <use xlink:href="#DejaVuSans-6c" transform="translate(1520.75 0)"/>
     <use xlink:href="#DejaVuSans-69" transform="translate(1548.533203 0)"/>
     <use xlink:href="#DejaVuSans-63" transform="translate(1576.316406 0)"/>
     <use xlink:href="#DejaVuSans-79" transform="translate(1631.296875 0)"/>
     <use xlink:href="#DejaVuSans-20" transform="translate(1690.476562 0)"/>
     <use xlink:href="#DejaVuSans-53" transform="translate(1722.263672 0)"/>
     <use xlink:href="#DejaVuSans-74" transform="translate(1785.740234 0)"/>
     <use xlink:href="#DejaVuSans-61" transform="translate(1824.949219 0)"/>
     <use xlink:href="#DejaVuSans-62" transform="translate(1886.228516 0)"/>
     <use xlink:href="#DejaVuSans-69" transform="translate(1949.705078 0)"/>
     <use xlink:href="#DejaVuSans-6c" transform="translate(1977.488281 0)"/>
     <use xlink:href="#DejaVuSans-69" transform="translate(2005.271484 0)"/>
     <use xlink:href="#DejaVuSans-7a" transform="translate(2033.054688 0)"/>
     <use xlink:href="#DejaVuSans-65" transform="translate(2085.544922 0)"/>
     <use xlink:href="#DejaVuSans-73" transform="translate(2147.068359 0)"/>
    </g>
   </g>
   <g id="legend_1">
    <g id="patch_7">
     <path d="M 457.229531 60.320625 
L 594.9 60.320625 
Q 596.7 60.320625 596.7 58.520625 
L 596.7 33 
Q 596.7 31.2 594.9 31.2 
L 457.229531 31.2 
Q 455.429531 31.2 455.429531 33 
L 455.429531 58.520625 
Q 455.429531 60.320625 457.229531 60.320625 
z
" style="fill: #ffffff; opacity: 0.8; stroke: #cccccc; stroke-linejoin: miter"/>
    </g>
    <g id="line2d_27">
     <path d="M 459.029531 38.488594 
L 468.029531 38.488594 
L 477.029531 38.488594 
" style="fill: none; stroke: #f97316; stroke-width: 2; stroke-linecap: square"/>
     <g>
      <use xlink:href="#m2820f88e3b" x="468.029531" y="38.488594" style="fill: #f97316; stroke: #f97316"/>
     </g>
    </g>
    <g id="text_16">
     <!-- Reward std -->
     <g transform="translate(484.229531 41.638594) scale(0.09 -0.09)">
      <use xlink:href="#DejaVuSans-52"/>
      <use xlink:href="#DejaVuSans-65" transform="translate(64.982422 0)"/>
      <use xlink:href="#DejaVuSans-77" transform="translate(126.505859 0)"/>
      <use xlink:href="#DejaVuSans-61" transform="translate(208.292969 0)"/>
      <use xlink:href="#DejaVuSans-72" transform="translate(269.572266 0)"/>
      <use xlink:href="#DejaVuSans-64" transform="translate(308.935547 0)"/>
      <use xlink:href="#DejaVuSans-20" transform="translate(372.412109 0)"/>
      <use xlink:href="#DejaVuSans-73" transform="translate(404.199219 0)"/>
      <use xlink:href="#DejaVuSans-74" transform="translate(456.298828 0)"/>
      <use xlink:href="#DejaVuSans-64" transform="translate(495.507812 0)"/>
     </g>
    </g>
    <g id="line2d_28">
     <path d="M 459.029531 51.698906 
L 468.029531 51.698906 
L 477.029531 51.698906 
" style="fill: none; stroke: #0f766e; stroke-width: 2; stroke-linecap: square"/>
     <g>
      <use xlink:href="#mff85c80306" x="468.029531" y="51.698906" style="fill: #0f766e; stroke: #0f766e; stroke-linejoin: miter"/>
     </g>
    </g>
    <g id="text_17">
     <!-- Fraction zero reward std -->
     <g transform="translate(484.229531 54.848906) scale(0.09 -0.09)">
      <defs>
       <path id="DejaVuSans-46" d="M 628 4666 
L 3309 4666 
L 3309 4134 
L 1259 4134 
L 1259 2759 
L 3109 2759 
L 3109 2228 
L 1259 2228 
L 1259 0 
L 628 0 
L 628 4666 
z
" transform="scale(0.015625)"/>
      </defs>
      <use xlink:href="#DejaVuSans-46"/>
      <use xlink:href="#DejaVuSans-72" transform="translate(50.269531 0)"/>
      <use xlink:href="#DejaVuSans-61" transform="translate(91.382812 0)"/>
      <use xlink:href="#DejaVuSans-63" transform="translate(152.662109 0)"/>
      <use xlink:href="#DejaVuSans-74" transform="translate(207.642578 0)"/>
      <use xlink:href="#DejaVuSans-69" transform="translate(246.851562 0)"/>
      <use xlink:href="#DejaVuSans-6f" transform="translate(274.634766 0)"/>
      <use xlink:href="#DejaVuSans-6e" transform="translate(335.816406 0)"/>
      <use xlink:href="#DejaVuSans-20" transform="translate(399.195312 0)"/>
      <use xlink:href="#DejaVuSans-7a" transform="translate(430.982422 0)"/>
      <use xlink:href="#DejaVuSans-65" transform="translate(483.472656 0)"/>
      <use xlink:href="#DejaVuSans-72" transform="translate(544.996094 0)"/>
      <use xlink:href="#DejaVuSans-6f" transform="translate(583.859375 0)"/>
      <use xlink:href="#DejaVuSans-20" transform="translate(645.041016 0)"/>
      <use xlink:href="#DejaVuSans-72" transform="translate(676.828125 0)"/>
      <use xlink:href="#DejaVuSans-65" transform="translate(715.691406 0)"/>
      <use xlink:href="#DejaVuSans-77" transform="translate(777.214844 0)"/>
      <use xlink:href="#DejaVuSans-61" transform="translate(859.001953 0)"/>
      <use xlink:href="#DejaVuSans-72" transform="translate(920.28125 0)"/>
      <use xlink:href="#DejaVuSans-64" transform="translate(959.644531 0)"/>
      <use xlink:href="#DejaVuSans-20" transform="translate(1023.121094 0)"/>
      <use xlink:href="#DejaVuSans-73" transform="translate(1054.908203 0)"/>
      <use xlink:href="#DejaVuSans-74" transform="translate(1107.007812 0)"/>
      <use xlink:href="#DejaVuSans-64" transform="translate(1146.216797 0)"/>
     </g>
    </g>
   </g>
  </g>
 </g>
 <defs>
  <clipPath id="peb4569cf4a">
   <rect x="46.775" y="26.7" width="554.425" height="279.1"/>
  </clipPath>
 </defs>
</svg>
